STARTFONT 2.1
COMMENT This font contains 16x16 kanji glyphs
COMMENT from Japanese Industrial Standard, JIS X 9051-1984
COMMENT padded with one pixel on all sides.
COMMENT Id: 18x18ja.bdf,v 1.9 1999-11-07 15:51:24+00 mgk25 Rel mgk25 $
COMMENT Send bug reports to Markus Kuhn <mkuhn@acm.org>
FONT -Misc-Fixed-Medium-R-Normal-ja-18-120-100-100-C-180-ISO10646-1
SIZE 12 100 100
FONTBOUNDINGBOX 18 18 0 -3
STARTPROPERTIES 20
FONT_ASCENT 15
FONT_DESCENT 3
DEFAULT_CHAR 0
COPYRIGHT "contains glyphs from JIS X 9051-1984, with permission to use"
FONTNAME_REGISTRY ""
FOUNDRY "Misc"
FAMILY_NAME "Fixed"
WEIGHT_NAME "Medium"
SLANT "R"
SETWIDTH_NAME "Normal"
ADD_STYLE_NAME "ja"
PIXEL_SIZE 18
POINT_SIZE 120
RESOLUTION_X 100
RESOLUTION_Y 100
SPACING "C"
AVERAGE_WIDTH 180
CHARSET_REGISTRY "ISO10646"
CHARSET_ENCODING "1"
_XMBDFED_INFO "Edited with xmbdfed 4.2."
ENDPROPERTIES
CHARS 7358
STARTCHAR char0
ENCODING 0
SWIDTH 1080 0
DWIDTH 18 0
BBX 18 18 0 -3
BITMAP
000000
000000
2AAA80
000000
200080
000000
200080
000000
200080
000000
200080
000000
200080
000000
2AAA80
000000
000000
000000
ENDCHAR
STARTCHAR space
ENCODING 32
SWIDTH 1080 0
DWIDTH 18 0
BBX 18 18 0 -3
BITMAP
000000
000000
000000
000000
000000
000000
000000
000000
000000
000000
000000
000000
000000
000000
000000
000000
000000
000000
ENDCHAR
STARTCHAR exclam
ENCODING 33
SWIDTH 1080 0
DWIDTH 18 0
BBX 18 18 0 -3
BITMAP
000000
000000
00C000
00C000
00C000
00C000
00C000
008000
008000
008000
008000
000000
000000
00C000
00C000
000000
000000
000000
ENDCHAR
STARTCHAR quotedbl
ENCODING 34
SWIDTH 1080 0
DWIDTH 18 0
BBX 18 18 0 -3
BITMAP
000000
000000
021000
021000
021000
021000
000000
000000
000000
000000
000000
000000
000000
000000
000000
000000
000000
000000
ENDCHAR
STARTCHAR numbersign
ENCODING 35
SWIDTH 1080 0
DWIDTH 18 0
BBX 18 18 0 -3
BITMAP
000000
010800
010800
010800
010800
0FFE00
0FFE00
021000
021000
021000
021000
1FFC00
1FFC00
042000
042000
042000
042000
000000
ENDCHAR
STARTCHAR dollar
ENCODING 36
SWIDTH 1080 0
DWIDTH 18 0
BBX 18 18 0 -3
BITMAP
000000
000000
008000
03F000
049800
088C00
088000
048000
038000
00F000
008800
008400
088400
0C8800
07F000
008000
000000
000000
ENDCHAR
STARTCHAR percent
ENCODING 37
SWIDTH 1080 0
DWIDTH 18 0
BBX 18 18 0 -3
BITMAP
000000
000000
1C0100
220200
220400
220800
221000
222000
1C4000
008E00
011100
021100
041100
081100
101100
200E00
000000
000000
ENDCHAR
STARTCHAR ampersand
ENCODING 38
SWIDTH 1080 0
DWIDTH 18 0
BBX 18 18 0 -3
BITMAP
000000
000000
078000
0C4000
084000
08C000
0D8000
073E00
060800
0F1800
199000
30F000
206000
20F100
119B00
0F0E00
000000
000000
ENDCHAR
STARTCHAR quotesingle
ENCODING 39
SWIDTH 1080 0
DWIDTH 18 0
BBX 18 18 0 -3
BITMAP
000000
000000
008000
008000
008000
008000
000000
000000
000000
000000
000000
000000
000000
000000
000000
000000
000000
000000
ENDCHAR
STARTCHAR parenleft
ENCODING 40
SWIDTH 1080 0
DWIDTH 18 0
BBX 18 18 0 -3
BITMAP
000000
000400
000800
001800
001000
003000
002000
002000
002000
002000
002000
002000
003000
001000
001800
000800
000400
000000
ENDCHAR
STARTCHAR parenright
ENCODING 41
SWIDTH 1080 0
DWIDTH 18 0
BBX 18 18 0 -3
BITMAP
000000
080000
040000
060000
020000
030000
010000
010000
010000
010000
010000
010000
030000
020000
060000
040000
080000
000000
ENDCHAR
STARTCHAR asterisk
ENCODING 42
SWIDTH 1080 0
DWIDTH 18 0
BBX 18 18 0 -3
BITMAP
000000
000000
000000
000000
000000
008000
0C9800
06B000
03E000
008000
03E000
06B000
0C9800
008000
000000
000000
000000
000000
ENDCHAR
STARTCHAR plus
ENCODING 43
SWIDTH 1080 0
DWIDTH 18 0
BBX 18 18 0 -3
BITMAP
000000
000000
000000
008000
008000
008000
008000
008000
1FFE00
008000
008000
008000
008000
008000
008000
000000
000000
000000
ENDCHAR
STARTCHAR comma
ENCODING 44
SWIDTH 1080 0
DWIDTH 18 0
BBX 18 18 0 -3
BITMAP
000000
000000
000000
000000
000000
000000
000000
000000
000000
000000
000000
000000
000000
300000
300000
100000
200000
000000
ENDCHAR
STARTCHAR hyphen
ENCODING 45
SWIDTH 1080 0
DWIDTH 18 0
BBX 18 18 0 -3
BITMAP
000000
000000
000000
000000
000000
000000
000000
000000
1FFE00
000000
000000
000000
000000
000000
000000
000000
000000
000000
ENDCHAR
STARTCHAR period
ENCODING 46
SWIDTH 1080 0
DWIDTH 18 0
BBX 18 18 0 -3
BITMAP
000000
000000
000000
000000
000000
000000
000000
000000
000000
000000
000000
000000
000000
300000
300000
000000
000000
000000
ENDCHAR
STARTCHAR slash
ENCODING 47
SWIDTH 1080 0
DWIDTH 18 0
BBX 18 18 0 -3
BITMAP
000000
000080
000100
000200
000400
000800
001000
002000
004000
008000
010000
020000
040000
080000
100000
200000
400000
000000
ENDCHAR
STARTCHAR zero
ENCODING 48
SWIDTH 1080 0
DWIDTH 18 0
BBX 18 18 0 -3
BITMAP
000000
000000
01E000
021000
040800
040800
080400
080400
080400
080400
080400
080400
040800
040800
021000
01E000
000000
000000
ENDCHAR
STARTCHAR one
ENCODING 49
SWIDTH 1080 0
DWIDTH 18 0
BBX 18 18 0 -3
BITMAP
000000
000000
008000
018000
028000
048000
008000
008000
008000
008000
008000
008000
008000
008000
008000
03E000
000000
000000
ENDCHAR
STARTCHAR two
ENCODING 50
SWIDTH 1080 0
DWIDTH 18 0
BBX 18 18 0 -3
BITMAP
000000
000000
03F000
060800
0C0400
080400
000400
000C00
001800
003000
006000
00C000
018000
030000
060000
0FFC00
000000
000000
ENDCHAR
STARTCHAR three
ENCODING 51
SWIDTH 1080 0
DWIDTH 18 0
BBX 18 18 0 -3
BITMAP
000000
000000
01F000
070800
0C0400
000400
000400
000800
03F000
000800
000400
000400
000400
000C00
003800
0FE000
000000
000000
ENDCHAR
STARTCHAR four
ENCODING 52
SWIDTH 1080 0
DWIDTH 18 0
BBX 18 18 0 -3
BITMAP
000000
000000
003000
007000
00D000
019000
031000
061000
0C1000
181000
101000
1FFE00
001000
001000
001000
007C00
000000
000000
ENDCHAR
STARTCHAR five
ENCODING 53
SWIDTH 1080 0
DWIDTH 18 0
BBX 18 18 0 -3
BITMAP
000000
000000
0FFC00
080000
080000
080000
080000
0BF000
0C0800
080400
000400
000400
000C00
001800
007000
0FC000
000000
000000
ENDCHAR
STARTCHAR six
ENCODING 54
SWIDTH 1080 0
DWIDTH 18 0
BBX 18 18 0 -3
BITMAP
000000
000000
007800
01C000
030000
060000
040000
0DE000
0A1800
0C0C00
080400
080400
0C0400
040C00
061800
01E000
000000
000000
ENDCHAR
STARTCHAR seven
ENCODING 55
SWIDTH 1080 0
DWIDTH 18 0
BBX 18 18 0 -3
BITMAP
000000
000000
0FFE00
080400
080C00
080800
001800
001000
003000
002000
006000
004000
004000
00C000
008000
008000
000000
000000
ENDCHAR
STARTCHAR eight
ENCODING 56
SWIDTH 1080 0
DWIDTH 18 0
BBX 18 18 0 -3
BITMAP
000000
000000
01E000
061800
0C0C00
080400
080400
040800
03F000
040800
080400
080400
080400
0C0C00
061800
01E000
000000
000000
ENDCHAR
STARTCHAR nine
ENCODING 57
SWIDTH 1080 0
DWIDTH 18 0
BBX 18 18 0 -3
BITMAP
000000
000000
01E000
061800
0C0800
080C00
080400
080400
0C0C00
061400
01EC00
000800
001800
003000
00E000
078000
000000
000000
ENDCHAR
STARTCHAR colon
ENCODING 58
SWIDTH 1080 0
DWIDTH 18 0
BBX 18 18 0 -3
BITMAP
000000
000000
000000
000000
000000
000000
000000
00C000
00C000
000000
000000
000000
000000
00C000
00C000
000000
000000
000000
ENDCHAR
STARTCHAR semicolon
ENCODING 59
SWIDTH 1080 0
DWIDTH 18 0
BBX 18 18 0 -3
BITMAP
000000
000000
000000
000000
000000
000000
000000
00C000
00C000
000000
000000
000000
000000
00C000
00C000
004000
008000
000000
ENDCHAR
STARTCHAR less
ENCODING 60
SWIDTH 1080 0
DWIDTH 18 0
BBX 18 18 0 -3
BITMAP
000000
000000
000300
000C00
003000
00C000
030000
0C0000
300000
0C0000
020000
018000
006000
001000
000C00
000300
000000
000000
ENDCHAR
STARTCHAR equal
ENCODING 61
SWIDTH 1080 0
DWIDTH 18 0
BBX 18 18 0 -3
BITMAP
000000
000000
000000
000000
000000
000000
1FFE00
000000
000000
000000
1FFE00
000000
000000
000000
000000
000000
000000
000000
ENDCHAR
STARTCHAR greater
ENCODING 62
SWIDTH 1080 0
DWIDTH 18 0
BBX 18 18 0 -3
BITMAP
000000
000000
300000
0C0000
030000
00C000
003000
000C00
000300
000C00
001000
006000
018000
020000
0C0000
300000
000000
000000
ENDCHAR
STARTCHAR question
ENCODING 63
SWIDTH 1080 0
DWIDTH 18 0
BBX 18 18 0 -3
BITMAP
000000
000000
03F000
040800
080400
080400
040400
001800
006000
008000
008000
000000
000000
00C000
00C000
000000
000000
000000
ENDCHAR
STARTCHAR at
ENCODING 64
SWIDTH 1080 0
DWIDTH 18 0
BBX 18 18 0 -3
BITMAP
000000
000000
000000
01E000
061800
080400
08D400
113200
122200
122200
126400
09B800
080200
060C00
01F000
000000
000000
000000
ENDCHAR
STARTCHAR A
ENCODING 65
SWIDTH 1080 0
DWIDTH 18 0
BBX 18 18 0 -3
BITMAP
000000
000000
008000
01C000
014000
036000
022000
063000
041000
07F000
0C1800
080800
180C00
100400
7C1F00
000000
000000
000000
ENDCHAR
STARTCHAR B
ENCODING 66
SWIDTH 1080 0
DWIDTH 18 0
BBX 18 18 0 -3
BITMAP
000000
000000
1FF000
040800
040400
040400
040400
040800
07F000
040C00
040200
040200
040200
040400
1FF800
000000
000000
000000
ENDCHAR
STARTCHAR C
ENCODING 67
SWIDTH 1080 0
DWIDTH 18 0
BBX 18 18 0 -3
BITMAP
000000
000000
01E400
061400
0C0C00
080400
180400
100000
100000
100000
180000
080400
0C0C00
061800
01E000
000000
000000
000000
ENDCHAR
STARTCHAR D
ENCODING 68
SWIDTH 1080 0
DWIDTH 18 0
BBX 18 18 0 -3
BITMAP
000000
000000
1FE000
041800
040C00
040400
040600
040200
040200
040200
040600
040400
040C00
041800
1FE000
000000
000000
000000
ENDCHAR
STARTCHAR E
ENCODING 69
SWIDTH 1080 0
DWIDTH 18 0
BBX 18 18 0 -3
BITMAP
000000
000000
1FFC00
040400
040200
040000
042000
042000
07E000
042000
042000
040000
040200
040400
1FFC00
000000
000000
000000
ENDCHAR
STARTCHAR F
ENCODING 70
SWIDTH 1080 0
DWIDTH 18 0
BBX 18 18 0 -3
BITMAP
000000
000000
0FFE00
020200
020200
020000
021000
021000
03F000
021000
021000
020000
020000
020000
0F8000
000000
000000
000000
ENDCHAR
STARTCHAR G
ENCODING 71
SWIDTH 1080 0
DWIDTH 18 0
BBX 18 18 0 -3
BITMAP
000000
000000
01E400
061C00
0C0400
080400
180000
100000
100000
101F00
180400
080400
0C0C00
061400
01E400
000000
000000
000000
ENDCHAR
STARTCHAR H
ENCODING 72
SWIDTH 1080 0
DWIDTH 18 0
BBX 18 18 0 -3
BITMAP
000000
000000
3E1F00
080400
080400
080400
080400
080400
0FFC00
080400
080400
080400
080400
080400
3E1F00
000000
000000
000000
ENDCHAR
STARTCHAR I
ENCODING 73
SWIDTH 1080 0
DWIDTH 18 0
BBX 18 18 0 -3
BITMAP
000000
000000
03E000
008000
008000
008000
008000
008000
008000
008000
008000
008000
008000
008000
03E000
000000
000000
000000
ENDCHAR
STARTCHAR J
ENCODING 74
SWIDTH 1080 0
DWIDTH 18 0
BBX 18 18 0 -3
BITMAP
000000
000000
007C00
001000
001000
001000
001000
001000
001000
001000
001000
001000
081000
0C2000
07C000
000000
000000
000000
ENDCHAR
STARTCHAR K
ENCODING 75
SWIDTH 1080 0
DWIDTH 18 0
BBX 18 18 0 -3
BITMAP
000000
000000
1F3E00
041800
043000
046000
04C000
058000
078000
04C000
046000
043000
041800
040C00
1F1F00
000000
000000
000000
ENDCHAR
STARTCHAR L
ENCODING 76
SWIDTH 1080 0
DWIDTH 18 0
BBX 18 18 0 -3
BITMAP
000000
000000
0F8000
020000
020000
020000
020000
020000
020000
020000
020000
020200
020200
020200
0FFE00
000000
000000
000000
ENDCHAR
STARTCHAR M
ENCODING 77
SWIDTH 1080 0
DWIDTH 18 0
BBX 18 18 0 -3
BITMAP
000000
000000
780F00
180C00
1C1C00
141400
141400
163400
122400
122400
136400
114400
11C400
108400
788F00
000000
000000
000000
ENDCHAR
STARTCHAR N
ENCODING 78
SWIDTH 1080 0
DWIDTH 18 0
BBX 18 18 0 -3
BITMAP
000000
000000
3C1F00
0E0400
0A0400
0B0400
098400
088400
08C400
086400
082400
083400
081C00
080C00
3C0400
000000
000000
000000
ENDCHAR
STARTCHAR O
ENCODING 79
SWIDTH 1080 0
DWIDTH 18 0
BBX 18 18 0 -3
BITMAP
000000
000000
01E000
061800
0C0C00
080400
180600
100200
100200
100200
180600
080400
0C0C00
061800
01E000
000000
000000
000000
ENDCHAR
STARTCHAR P
ENCODING 80
SWIDTH 1080 0
DWIDTH 18 0
BBX 18 18 0 -3
BITMAP
000000
000000
0FF800
020400
020200
020200
020200
020400
03F800
020000
020000
020000
020000
020000
0F8000
000000
000000
000000
ENDCHAR
STARTCHAR Q
ENCODING 81
SWIDTH 1080 0
DWIDTH 18 0
BBX 18 18 0 -3
BITMAP
000000
000000
01E000
061800
0C0C00
080400
180600
100200
100200
100200
180600
08C400
0D2C00
061800
01E900
000600
000000
000000
ENDCHAR
STARTCHAR R
ENCODING 82
SWIDTH 1080 0
DWIDTH 18 0
BBX 18 18 0 -3
BITMAP
000000
000000
1FF000
040800
040400
040400
040400
040800
07F000
041000
041800
040800
040C00
040400
1F1F00
000000
000000
000000
ENDCHAR
STARTCHAR S
ENCODING 83
SWIDTH 1080 0
DWIDTH 18 0
BBX 18 18 0 -3
BITMAP
000000
000000
03E400
041400
080C00
080400
080400
060000
01E000
001800
080400
080400
0C0400
0A0800
09F000
000000
000000
000000
ENDCHAR
STARTCHAR T
ENCODING 84
SWIDTH 1080 0
DWIDTH 18 0
BBX 18 18 0 -3
BITMAP
000000
000000
3FFE00
208200
208200
008000
008000
008000
008000
008000
008000
008000
008000
008000
03E000
000000
000000
000000
ENDCHAR
STARTCHAR U
ENCODING 85
SWIDTH 1080 0
DWIDTH 18 0
BBX 18 18 0 -3
BITMAP
000000
000000
3E1F00
080400
080400
080400
080400
080400
080400
080400
080400
080400
0C0C00
061800
01E000
000000
000000
000000
ENDCHAR
STARTCHAR V
ENCODING 86
SWIDTH 1080 0
DWIDTH 18 0
BBX 18 18 0 -3
BITMAP
000000
000000
3E1F00
080400
0C0C00
040800
041800
061000
021000
023000
032000
016000
014000
01C000
008000
000000
000000
000000
ENDCHAR
STARTCHAR W
ENCODING 87
SWIDTH 1080 0
DWIDTH 18 0
BBX 18 18 0 -3
BITMAP
000000
000000
7CCF80
10C200
10C200
11E200
192600
092400
0B3400
0A1400
0A1400
0E1C00
061800
040800
040800
000000
000000
000000
ENDCHAR
STARTCHAR X
ENCODING 88
SWIDTH 1080 0
DWIDTH 18 0
BBX 18 18 0 -3
BITMAP
000000
000000
3E3E00
080800
0C1800
063000
036000
01C000
008000
01C000
036000
063000
0C1800
080800
3C3E00
000000
000000
000000
ENDCHAR
STARTCHAR Y
ENCODING 89
SWIDTH 1080 0
DWIDTH 18 0
BBX 18 18 0 -3
BITMAP
000000
000000
3E3E00
080800
0C1800
041000
063000
022000
036000
01C000
008000
008000
008000
008000
03E000
000000
000000
000000
ENDCHAR
STARTCHAR Z
ENCODING 90
SWIDTH 1080 0
DWIDTH 18 0
BBX 18 18 0 -3
BITMAP
000000
000000
0FFC00
081800
083000
002000
006000
00C000
008000
018000
030000
020000
060400
0C0400
1FFC00
000000
000000
000000
ENDCHAR
STARTCHAR bracketleft
ENCODING 91
SWIDTH 1080 0
DWIDTH 18 0
BBX 18 18 0 -3
BITMAP
000000
007C00
004000
004000
004000
004000
004000
004000
004000
004000
004000
004000
004000
004000
004000
004000
007C00
000000
ENDCHAR
STARTCHAR backslash
ENCODING 92
SWIDTH 1080 0
DWIDTH 18 0
BBX 18 18 0 -3
BITMAP
000000
400000
200000
100000
080000
040000
020000
010000
008000
004000
002000
001000
000800
000400
000200
000100
000080
000000
ENDCHAR
STARTCHAR bracketright
ENCODING 93
SWIDTH 1080 0
DWIDTH 18 0
BBX 18 18 0 -3
BITMAP
000000
0F8000
008000
008000
008000
008000
008000
008000
008000
008000
008000
008000
008000
008000
008000
008000
0F8000
000000
ENDCHAR
STARTCHAR asciicircum
ENCODING 94
SWIDTH 1080 0
DWIDTH 18 0
BBX 18 18 0 -3
BITMAP
000000
00C000
012000
021000
000000
000000
000000
000000
000000
000000
000000
000000
000000
000000
000000
000000
000000
000000
ENDCHAR
STARTCHAR underscore
ENCODING 95
SWIDTH 1080 0
DWIDTH 18 0
BBX 18 18 0 -3
BITMAP
000000
000000
000000
000000
000000
000000
000000
000000
000000
000000
000000
000000
000000
000000
000000
000000
7FFF80
000000
ENDCHAR
STARTCHAR grave
ENCODING 96
SWIDTH 1080 0
DWIDTH 18 0
BBX 18 18 0 -3
BITMAP
010000
008000
004000
000000
000000
000000
000000
000000
000000
000000
000000
000000
000000
000000
000000
000000
000000
000000
ENDCHAR
STARTCHAR a
ENCODING 97
SWIDTH 1080 0
DWIDTH 18 0
BBX 18 18 0 -3
BITMAP
000000
000000
000000
000000
000000
000000
000000
03E000
001000
001000
03F000
041000
041000
043400
03CC00
000000
000000
000000
ENDCHAR
STARTCHAR b
ENCODING 98
SWIDTH 1080 0
DWIDTH 18 0
BBX 18 18 0 -3
BITMAP
000000
000000
0E0000
020000
020000
020000
020000
02F000
030800
020400
020400
020400
020400
030800
02F000
000000
000000
000000
ENDCHAR
STARTCHAR c
ENCODING 99
SWIDTH 1080 0
DWIDTH 18 0
BBX 18 18 0 -3
BITMAP
000000
000000
000000
000000
000000
000000
000000
01F000
020800
040000
040000
040000
040000
020800
01F000
000000
000000
000000
ENDCHAR
STARTCHAR d
ENCODING 100
SWIDTH 1080 0
DWIDTH 18 0
BBX 18 18 0 -3
BITMAP
000000
000000
007000
001000
001000
001000
001000
03D000
043000
081000
081000
081000
081000
043000
03DC00
000000
000000
000000
ENDCHAR
STARTCHAR e
ENCODING 101
SWIDTH 1080 0
DWIDTH 18 0
BBX 18 18 0 -3
BITMAP
000000
000000
000000
000000
000000
000000
000000
01E000
021000
040800
07F800
040000
040000
020800
01F000
000000
000000
000000
ENDCHAR
STARTCHAR f
ENCODING 102
SWIDTH 1080 0
DWIDTH 18 0
BBX 18 18 0 -3
BITMAP
000000
000000
003C00
004400
008000
008000
008000
07F000
008000
008000
008000
008000
008000
008000
03E000
000000
000000
000000
ENDCHAR
STARTCHAR g
ENCODING 103
SWIDTH 1080 0
DWIDTH 18 0
BBX 18 18 0 -3
BITMAP
000000
000000
000000
000000
000000
000000
000000
03EC00
041000
041000
041000
03E000
040000
07F800
080400
080400
07F800
000000
ENDCHAR
STARTCHAR h
ENCODING 104
SWIDTH 1080 0
DWIDTH 18 0
BBX 18 18 0 -3
BITMAP
000000
000000
0E0000
020000
020000
020000
020000
02F000
031800
020800
020800
020800
020800
020800
0F1E00
000000
000000
000000
ENDCHAR
STARTCHAR i
ENCODING 105
SWIDTH 1080 0
DWIDTH 18 0
BBX 18 18 0 -3
BITMAP
000000
000000
000000
00C000
00C000
000000
000000
01C000
004000
004000
004000
004000
004000
004000
01F000
000000
000000
000000
ENDCHAR
STARTCHAR j
ENCODING 106
SWIDTH 1080 0
DWIDTH 18 0
BBX 18 18 0 -3
BITMAP
000000
000000
000000
006000
006000
000000
000000
00E000
002000
002000
002000
002000
002000
002000
002000
084000
0F8000
000000
ENDCHAR
STARTCHAR k
ENCODING 107
SWIDTH 1080 0
DWIDTH 18 0
BBX 18 18 0 -3
BITMAP
000000
000000
1C0000
040000
040000
040000
040000
047C00
043000
04C000
070000
048000
046000
041800
1F3E00
000000
000000
000000
ENDCHAR
STARTCHAR l
ENCODING 108
SWIDTH 1080 0
DWIDTH 18 0
BBX 18 18 0 -3
BITMAP
000000
000000
038000
008000
008000
008000
008000
008000
008000
008000
008000
008000
008000
008000
03E000
000000
000000
000000
ENDCHAR
STARTCHAR m
ENCODING 109
SWIDTH 1080 0
DWIDTH 18 0
BBX 18 18 0 -3
BITMAP
000000
000000
000000
000000
000000
000000
000000
1B9C00
0C6200
084200
084200
084200
084200
084200
1CE700
000000
000000
000000
ENDCHAR
STARTCHAR n
ENCODING 110
SWIDTH 1080 0
DWIDTH 18 0
BBX 18 18 0 -3
BITMAP
000000
000000
000000
000000
000000
000000
000000
0EF000
031800
020800
020800
020800
020800
020800
0F1E00
000000
000000
000000
ENDCHAR
STARTCHAR o
ENCODING 111
SWIDTH 1080 0
DWIDTH 18 0
BBX 18 18 0 -3
BITMAP
000000
000000
000000
000000
000000
000000
000000
01E000
021000
040800
040800
040800
040800
021000
01E000
000000
000000
000000
ENDCHAR
STARTCHAR p
ENCODING 112
SWIDTH 1080 0
DWIDTH 18 0
BBX 18 18 0 -3
BITMAP
000000
000000
000000
000000
000000
000000
000000
0EF000
030800
020400
020400
020400
030800
02F000
020000
020000
0F8000
000000
ENDCHAR
STARTCHAR q
ENCODING 113
SWIDTH 1080 0
DWIDTH 18 0
BBX 18 18 0 -3
BITMAP
000000
000000
000000
000000
000000
000000
000000
03D000
043000
081000
081000
081000
043000
03D000
001000
001000
007C00
000000
ENDCHAR
STARTCHAR r
ENCODING 114
SWIDTH 1080 0
DWIDTH 18 0
BBX 18 18 0 -3
BITMAP
000000
000000
000000
000000
000000
000000
000000
073800
014800
018000
010000
010000
010000
010000
07C000
000000
000000
000000
ENDCHAR
STARTCHAR s
ENCODING 115
SWIDTH 1080 0
DWIDTH 18 0
BBX 18 18 0 -3
BITMAP
000000
000000
000000
000000
000000
000000
000000
03E800
041800
040800
03C000
003000
040800
060800
05F000
000000
000000
000000
ENDCHAR
STARTCHAR t
ENCODING 116
SWIDTH 1080 0
DWIDTH 18 0
BBX 18 18 0 -3
BITMAP
000000
000000
000000
010000
010000
010000
010000
0FF000
010000
010000
010000
010000
010000
008800
007800
000000
000000
000000
ENDCHAR
STARTCHAR u
ENCODING 117
SWIDTH 1080 0
DWIDTH 18 0
BBX 18 18 0 -3
BITMAP
000000
000000
000000
000000
000000
000000
000000
0E3800
020800
020800
020800
020800
020800
031800
01EE00
000000
000000
000000
ENDCHAR
STARTCHAR v
ENCODING 118
SWIDTH 1080 0
DWIDTH 18 0
BBX 18 18 0 -3
BITMAP
000000
000000
000000
000000
000000
000000
000000
1E3C00
041000
063000
022000
036000
014000
01C000
008000
000000
000000
000000
ENDCHAR
STARTCHAR w
ENCODING 119
SWIDTH 1080 0
DWIDTH 18 0
BBX 18 18 0 -3
BITMAP
000000
000000
000000
000000
000000
000000
000000
3CCF00
08C400
0DEC00
052800
052800
073800
021000
021000
000000
000000
000000
ENDCHAR
STARTCHAR x
ENCODING 120
SWIDTH 1080 0
DWIDTH 18 0
BBX 18 18 0 -3
BITMAP
000000
000000
000000
000000
000000
000000
000000
0F3C00
021000
012000
00C000
012000
021000
040800
1F3E00
000000
000000
000000
ENDCHAR
STARTCHAR y
ENCODING 121
SWIDTH 1080 0
DWIDTH 18 0
BBX 18 18 0 -3
BITMAP
000000
000000
000000
000000
000000
000000
000000
0F1E00
020800
031800
011000
01B000
00A000
006000
00C000
098000
0F0000
000000
ENDCHAR
STARTCHAR z
ENCODING 122
SWIDTH 1080 0
DWIDTH 18 0
BBX 18 18 0 -3
BITMAP
000000
000000
000000
000000
000000
000000
000000
07F800
041000
042000
004000
008000
010800
020800
07F800
000000
000000
000000
ENDCHAR
STARTCHAR braceleft
ENCODING 123
SWIDTH 1080 0
DWIDTH 18 0
BBX 18 18 0 -3
BITMAP
000000
000400
000800
001000
001000
001000
001000
001000
002000
001000
001000
001000
001000
001000
001000
000800
000400
000000
ENDCHAR
STARTCHAR bar
ENCODING 124
SWIDTH 1080 0
DWIDTH 18 0
BBX 18 18 0 -3
BITMAP
000000
008000
008000
008000
008000
008000
008000
008000
008000
008000
008000
008000
008000
008000
008000
008000
008000
000000
ENDCHAR
STARTCHAR braceright
ENCODING 125
SWIDTH 1080 0
DWIDTH 18 0
BBX 18 18 0 -3
BITMAP
000000
080000
040000
020000
020000
020000
020000
020000
010000
020000
020000
020000
020000
020000
020000
040000
080000
000000
ENDCHAR
STARTCHAR asciitilde
ENCODING 126
SWIDTH 1080 0
DWIDTH 18 0
BBX 18 18 0 -3
BITMAP
000000
000000
000000
000000
000000
000000
000000
1E0080
218080
406100
401E00
000000
000000
000000
000000
000000
000000
000000
ENDCHAR
STARTCHAR space
ENCODING 160
SWIDTH 1080 0
DWIDTH 18 0
BBX 18 18 0 -3
BITMAP
000000
000000
000000
000000
000000
000000
000000
000000
000000
000000
000000
000000
000000
000000
000000
000000
000000
000000
ENDCHAR
STARTCHAR exclamdown
ENCODING 161
SWIDTH 1080 0
DWIDTH 18 0
BBX 18 18 0 -3
BITMAP
000000
000000
00C000
00C000
000000
000000
008000
008000
008000
008000
00C000
00C000
00C000
00C000
00C000
000000
000000
000000
ENDCHAR
STARTCHAR cent
ENCODING 162
SWIDTH 1080 0
DWIDTH 18 0
BBX 18 18 0 -3
BITMAP
000000
000000
000000
000000
000000
000000
001000
01E000
023000
044800
044000
048000
048000
030800
01F000
020000
000000
000000
ENDCHAR
STARTCHAR sterling
ENCODING 163
SWIDTH 1080 0
DWIDTH 18 0
BBX 18 18 0 -3
BITMAP
000000
000000
00F800
010400
020200
020000
020000
020000
020000
3FF800
010000
010000
1D0000
230100
22C200
1C3C00
000000
000000
ENDCHAR
STARTCHAR currency
ENCODING 164
SWIDTH 1080 0
DWIDTH 18 0
BBX 18 18 0 -3
BITMAP
000000
000000
000000
100200
080400
05E800
021000
040800
040800
040800
040800
021000
05E800
080400
100200
000000
000000
000000
ENDCHAR
STARTCHAR yen
ENCODING 165
SWIDTH 1080 0
DWIDTH 18 0
BBX 18 18 0 -3
BITMAP
000000
000000
3E1F00
080400
080400
040800
3FFF00
021000
022000
014000
3FFF00
008000
008000
008000
008000
03E000
000000
000000
ENDCHAR
STARTCHAR brokenbar
ENCODING 166
SWIDTH 1080 0
DWIDTH 18 0
BBX 18 18 0 -3
BITMAP
000000
008000
008000
008000
008000
008000
008000
008000
000000
000000
008000
008000
008000
008000
008000
008000
008000
000000
ENDCHAR
STARTCHAR section
ENCODING 167
SWIDTH 1080 0
DWIDTH 18 0
BBX 18 18 0 -3
BITMAP
000000
000000
03E000
063800
061800
070000
03C000
067000
041800
060800
039800
00F000
003800
061800
071800
01F000
000000
000000
ENDCHAR
STARTCHAR dieresis
ENCODING 168
SWIDTH 1080 0
DWIDTH 18 0
BBX 18 18 0 -3
BITMAP
000000
033000
033000
000000
000000
000000
000000
000000
000000
000000
000000
000000
000000
000000
000000
000000
000000
000000
ENDCHAR
STARTCHAR copyright
ENCODING 169
SWIDTH 1080 0
DWIDTH 18 0
BBX 18 18 0 -3
BITMAP
000000
000000
01E000
061800
080400
11E200
121200
240900
240100
240100
240900
121200
11E200
080400
061800
01E000
000000
000000
ENDCHAR
STARTCHAR ordfeminine
ENCODING 170
SWIDTH 1080 0
DWIDTH 18 0
BBX 18 18 0 -3
BITMAP
000000
018000
024000
01C000
024000
01A000
000000
03E000
000000
000000
000000
000000
000000
000000
000000
000000
000000
000000
ENDCHAR
STARTCHAR guillemotleft
ENCODING 171
SWIDTH 1080 0
DWIDTH 18 0
BBX 18 18 0 -3
BITMAP
000000
000000
000000
000000
000000
000000
009000
012000
024000
048000
048000
024000
012000
009000
000000
000000
000000
000000
ENDCHAR
STARTCHAR logicalnot
ENCODING 172
SWIDTH 1080 0
DWIDTH 18 0
BBX 18 18 0 -3
BITMAP
000000
000000
000000
000000
000000
000000
000000
1FFE00
000200
000200
000200
000200
000000
000000
000000
000000
000000
000000
ENDCHAR
STARTCHAR hyphen
ENCODING 173
SWIDTH 1080 0
DWIDTH 18 0
BBX 18 18 0 -3
BITMAP
000000
000000
000000
000000
000000
000000
000000
000000
000000
0FFC00
000000
000000
000000
000000
000000
000000
000000
000000
ENDCHAR
STARTCHAR registered
ENCODING 174
SWIDTH 1080 0
DWIDTH 18 0
BBX 18 18 0 -3
BITMAP
000000
01E000
021000
05C800
092400
092400
09C400
092400
052800
021000
01E000
000000
000000
000000
000000
000000
000000
000000
ENDCHAR
STARTCHAR macron
ENCODING 175
SWIDTH 1080 0
DWIDTH 18 0
BBX 18 18 0 -3
BITMAP
000000
7FFF80
000000
000000
000000
000000
000000
000000
000000
000000
000000
000000
000000
000000
000000
000000
000000
000000
ENDCHAR
STARTCHAR degree
ENCODING 176
SWIDTH 1080 0
DWIDTH 18 0
BBX 18 18 0 -3
BITMAP
000000
000000
180000
240000
240000
180000
000000
000000
000000
000000
000000
000000
000000
000000
000000
000000
000000
000000
ENDCHAR
STARTCHAR plusminus
ENCODING 177
SWIDTH 1080 0
DWIDTH 18 0
BBX 18 18 0 -3
BITMAP
000000
000000
000000
008000
008000
008000
008000
1FFE00
008000
008000
008000
008000
000000
000000
1FFE00
000000
000000
000000
ENDCHAR
STARTCHAR twosuperior
ENCODING 178
SWIDTH 1080 0
DWIDTH 18 0
BBX 18 18 0 -3
BITMAP
000000
00C000
012000
002000
00C000
010000
01E000
000000
000000
000000
000000
000000
000000
000000
000000
000000
000000
000000
ENDCHAR
STARTCHAR threesuperior
ENCODING 179
SWIDTH 1080 0
DWIDTH 18 0
BBX 18 18 0 -3
BITMAP
000000
00C000
012000
004000
002000
012000
00C000
000000
000000
000000
000000
000000
000000
000000
000000
000000
000000
000000
ENDCHAR
STARTCHAR acute
ENCODING 180
SWIDTH 1080 0
DWIDTH 18 0
BBX 18 18 0 -3
BITMAP
002000
004000
008000
000000
000000
000000
000000
000000
000000
000000
000000
000000
000000
000000
000000
000000
000000
000000
ENDCHAR
STARTCHAR mu
ENCODING 181
SWIDTH 1080 0
DWIDTH 18 0
BBX 18 18 0 -3
BITMAP
000000
000000
000000
000000
000000
000000
000000
1C0800
040800
040800
040800
040800
061800
05E600
040000
040000
1F0000
000000
ENDCHAR
STARTCHAR paragraph
ENCODING 182
SWIDTH 1080 0
DWIDTH 18 0
BBX 18 18 0 -3
BITMAP
000000
000000
03F000
079000
0F9000
0F9000
0F9000
079000
039000
009000
009000
009000
009000
009000
009000
009000
009000
000000
ENDCHAR
STARTCHAR periodcentered
ENCODING 183
SWIDTH 1080 0
DWIDTH 18 0
BBX 18 18 0 -3
BITMAP
000000
000000
000000
000000
000000
000000
000000
000000
000000
00C000
00C000
000000
000000
000000
000000
000000
000000
000000
ENDCHAR
STARTCHAR cedilla
ENCODING 184
SWIDTH 1080 0
DWIDTH 18 0
BBX 18 18 0 -3
BITMAP
000000
000000
000000
000000
000000
000000
000000
000000
000000
000000
000000
000000
000000
000000
000000
004000
012000
00C000
ENDCHAR
STARTCHAR onesuperior
ENCODING 185
SWIDTH 1080 0
DWIDTH 18 0
BBX 18 18 0 -3
BITMAP
000000
008000
018000
008000
008000
008000
01C000
000000
000000
000000
000000
000000
000000
000000
000000
000000
000000
000000
ENDCHAR
STARTCHAR ordmasculine
ENCODING 186
SWIDTH 1080 0
DWIDTH 18 0
BBX 18 18 0 -3
BITMAP
000000
01C000
022000
022000
01C000
000000
03E000
000000
000000
000000
000000
000000
000000
000000
000000
000000
000000
000000
ENDCHAR
STARTCHAR guillemotright
ENCODING 187
SWIDTH 1080 0
DWIDTH 18 0
BBX 18 18 0 -3
BITMAP
000000
000000
000000
000000
000000
000000
048000
024000
012000
009000
009000
012000
024000
048000
000000
000000
000000
000000
ENDCHAR
STARTCHAR onequarter
ENCODING 188
SWIDTH 1080 0
DWIDTH 18 0
BBX 18 18 0 -3
BITMAP
000000
000000
000000
000000
020000
060000
020000
020000
021000
073000
005000
009000
00F800
001000
003800
000000
000000
000000
ENDCHAR
STARTCHAR onehalf
ENCODING 189
SWIDTH 1080 0
DWIDTH 18 0
BBX 18 18 0 -3
BITMAP
000000
000000
000000
000000
020000
060000
020000
020000
020000
073000
004800
000800
003000
004000
007800
000000
000000
000000
ENDCHAR
STARTCHAR threequarters
ENCODING 190
SWIDTH 1080 0
DWIDTH 18 0
BBX 18 18 0 -3
BITMAP
000000
000000
000000
000000
030000
048000
010000
008000
049000
033000
005000
009000
00F800
001000
003800
000000
000000
000000
ENDCHAR
STARTCHAR questiondown
ENCODING 191
SWIDTH 1080 0
DWIDTH 18 0
BBX 18 18 0 -3
BITMAP
000000
000000
00C000
00C000
000000
000000
004000
004000
018000
060000
080800
080400
080400
040800
03F000
000000
000000
000000
ENDCHAR
STARTCHAR Agrave
ENCODING 192
SWIDTH 1080 0
DWIDTH 18 0
BBX 18 18 0 -3
BITMAP
020000
010000
008000
000000
01C000
014000
036000
022000
063000
041000
07F000
0C1800
080800
180C00
7C1F00
000000
000000
000000
ENDCHAR
STARTCHAR Aacute
ENCODING 193
SWIDTH 1080 0
DWIDTH 18 0
BBX 18 18 0 -3
BITMAP
002000
004000
008000
000000
01C000
014000
036000
022000
063000
041000
07F000
0C1800
080800
180C00
7C1F00
000000
000000
000000
ENDCHAR
STARTCHAR Acircumflex
ENCODING 194
SWIDTH 1080 0
DWIDTH 18 0
BBX 18 18 0 -3
BITMAP
008000
014000
022000
000000
01C000
014000
036000
022000
063000
041000
07F000
0C1800
080800
180C00
7C1F00
000000
000000
000000
ENDCHAR
STARTCHAR Atilde
ENCODING 195
SWIDTH 1080 0
DWIDTH 18 0
BBX 18 18 0 -3
BITMAP
000000
019000
026000
000000
01C000
014000
036000
022000
063000
041000
07F000
0C1800
080800
180C00
7C1F00
000000
000000
000000
ENDCHAR
STARTCHAR Adieresis
ENCODING 196
SWIDTH 1080 0
DWIDTH 18 0
BBX 18 18 0 -3
BITMAP
000000
063000
063000
000000
01C000
014000
036000
022000
063000
041000
07F000
0C1800
080800
180C00
7C1F00
000000
000000
000000
ENDCHAR
STARTCHAR Aring
ENCODING 197
SWIDTH 1080 0
DWIDTH 18 0
BBX 18 18 0 -3
BITMAP
008000
014000
008000
000000
01C000
014000
036000
022000
063000
041000
07F000
0C1800
080800
180C00
7C1F00
000000
000000
000000
ENDCHAR
STARTCHAR AE
ENCODING 198
SWIDTH 1080 0
DWIDTH 18 0
BBX 18 18 0 -3
BITMAP
000000
000000
01FF00
038100
028080
068000
048800
0C8800
0FF800
088800
188800
108000
308080
208100
F8FF00
000000
000000
000000
ENDCHAR
STARTCHAR Ccedilla
ENCODING 199
SWIDTH 1080 0
DWIDTH 18 0
BBX 18 18 0 -3
BITMAP
000000
000000
01E400
061400
0C0C00
080400
180400
100000
100000
100000
180000
080400
0C0C00
061800
01E000
004000
012000
00C000
ENDCHAR
STARTCHAR Egrave
ENCODING 200
SWIDTH 1080 0
DWIDTH 18 0
BBX 18 18 0 -3
BITMAP
020000
010000
008000
000000
1FFC00
040400
040200
042000
042000
07E000
042000
042000
040200
040400
1FFC00
000000
000000
000000
ENDCHAR
STARTCHAR Eacute
ENCODING 201
SWIDTH 1080 0
DWIDTH 18 0
BBX 18 18 0 -3
BITMAP
002000
004000
008000
000000
1FFC00
040400
040200
042000
042000
07E000
042000
042000
040200
040400
1FFC00
000000
000000
000000
ENDCHAR
STARTCHAR Ecircumflex
ENCODING 202
SWIDTH 1080 0
DWIDTH 18 0
BBX 18 18 0 -3
BITMAP
00C000
012000
021000
000000
1FFC00
040400
040200
042000
042000
07E000
042000
042000
040200
040400
1FFC00
000000
000000
000000
ENDCHAR
STARTCHAR Edieresis
ENCODING 203
SWIDTH 1080 0
DWIDTH 18 0
BBX 18 18 0 -3
BITMAP
000000
033000
033000
000000
1FFC00
040400
040200
042000
042000
07E000
042000
042000
040200
040400
1FFC00
000000
000000
000000
ENDCHAR
STARTCHAR Igrave
ENCODING 204
SWIDTH 1080 0
DWIDTH 18 0
BBX 18 18 0 -3
BITMAP
020000
010000
008000
000000
03E000
008000
008000
008000
008000
008000
008000
008000
008000
008000
03E000
000000
000000
000000
ENDCHAR
STARTCHAR Iacute
ENCODING 205
SWIDTH 1080 0
DWIDTH 18 0
BBX 18 18 0 -3
BITMAP
002000
004000
008000
000000
03E000
008000
008000
008000
008000
008000
008000
008000
008000
008000
03E000
000000
000000
000000
ENDCHAR
STARTCHAR Icircumflex
ENCODING 206
SWIDTH 1080 0
DWIDTH 18 0
BBX 18 18 0 -3
BITMAP
008000
014000
022000
000000
03E000
008000
008000
008000
008000
008000
008000
008000
008000
008000
03E000
000000
000000
000000
ENDCHAR
STARTCHAR Idieresis
ENCODING 207
SWIDTH 1080 0
DWIDTH 18 0
BBX 18 18 0 -3
BITMAP
000000
063000
063000
000000
03E000
008000
008000
008000
008000
008000
008000
008000
008000
008000
03E000
000000
000000
000000
ENDCHAR
STARTCHAR Eth
ENCODING 208
SWIDTH 1080 0
DWIDTH 18 0
BBX 18 18 0 -3
BITMAP
000000
000000
1FE000
041800
040C00
040400
040600
040200
1F0200
040200
040600
040400
040C00
041800
1FE000
000000
000000
000000
ENDCHAR
STARTCHAR Ntilde
ENCODING 209
SWIDTH 1080 0
DWIDTH 18 0
BBX 18 18 0 -3
BITMAP
000000
019000
026000
000000
3E1F00
0C0400
0E0400
0B0400
098400
08C400
086400
083400
081C00
080C00
3E0400
000000
000000
000000
ENDCHAR
STARTCHAR Ograve
ENCODING 210
SWIDTH 1080 0
DWIDTH 18 0
BBX 18 18 0 -3
BITMAP
010000
008000
004000
000000
01E000
061800
0C0C00
080400
180600
100200
180600
080400
0C0C00
061800
01E000
000000
000000
000000
ENDCHAR
STARTCHAR Oacute
ENCODING 211
SWIDTH 1080 0
DWIDTH 18 0
BBX 18 18 0 -3
BITMAP
002000
004000
008000
000000
01E000
061800
0C0C00
080400
180600
100200
180600
080400
0C0C00
061800
01E000
000000
000000
000000
ENDCHAR
STARTCHAR Ocircumflex
ENCODING 212
SWIDTH 1080 0
DWIDTH 18 0
BBX 18 18 0 -3
BITMAP
00C000
012000
021000
000000
01E000
061800
0C0C00
080400
180600
100200
180600
080400
0C0C00
061800
01E000
000000
000000
000000
ENDCHAR
STARTCHAR Otilde
ENCODING 213
SWIDTH 1080 0
DWIDTH 18 0
BBX 18 18 0 -3
BITMAP
000000
019000
026000
000000
01E000
061800
0C0C00
080400
180600
100200
180600
080400
0C0C00
061800
01E000
000000
000000
000000
ENDCHAR
STARTCHAR Odieresis
ENCODING 214
SWIDTH 1080 0
DWIDTH 18 0
BBX 18 18 0 -3
BITMAP
000000
033000
033000
000000
01E000
061800
0C0C00
080400
180600
100200
180600
080400
0C0C00
061800
01E000
000000
000000
000000
ENDCHAR
STARTCHAR multiply
ENCODING 215
SWIDTH 1080 0
DWIDTH 18 0
BBX 18 18 0 -3
BITMAP
000000
000000
000000
000000
080400
040800
021000
012000
00C000
00C000
012000
021000
040800
080400
000000
000000
000000
000000
ENDCHAR
STARTCHAR Oslash
ENCODING 216
SWIDTH 1080 0
DWIDTH 18 0
BBX 18 18 0 -3
BITMAP
000000
000000
01E000
061A00
0C0C00
080C00
181600
102200
104200
108200
190600
0A0400
0C0C00
0E1800
11E000
000000
000000
000000
ENDCHAR
STARTCHAR Ugrave
ENCODING 217
SWIDTH 1080 0
DWIDTH 18 0
BBX 18 18 0 -3
BITMAP
010000
008000
004000
000000
3E1F00
080400
080400
080400
080400
080400
080400
080400
0C0C00
061800
01E000
000000
000000
000000
ENDCHAR
STARTCHAR Uacute
ENCODING 218
SWIDTH 1080 0
DWIDTH 18 0
BBX 18 18 0 -3
BITMAP
002000
004000
008000
000000
3E1F00
080400
080400
080400
080400
080400
080400
080400
0C0C00
061800
01E000
000000
000000
000000
ENDCHAR
STARTCHAR Ucircumflex
ENCODING 219
SWIDTH 1080 0
DWIDTH 18 0
BBX 18 18 0 -3
BITMAP
00C000
012000
021000
000000
3E1F00
080400
080400
080400
080400
080400
080400
080400
0C0C00
061800
01E000
000000
000000
000000
ENDCHAR
STARTCHAR Udieresis
ENCODING 220
SWIDTH 1080 0
DWIDTH 18 0
BBX 18 18 0 -3
BITMAP
000000
061800
061800
000000
3E1F00
080400
080400
080400
080400
080400
080400
080400
0C0C00
061800
01E000
000000
000000
000000
ENDCHAR
STARTCHAR Yacute
ENCODING 221
SWIDTH 1080 0
DWIDTH 18 0
BBX 18 18 0 -3
BITMAP
002000
004000
008000
000000
3E3E00
080800
0C1800
063000
036000
01C000
008000
008000
008000
008000
03E000
000000
000000
000000
ENDCHAR
STARTCHAR Thorn
ENCODING 222
SWIDTH 1080 0
DWIDTH 18 0
BBX 18 18 0 -3
BITMAP
000000
000000
0E0000
020000
020000
02F000
030800
020400
020400
020400
030800
02F000
020000
020000
0F8000
000000
000000
000000
ENDCHAR
STARTCHAR germandbls
ENCODING 223
SWIDTH 1080 0
DWIDTH 18 0
BBX 18 18 0 -3
BITMAP
000000
000000
01C000
022000
041000
041000
041000
042000
046000
041000
040800
040800
040800
041000
046000
000000
000000
000000
ENDCHAR
STARTCHAR agrave
ENCODING 224
SWIDTH 1080 0
DWIDTH 18 0
BBX 18 18 0 -3
BITMAP
000000
000000
000000
020000
010000
008000
000000
03E000
001000
001000
03F000
041000
041000
043000
03CC00
000000
000000
000000
ENDCHAR
STARTCHAR aacute
ENCODING 225
SWIDTH 1080 0
DWIDTH 18 0
BBX 18 18 0 -3
BITMAP
000000
000000
000000
002000
004000
008000
000000
03E000
001000
001000
03F000
041000
041000
043000
03CC00
000000
000000
000000
ENDCHAR
STARTCHAR acircumflex
ENCODING 226
SWIDTH 1080 0
DWIDTH 18 0
BBX 18 18 0 -3
BITMAP
000000
000000
000000
00C000
012000
021000
000000
03E000
001000
001000
03F000
041000
041000
043000
03CC00
000000
000000
000000
ENDCHAR
STARTCHAR atilde
ENCODING 227
SWIDTH 1080 0
DWIDTH 18 0
BBX 18 18 0 -3
BITMAP
000000
000000
000000
000000
019000
026000
000000
03E000
001000
001000
03F000
041000
041000
043000
03CC00
000000
000000
000000
ENDCHAR
STARTCHAR adieresis
ENCODING 228
SWIDTH 1080 0
DWIDTH 18 0
BBX 18 18 0 -3
BITMAP
000000
000000
000000
033000
033000
000000
000000
03E000
001000
001000
03F000
041000
041000
043000
03CC00
000000
000000
000000
ENDCHAR
STARTCHAR aring
ENCODING 229
SWIDTH 1080 0
DWIDTH 18 0
BBX 18 18 0 -3
BITMAP
000000
000000
000000
00C000
012000
00C000
000000
03E000
001000
001000
03F000
041000
041000
043000
03CC00
000000
000000
000000
ENDCHAR
STARTCHAR ae
ENCODING 230
SWIDTH 1080 0
DWIDTH 18 0
BBX 18 18 0 -3
BITMAP
000000
000000
000000
000000
000000
000000
000000
1F3C00
00C200
008100
1FFF00
208000
208000
21C100
1E3E00
000000
000000
000000
ENDCHAR
STARTCHAR ccedilla
ENCODING 231
SWIDTH 1080 0
DWIDTH 18 0
BBX 18 18 0 -3
BITMAP
000000
000000
000000
000000
000000
000000
000000
01F000
020800
040000
040000
040000
040000
020800
01F000
004000
012000
00C000
ENDCHAR
STARTCHAR egrave
ENCODING 232
SWIDTH 1080 0
DWIDTH 18 0
BBX 18 18 0 -3
BITMAP
000000
000000
000000
010000
008000
004000
000000
01E000
021000
040800
07F800
040000
040000
020800
01F000
000000
000000
000000
ENDCHAR
STARTCHAR eacute
ENCODING 233
SWIDTH 1080 0
DWIDTH 18 0
BBX 18 18 0 -3
BITMAP
000000
000000
000000
002000
004000
008000
000000
01E000
021000
040800
07F800
040000
040000
020800
01F000
000000
000000
000000
ENDCHAR
STARTCHAR ecircumflex
ENCODING 234
SWIDTH 1080 0
DWIDTH 18 0
BBX 18 18 0 -3
BITMAP
000000
000000
000000
00C000
012000
021000
000000
01E000
021000
040800
07F800
040000
040000
020800
01F000
000000
000000
000000
ENDCHAR
STARTCHAR edieresis
ENCODING 235
SWIDTH 1080 0
DWIDTH 18 0
BBX 18 18 0 -3
BITMAP
000000
000000
000000
000000
033000
033000
000000
01E000
021000
040800
07F800
040000
040000
020800
01F000
000000
000000
000000
ENDCHAR
STARTCHAR igrave
ENCODING 236
SWIDTH 1080 0
DWIDTH 18 0
BBX 18 18 0 -3
BITMAP
000000
000000
000000
020000
010000
008000
000000
01C000
004000
004000
004000
004000
004000
004000
01F000
000000
000000
000000
ENDCHAR
STARTCHAR iacute
ENCODING 237
SWIDTH 1080 0
DWIDTH 18 0
BBX 18 18 0 -3
BITMAP
000000
000000
000000
002000
004000
008000
000000
01C000
004000
004000
004000
004000
004000
004000
01F000
000000
000000
000000
ENDCHAR
STARTCHAR icircumflex
ENCODING 238
SWIDTH 1080 0
DWIDTH 18 0
BBX 18 18 0 -3
BITMAP
000000
000000
000000
00C000
012000
021000
000000
01C000
004000
004000
004000
004000
004000
004000
01F000
000000
000000
000000
ENDCHAR
STARTCHAR idieresis
ENCODING 239
SWIDTH 1080 0
DWIDTH 18 0
BBX 18 18 0 -3
BITMAP
000000
000000
000000
033000
033000
000000
000000
01C000
004000
004000
004000
004000
004000
004000
01F000
000000
000000
000000
ENDCHAR
STARTCHAR eth
ENCODING 240
SWIDTH 1080 0
DWIDTH 18 0
BBX 18 18 0 -3
BITMAP
000000
000000
012000
00C000
014000
022000
002000
03D000
043000
081000
081000
081000
081000
042000
03C000
000000
000000
000000
ENDCHAR
STARTCHAR ntilde
ENCODING 241
SWIDTH 1080 0
DWIDTH 18 0
BBX 18 18 0 -3
BITMAP
000000
000000
000000
000000
019000
026000
000000
0EF000
031800
020800
020800
020800
020800
020800
0F1E00
000000
000000
000000
ENDCHAR
STARTCHAR ograve
ENCODING 242
SWIDTH 1080 0
DWIDTH 18 0
BBX 18 18 0 -3
BITMAP
000000
000000
000000
010000
008000
004000
000000
01E000
021000
040800
040800
040800
040800
021000
01E000
000000
000000
000000
ENDCHAR
STARTCHAR oacute
ENCODING 243
SWIDTH 1080 0
DWIDTH 18 0
BBX 18 18 0 -3
BITMAP
000000
000000
000000
002000
004000
008000
000000
01E000
021000
040800
040800
040800
040800
021000
01E000
000000
000000
000000
ENDCHAR
STARTCHAR ocircumflex
ENCODING 244
SWIDTH 1080 0
DWIDTH 18 0
BBX 18 18 0 -3
BITMAP
000000
000000
000000
00C000
012000
021000
000000
01E000
021000
040800
040800
040800
040800
021000
01E000
000000
000000
000000
ENDCHAR
STARTCHAR otilde
ENCODING 245
SWIDTH 1080 0
DWIDTH 18 0
BBX 18 18 0 -3
BITMAP
000000
000000
000000
000000
019000
026000
000000
01E000
021000
040800
040800
040800
040800
021000
01E000
000000
000000
000000
ENDCHAR
STARTCHAR odieresis
ENCODING 246
SWIDTH 1080 0
DWIDTH 18 0
BBX 18 18 0 -3
BITMAP
000000
000000
000000
000000
033000
033000
000000
01E000
021000
040800
040800
040800
040800
021000
01E000
000000
000000
000000
ENDCHAR
STARTCHAR divide
ENCODING 247
SWIDTH 1080 0
DWIDTH 18 0
BBX 18 18 0 -3
BITMAP
000000
000000
000000
000000
00C000
00C000
000000
000000
1FFE00
000000
000000
00C000
00C000
000000
000000
000000
000000
000000
ENDCHAR
STARTCHAR oslash
ENCODING 248
SWIDTH 1080 0
DWIDTH 18 0
BBX 18 18 0 -3
BITMAP
000000
000000
000000
000000
000000
000000
000000
01E800
021000
042800
044800
048800
050800
021000
05E000
000000
000000
000000
ENDCHAR
STARTCHAR ugrave
ENCODING 249
SWIDTH 1080 0
DWIDTH 18 0
BBX 18 18 0 -3
BITMAP
000000
000000
000000
010000
008000
004000
000000
0E3800
020800
020800
020800
020800
020800
031800
01EE00
000000
000000
000000
ENDCHAR
STARTCHAR uacute
ENCODING 250
SWIDTH 1080 0
DWIDTH 18 0
BBX 18 18 0 -3
BITMAP
000000
000000
000000
001000
002000
004000
000000
0E3800
020800
020800
020800
020800
020800
031800
01EE00
000000
000000
000000
ENDCHAR
STARTCHAR ucircumflex
ENCODING 251
SWIDTH 1080 0
DWIDTH 18 0
BBX 18 18 0 -3
BITMAP
000000
000000
000000
00C000
012000
021000
000000
0E3800
020800
020800
020800
020800
020800
031800
01EE00
000000
000000
000000
ENDCHAR
STARTCHAR udieresis
ENCODING 252
SWIDTH 1080 0
DWIDTH 18 0
BBX 18 18 0 -3
BITMAP
000000
000000
000000
000000
033000
033000
000000
0E3800
020800
020800
020800
020800
020800
031800
01EE00
000000
000000
000000
ENDCHAR
STARTCHAR yacute
ENCODING 253
SWIDTH 1080 0
DWIDTH 18 0
BBX 18 18 0 -3
BITMAP
000000
000000
000000
001000
002000
004000
000000
0F1E00
020800
031800
011000
01B000
00A000
006000
00C000
098000
0F0000
000000
ENDCHAR
STARTCHAR thorn
ENCODING 254
SWIDTH 1080 0
DWIDTH 18 0
BBX 18 18 0 -3
BITMAP
000000
000000
000000
0E0000
020000
020000
02F000
030800
020400
020400
020400
030800
02F000
020000
020000
020000
0F8000
000000
ENDCHAR
STARTCHAR ydieresis
ENCODING 255
SWIDTH 1080 0
DWIDTH 18 0
BBX 18 18 0 -3
BITMAP
000000
000000
000000
000000
031800
031800
000000
0F1E00
020800
031800
011000
01B000
00A000
006000
00C000
098000
0F0000
000000
ENDCHAR
STARTCHAR ring
ENCODING 730
SWIDTH 1080 0
DWIDTH 18 0
BBX 18 18 0 -3
BITMAP
000000
00C000
012000
00C000
000000
000000
000000
000000
000000
000000
000000
000000
000000
000000
000000
000000
000000
000000
ENDCHAR
STARTCHAR tilde
ENCODING 732
SWIDTH 1080 0
DWIDTH 18 0
BBX 18 18 0 -3
BITMAP
000000
039000
04E000
000000
000000
000000
000000
000000
000000
000000
000000
000000
000000
000000
000000
000000
000000
000000
ENDCHAR
STARTCHAR gravecomb
ENCODING 768
SWIDTH 1080 0
DWIDTH 18 0
BBX 18 18 0 -3
BITMAP
000000
018000
006000
000000
000000
000000
000000
000000
000000
000000
000000
000000
000000
000000
000000
000000
000000
000000
ENDCHAR
STARTCHAR acutecomb
ENCODING 769
SWIDTH 1080 0
DWIDTH 18 0
BBX 18 18 0 -3
BITMAP
000000
006000
018000
000000
000000
000000
000000
000000
000000
000000
000000
000000
000000
000000
000000
000000
000000
000000
ENDCHAR
STARTCHAR uni0302
ENCODING 770
SWIDTH 1080 0
DWIDTH 18 0
BBX 18 18 0 -3
BITMAP
000000
00C000
033000
000000
000000
000000
000000
000000
000000
000000
000000
000000
000000
000000
000000
000000
000000
000000
ENDCHAR
STARTCHAR tildecomb
ENCODING 771
SWIDTH 1080 0
DWIDTH 18 0
BBX 18 18 0 -3
BITMAP
000000
039000
04E000
000000
000000
000000
000000
000000
000000
000000
000000
000000
000000
000000
000000
000000
000000
000000
ENDCHAR
STARTCHAR uni0307
ENCODING 775
SWIDTH 1080 0
DWIDTH 18 0
BBX 18 18 0 -3
BITMAP
000000
00C000
00C000
000000
000000
000000
000000
000000
000000
000000
000000
000000
000000
000000
000000
000000
000000
000000
ENDCHAR
STARTCHAR uni0308
ENCODING 776
SWIDTH 1080 0
DWIDTH 18 0
BBX 18 18 0 -3
BITMAP
000000
033000
033000
000000
000000
000000
000000
000000
000000
000000
000000
000000
000000
000000
000000
000000
000000
000000
ENDCHAR
STARTCHAR uni030A
ENCODING 778
SWIDTH 1080 0
DWIDTH 18 0
BBX 18 18 0 -3
BITMAP
000000
00C000
012000
00C000
000000
000000
000000
000000
000000
000000
000000
000000
000000
000000
000000
000000
000000
000000
ENDCHAR
STARTCHAR Alpha
ENCODING 913
SWIDTH 1080 0
DWIDTH 18 0
BBX 18 18 0 -3
BITMAP
000000
000000
008000
008000
01C000
014000
036000
022000
063000
041000
0FF800
080800
180C00
100400
7C1F00
000000
000000
000000
ENDCHAR
STARTCHAR Beta
ENCODING 914
SWIDTH 1080 0
DWIDTH 18 0
BBX 18 18 0 -3
BITMAP
000000
000000
1FF000
040800
040400
040400
040400
040800
07F000
040C00
040200
040200
040200
040400
1FF800
000000
000000
000000
ENDCHAR
STARTCHAR Gamma
ENCODING 915
SWIDTH 1080 0
DWIDTH 18 0
BBX 18 18 0 -3
BITMAP
000000
000000
0FFE00
020200
020200
020000
020000
020000
020000
020000
020000
020000
020000
020000
0F8000
000000
000000
000000
ENDCHAR
STARTCHAR Delta
ENCODING 916
SWIDTH 1080 0
DWIDTH 18 0
BBX 18 18 0 -3
BITMAP
000000
000000
008000
01C000
014000
036000
022000
063000
041000
041000
0C1800
080800
180C00
100400
3FFE00
000000
000000
000000
ENDCHAR
STARTCHAR Epsilon
ENCODING 917
SWIDTH 1080 0
DWIDTH 18 0
BBX 18 18 0 -3
BITMAP
000000
000000
1FFC00
040400
040400
040000
042000
042000
07E000
042000
042000
040000
040400
040400
1FFC00
000000
000000
000000
ENDCHAR
STARTCHAR Zeta
ENCODING 918
SWIDTH 1080 0
DWIDTH 18 0
BBX 18 18 0 -3
BITMAP
000000
000000
0FFC00
081800
083000
002000
006000
00C000
008000
018000
030000
020000
060400
0C0400
1FFC00
000000
000000
000000
ENDCHAR
STARTCHAR Eta
ENCODING 919
SWIDTH 1080 0
DWIDTH 18 0
BBX 18 18 0 -3
BITMAP
000000
000000
3E1F00
080400
080400
080400
080400
080400
0FFC00
080400
080400
080400
080400
080400
3E1F00
000000
000000
000000
ENDCHAR
STARTCHAR Theta
ENCODING 920
SWIDTH 1080 0
DWIDTH 18 0
BBX 18 18 0 -3
BITMAP
000000
000000
01E000
061800
0C0C00
080400
180600
121200
13F200
121200
180600
080400
0C0C00
061800
01E000
000000
000000
000000
ENDCHAR
STARTCHAR Iota
ENCODING 921
SWIDTH 1080 0
DWIDTH 18 0
BBX 18 18 0 -3
BITMAP
000000
000000
03E000
008000
008000
008000
008000
008000
008000
008000
008000
008000
008000
008000
03E000
000000
000000
000000
ENDCHAR
STARTCHAR Kappa
ENCODING 922
SWIDTH 1080 0
DWIDTH 18 0
BBX 18 18 0 -3
BITMAP
000000
000000
1F3E00
041800
043000
046000
04C000
058000
078000
04C000
046000
043000
041800
040C00
1F1F00
000000
000000
000000
ENDCHAR
STARTCHAR Lambda
ENCODING 923
SWIDTH 1080 0
DWIDTH 18 0
BBX 18 18 0 -3
BITMAP
000000
000000
008000
01C000
014000
036000
022000
063000
041000
041000
0C1800
080800
180C00
100400
7C1F00
000000
000000
000000
ENDCHAR
STARTCHAR Mu
ENCODING 924
SWIDTH 1080 0
DWIDTH 18 0
BBX 18 18 0 -3
BITMAP
000000
000000
780F00
180C00
1C1C00
141400
141400
163400
122400
122400
136400
114400
11C400
108400
788F00
000000
000000
000000
ENDCHAR
STARTCHAR Nu
ENCODING 925
SWIDTH 1080 0
DWIDTH 18 0
BBX 18 18 0 -3
BITMAP
000000
000000
3C1F00
0E0400
0A0400
0B0400
098400
088400
08C400
086400
082400
083400
081C00
080C00
3C0400
000000
000000
000000
ENDCHAR
STARTCHAR Xi
ENCODING 926
SWIDTH 1080 0
DWIDTH 18 0
BBX 18 18 0 -3
BITMAP
000000
000000
1FFE00
100200
000000
000000
000000
080400
0FFC00
080400
000000
000000
000000
100200
1FFE00
000000
000000
000000
ENDCHAR
STARTCHAR Omicron
ENCODING 927
SWIDTH 1080 0
DWIDTH 18 0
BBX 18 18 0 -3
BITMAP
000000
000000
01E000
061800
0C0C00
080400
180600
100200
100200
100200
180600
080400
0C0C00
061800
01E000
000000
000000
000000
ENDCHAR
STARTCHAR Pi
ENCODING 928
SWIDTH 1080 0
DWIDTH 18 0
BBX 18 18 0 -3
BITMAP
000000
000000
1FFE00
040800
040800
040800
040800
040800
040800
040800
040800
040800
040800
040800
1F3E00
000000
000000
000000
ENDCHAR
STARTCHAR Rho
ENCODING 929
SWIDTH 1080 0
DWIDTH 18 0
BBX 18 18 0 -3
BITMAP
000000
000000
0FF800
020400
020200
020200
020200
020400
03F800
020000
020000
020000
020000
020000
0F8000
000000
000000
000000
ENDCHAR
STARTCHAR Sigma
ENCODING 931
SWIDTH 1080 0
DWIDTH 18 0
BBX 18 18 0 -3
BITMAP
000000
000000
1FFC00
0C0400
060400
030000
018000
00C000
006000
00C000
018000
030000
060400
0C0400
1FFC00
000000
000000
000000
ENDCHAR
STARTCHAR Tau
ENCODING 932
SWIDTH 1080 0
DWIDTH 18 0
BBX 18 18 0 -3
BITMAP
000000
000000
3FFE00
208200
208200
008000
008000
008000
008000
008000
008000
008000
008000
008000
03E000
000000
000000
000000
ENDCHAR
STARTCHAR Upsilon
ENCODING 933
SWIDTH 1080 0
DWIDTH 18 0
BBX 18 18 0 -3
BITMAP
000000
000000
0F7800
19CC00
308600
008000
008000
008000
008000
008000
008000
008000
008000
008000
03E000
000000
000000
000000
ENDCHAR
STARTCHAR Phi
ENCODING 934
SWIDTH 1080 0
DWIDTH 18 0
BBX 18 18 0 -3
BITMAP
000000
000000
03E000
008000
07F000
188C00
308600
208200
208200
208200
308600
188C00
07F000
008000
03E000
000000
000000
000000
ENDCHAR
STARTCHAR Chi
ENCODING 935
SWIDTH 1080 0
DWIDTH 18 0
BBX 18 18 0 -3
BITMAP
000000
000000
3E3E00
080800
0C1800
063000
036000
01C000
008000
01C000
036000
063000
0C1800
080800
3C3E00
000000
000000
000000
ENDCHAR
STARTCHAR Psi
ENCODING 936
SWIDTH 1080 0
DWIDTH 18 0
BBX 18 18 0 -3
BITMAP
000000
000000
03E000
308600
488900
088800
088800
088800
088800
0C9800
049000
03E000
008000
008000
03E000
000000
000000
000000
ENDCHAR
STARTCHAR Omega
ENCODING 937
SWIDTH 1080 0
DWIDTH 18 0
BBX 18 18 0 -3
BITMAP
000000
000000
01E000
061800
0C0C00
080400
100200
100200
100200
080400
0C0C00
061800
112200
112200
1F3E00
000000
000000
000000
ENDCHAR
STARTCHAR alpha
ENCODING 945
SWIDTH 1080 0
DWIDTH 18 0
BBX 18 18 0 -3
BITMAP
000000
000000
000000
000000
000000
000000
000000
01C400
022400
042800
043000
082000
086000
08A400
071800
000000
000000
000000
ENDCHAR
STARTCHAR beta
ENCODING 946
SWIDTH 1080 0
DWIDTH 18 0
BBX 18 18 0 -3
BITMAP
000000
000000
007800
00C400
018400
010400
030400
020800
027000
061800
040800
040800
040800
0D1800
08F000
080000
180000
000000
ENDCHAR
STARTCHAR gamma
ENCODING 947
SWIDTH 1080 0
DWIDTH 18 0
BBX 18 18 0 -3
BITMAP
000000
000000
000000
000000
000000
000000
000000
070C00
0C9800
18B000
00E000
00C000
008000
018000
010000
030000
020000
000000
ENDCHAR
STARTCHAR delta
ENCODING 948
SWIDTH 1080 0
DWIDTH 18 0
BBX 18 18 0 -3
BITMAP
000000
000000
01E000
023800
010C00
008400
004000
01A000
021000
041000
081000
083000
082000
044000
038000
000000
000000
000000
ENDCHAR
STARTCHAR epsilon
ENCODING 949
SWIDTH 1080 0
DWIDTH 18 0
BBX 18 18 0 -3
BITMAP
000000
000000
000000
000000
000000
000000
000000
01F000
020800
020000
01E000
020000
040000
041000
03E000
000000
000000
000000
ENDCHAR
STARTCHAR zeta
ENCODING 950
SWIDTH 1080 0
DWIDTH 18 0
BBX 18 18 0 -3
BITMAP
000000
010000
020C00
021800
01F000
006000
00C000
018000
030000
060000
040000
060000
038000
00C000
002000
002000
01C000
000000
ENDCHAR
STARTCHAR eta
ENCODING 951
SWIDTH 1080 0
DWIDTH 18 0
BBX 18 18 0 -3
BITMAP
000000
000000
000000
000000
000000
000000
000000
077800
098C00
010400
030400
020C00
020800
060800
041800
001000
003000
000000
ENDCHAR
STARTCHAR theta
ENCODING 952
SWIDTH 1080 0
DWIDTH 18 0
BBX 18 18 0 -3
BITMAP
000000
000000
007000
018800
030400
060400
040400
0FFC00
080400
080C00
080800
081800
083000
046000
038000
000000
000000
000000
ENDCHAR
STARTCHAR iota
ENCODING 953
SWIDTH 1080 0
DWIDTH 18 0
BBX 18 18 0 -3
BITMAP
000000
000000
000000
000000
000000
000000
000000
010000
010000
030000
020000
060000
040800
047000
03C000
000000
000000
000000
ENDCHAR
STARTCHAR kappa
ENCODING 954
SWIDTH 1080 0
DWIDTH 18 0
BBX 18 18 0 -3
BITMAP
000000
000000
000000
000000
000000
000000
000000
021C00
022400
02C000
070000
048000
0C8000
088800
187000
000000
000000
000000
ENDCHAR
STARTCHAR lambda
ENCODING 955
SWIDTH 1080 0
DWIDTH 18 0
BBX 18 18 0 -3
BITMAP
000000
000000
00C000
006000
002000
002000
002000
002000
006000
00A000
012000
033000
021000
061800
0C0C00
000000
000000
000000
ENDCHAR
STARTCHAR mu
ENCODING 956
SWIDTH 1080 0
DWIDTH 18 0
BBX 18 18 0 -3
BITMAP
000000
000000
000000
000000
000000
000000
000000
021000
021000
063000
042000
042000
042000
0E6400
0B9800
080000
180000
000000
ENDCHAR
STARTCHAR nu
ENCODING 957
SWIDTH 1080 0
DWIDTH 18 0
BBX 18 18 0 -3
BITMAP
000000
000000
000000
000000
000000
000000
000000
0C0400
020400
020800
021800
063000
046000
05C000
0F0000
000000
000000
000000
ENDCHAR
STARTCHAR xi
ENCODING 958
SWIDTH 1080 0
DWIDTH 18 0
BBX 18 18 0 -3
BITMAP
000000
000000
007800
008000
004000
01F800
020000
020000
010000
07F800
080000
080000
070000
00E000
001000
001000
07E000
000000
ENDCHAR
STARTCHAR omicron
ENCODING 959
SWIDTH 1080 0
DWIDTH 18 0
BBX 18 18 0 -3
BITMAP
000000
000000
000000
000000
000000
000000
000000
00E000
031000
060800
040800
040800
041800
023000
01C000
000000
000000
000000
ENDCHAR
STARTCHAR pi
ENCODING 960
SWIDTH 1080 0
DWIDTH 18 0
BBX 18 18 0 -3
BITMAP
000000
000000
000000
000000
000000
000000
000400
07F800
092000
012000
012000
024000
024000
064800
0C3000
000000
000000
000000
ENDCHAR
STARTCHAR rho
ENCODING 961
SWIDTH 1080 0
DWIDTH 18 0
BBX 18 18 0 -3
BITMAP
000000
000000
000000
000000
000000
000000
000000
00E000
011000
020800
020800
060800
040800
051000
0CE000
080000
080000
000000
ENDCHAR
STARTCHAR sigma
ENCODING 963
SWIDTH 1080 0
DWIDTH 18 0
BBX 18 18 0 -3
BITMAP
000000
000000
000000
000000
000000
000000
000400
00FC00
031000
060800
040800
040800
041800
023000
01C000
000000
000000
000000
ENDCHAR
STARTCHAR tau
ENCODING 964
SWIDTH 1080 0
DWIDTH 18 0
BBX 18 18 0 -3
BITMAP
000000
000000
000000
000000
000000
000000
000400
07F800
088000
018000
010000
030000
021000
022000
01C000
000000
000000
000000
ENDCHAR
STARTCHAR upsilon
ENCODING 965
SWIDTH 1080 0
DWIDTH 18 0
BBX 18 18 0 -3
BITMAP
000000
000000
000000
000000
000000
000000
000000
021800
020800
020800
061800
041000
043000
046000
038000
000000
000000
000000
ENDCHAR
STARTCHAR phi
ENCODING 966
SWIDTH 1080 0
DWIDTH 18 0
BBX 18 18 0 -3
BITMAP
000000
000000
001000
001000
003000
002000
002000
01F000
064800
084400
08C400
088400
049800
03E000
010000
010000
030000
000000
ENDCHAR
STARTCHAR chi
ENCODING 967
SWIDTH 1080 0
DWIDTH 18 0
BBX 18 18 0 -3
BITMAP
000000
000000
000000
000000
000000
000000
000000
030C00
049800
00B000
00E000
00C000
018000
038000
068000
0C4800
183000
000000
ENDCHAR
STARTCHAR psi
ENCODING 968
SWIDTH 1080 0
DWIDTH 18 0
BBX 18 18 0 -3
BITMAP
000000
000000
001000
001000
003000
002000
002000
066400
0A4400
024400
06CC00
048800
049000
03E000
010000
010000
030000
000000
ENDCHAR
STARTCHAR omega
ENCODING 969
SWIDTH 1080 0
DWIDTH 18 0
BBX 18 18 0 -3
BITMAP
000000
000000
000000
000000
000000
000000
000000
020400
044200
084200
08C200
108200
108200
11C400
0E7800
000000
000000
000000
ENDCHAR
STARTCHAR afii10023
ENCODING 1025
SWIDTH 1080 0
DWIDTH 18 0
BBX 18 18 0 -3
BITMAP
000000
061800
061800
000000
1FFC00
040400
040400
042000
042000
07E000
042000
042000
040400
040400
1FFC00
000000
000000
000000
ENDCHAR
STARTCHAR afii10017
ENCODING 1040
SWIDTH 1080 0
DWIDTH 18 0
BBX 18 18 0 -3
BITMAP
000000
000000
008000
038000
01C000
014000
036000
022000
063000
041000
0FF800
080800
180C00
100400
7C1F00
000000
000000
000000
ENDCHAR
STARTCHAR afii10018
ENCODING 1041
SWIDTH 1080 0
DWIDTH 18 0
BBX 18 18 0 -3
BITMAP
000000
000000
1FFC00
040400
040400
040000
040000
040000
07F800
040400
040200
040200
040200
040400
1FF800
000000
000000
000000
ENDCHAR
STARTCHAR afii10019
ENCODING 1042
SWIDTH 1080 0
DWIDTH 18 0
BBX 18 18 0 -3
BITMAP
000000
000000
1FF000
040800
040400
040400
040400
040800
07F000
040C00
040200
040200
040200
040400
1FF800
000000
000000
000000
ENDCHAR
STARTCHAR afii10020
ENCODING 1043
SWIDTH 1080 0
DWIDTH 18 0
BBX 18 18 0 -3
BITMAP
000000
000000
0FFC00
020400
020200
020000
020000
020000
020000
020000
020000
020000
020000
020000
0F8000
000000
000000
000000
ENDCHAR
STARTCHAR afii10021
ENCODING 1044
SWIDTH 1080 0
DWIDTH 18 0
BBX 18 18 0 -3
BITMAP
000000
000000
07FE00
010800
010800
010800
010800
010800
010800
010800
010800
020800
020800
040800
1FFE00
100200
100200
000000
ENDCHAR
STARTCHAR afii10022
ENCODING 1045
SWIDTH 1080 0
DWIDTH 18 0
BBX 18 18 0 -3
BITMAP
000000
000000
1FFC00
040400
040200
042000
042000
07E000
042000
042000
040000
040000
040200
040400
1FFC00
000000
000000
000000
ENDCHAR
STARTCHAR afii10024
ENCODING 1046
SWIDTH 1080 0
DWIDTH 18 0
BBX 18 18 0 -3
BITMAP
000000
000000
33E600
488900
088800
088800
088800
049000
0FF800
088800
188C00
108400
308600
208200
73E700
000000
000000
000000
ENDCHAR
STARTCHAR afii10025
ENCODING 1047
SWIDTH 1080 0
DWIDTH 18 0
BBX 18 18 0 -3
BITMAP
000000
000000
03E000
0E1800
080C00
000400
000400
000800
01F000
000800
000400
000400
080C00
0E1800
03E000
000000
000000
000000
ENDCHAR
STARTCHAR afii10026
ENCODING 1048
SWIDTH 1080 0
DWIDTH 18 0
BBX 18 18 0 -3
BITMAP
000000
000000
3E1F00
080400
080C00
081C00
083400
086400
08C400
098400
0B0400
0E0400
0C0400
080400
3E1F00
000000
000000
000000
ENDCHAR
STARTCHAR afii10027
ENCODING 1049
SWIDTH 1080 0
DWIDTH 18 0
BBX 18 18 0 -3
BITMAP
000000
033000
021000
01E000
3E1F00
080400
081C00
083400
086400
08C400
098400
0B0400
0E0400
080400
3E1F00
000000
000000
000000
ENDCHAR
STARTCHAR afii10028
ENCODING 1050
SWIDTH 1080 0
DWIDTH 18 0
BBX 18 18 0 -3
BITMAP
000000
000000
1F1E00
043200
042000
046000
044000
04C000
078000
04C000
046000
043000
041800
040C00
1F1F00
000000
000000
000000
ENDCHAR
STARTCHAR afii10029
ENCODING 1051
SWIDTH 1080 0
DWIDTH 18 0
BBX 18 18 0 -3
BITMAP
000000
000000
07FE00
010800
010800
010800
010800
010800
010800
010800
030800
020800
060800
2C0800
383E00
000000
000000
000000
ENDCHAR
STARTCHAR afii10030
ENCODING 1052
SWIDTH 1080 0
DWIDTH 18 0
BBX 18 18 0 -3
BITMAP
000000
000000
3C1E00
0C1800
0E3800
0A2800
0A2800
0B6800
094800
194C00
11C400
108400
108400
100400
7C1F00
000000
000000
000000
ENDCHAR
STARTCHAR afii10031
ENCODING 1053
SWIDTH 1080 0
DWIDTH 18 0
BBX 18 18 0 -3
BITMAP
000000
000000
3E1F00
080400
080400
080400
080400
0FFC00
080400
080400
080400
080400
080400
080400
3E1F00
000000
000000
000000
ENDCHAR
STARTCHAR afii10032
ENCODING 1054
SWIDTH 1080 0
DWIDTH 18 0
BBX 18 18 0 -3
BITMAP
000000
000000
01E000
061800
0C0C00
080400
180600
100200
100200
100200
180600
080400
0C0C00
061800
01E000
000000
000000
000000
ENDCHAR
STARTCHAR afii10033
ENCODING 1055
SWIDTH 1080 0
DWIDTH 18 0
BBX 18 18 0 -3
BITMAP
000000
000000
3FFF00
080400
080400
080400
080400
080400
080400
080400
080400
080400
080400
080400
3E1F00
000000
000000
000000
ENDCHAR
STARTCHAR afii10034
ENCODING 1056
SWIDTH 1080 0
DWIDTH 18 0
BBX 18 18 0 -3
BITMAP
000000
000000
0FF800
020400
020200
020200
020200
020400
03F800
020000
020000
020000
020000
020000
0F8000
000000
000000
000000
ENDCHAR
STARTCHAR afii10035
ENCODING 1057
SWIDTH 1080 0
DWIDTH 18 0
BBX 18 18 0 -3
BITMAP
000000
000000
01F000
061C00
0C0400
080400
180000
100000
100000
100000
180000
080400
0C0400
061C00
01F000
000000
000000
000000
ENDCHAR
STARTCHAR afii10036
ENCODING 1058
SWIDTH 1080 0
DWIDTH 18 0
BBX 18 18 0 -3
BITMAP
000000
000000
3FFE00
208200
208200
008000
008000
008000
008000
008000
008000
008000
008000
008000
03E000
000000
000000
000000
ENDCHAR
STARTCHAR afii10037
ENCODING 1059
SWIDTH 1080 0
DWIDTH 18 0
BBX 18 18 0 -3
BITMAP
000000
000000
1F1F00
040400
060C00
020800
031800
011000
01B000
00A000
00E000
004000
00C000
098000
0F0000
000000
000000
000000
ENDCHAR
STARTCHAR afii10038
ENCODING 1060
SWIDTH 1080 0
DWIDTH 18 0
BBX 18 18 0 -3
BITMAP
000000
000000
03E000
008000
07F000
188C00
308600
208200
208200
208200
308600
188C00
07F000
008000
03E000
000000
000000
000000
ENDCHAR
STARTCHAR afii10039
ENCODING 1061
SWIDTH 1080 0
DWIDTH 18 0
BBX 18 18 0 -3
BITMAP
000000
000000
3E3E00
080800
0C1800
063000
036000
01C000
008000
01C000
036000
063000
0C1800
080800
3C3E00
000000
000000
000000
ENDCHAR
STARTCHAR afii10040
ENCODING 1062
SWIDTH 1080 0
DWIDTH 18 0
BBX 18 18 0 -3
BITMAP
000000
000000
3E3E00
080800
080800
080800
080800
080800
080800
080800
080800
080800
080800
080800
3FFF00
000100
000100
000000
ENDCHAR
STARTCHAR afii10041
ENCODING 1063
SWIDTH 1080 0
DWIDTH 18 0
BBX 18 18 0 -3
BITMAP
000000
000000
3E3E00
080800
080800
080800
080800
080800
0C1800
07E800
000800
000800
000800
000800
003E00
000000
000000
000000
ENDCHAR
STARTCHAR afii10042
ENCODING 1064
SWIDTH 1080 0
DWIDTH 18 0
BBX 18 18 0 -3
BITMAP
000000
000000
7BEF00
108400
108400
108400
108400
108400
108400
108400
108400
108400
108400
108400
7FFF00
000000
000000
000000
ENDCHAR
STARTCHAR afii10043
ENCODING 1065
SWIDTH 1080 0
DWIDTH 18 0
BBX 18 18 0 -3
BITMAP
000000
000000
7BEF00
108400
108400
108400
108400
108400
108400
108400
108400
108400
108400
108400
7FFF80
000080
000080
000000
ENDCHAR
STARTCHAR afii10044
ENCODING 1066
SWIDTH 1080 0
DWIDTH 18 0
BBX 18 18 0 -3
BITMAP
000000
000000
3FC000
210000
210000
010000
010000
01FC00
010200
010100
010100
010100
010100
010200
07FC00
000000
000000
000000
ENDCHAR
STARTCHAR afii10045
ENCODING 1067
SWIDTH 1080 0
DWIDTH 18 0
BBX 18 18 0 -3
BITMAP
000000
000000
7C1F00
100400
100400
100400
100400
1F8400
104400
102400
102400
102400
102400
104400
7F9F00
000000
000000
000000
ENDCHAR
STARTCHAR afii10046
ENCODING 1068
SWIDTH 1080 0
DWIDTH 18 0
BBX 18 18 0 -3
BITMAP
000000
000000
1F0000
040000
040000
040000
040000
07F000
040800
040400
040400
040400
040400
040800
1FF000
000000
000000
000000
ENDCHAR
STARTCHAR afii10047
ENCODING 1069
SWIDTH 1080 0
DWIDTH 18 0
BBX 18 18 0 -3
BITMAP
000000
000000
03E000
0E1800
080C00
080400
000600
038A00
047200
000200
000600
080400
080C00
0E1800
03E000
000000
000000
000000
ENDCHAR
STARTCHAR afii10048
ENCODING 1070
SWIDTH 1080 0
DWIDTH 18 0
BBX 18 18 0 -3
BITMAP
000000
000000
7C3800
10C600
108200
118300
110100
110100
1F0100
110100
110100
118300
108200
10C600
7C3800
000000
000000
000000
ENDCHAR
STARTCHAR afii10049
ENCODING 1071
SWIDTH 1080 0
DWIDTH 18 0
BBX 18 18 0 -3
BITMAP
000000
000000
07FE00
080800
100800
100800
100800
080800
07F800
010800
030800
020800
060800
0C0800
383E00
000000
000000
000000
ENDCHAR
STARTCHAR afii10065
ENCODING 1072
SWIDTH 1080 0
DWIDTH 18 0
BBX 18 18 0 -3
BITMAP
000000
000000
000000
000000
000000
000000
000000
03F000
000800
000800
03F800
040800
040800
041800
03EC00
000000
000000
000000
ENDCHAR
STARTCHAR afii10066
ENCODING 1073
SWIDTH 1080 0
DWIDTH 18 0
BBX 18 18 0 -3
BITMAP
000000
000000
000800
01F000
030000
060000
040000
05E000
061000
040800
040800
040800
040800
021000
01E000
000000
000000
000000
ENDCHAR
STARTCHAR afii10067
ENCODING 1074
SWIDTH 1080 0
DWIDTH 18 0
BBX 18 18 0 -3
BITMAP
000000
000000
000000
000000
000000
000000
000000
07F000
020800
020800
03F000
020800
020800
020800
07F000
000000
000000
000000
ENDCHAR
STARTCHAR afii10068
ENCODING 1075
SWIDTH 1080 0
DWIDTH 18 0
BBX 18 18 0 -3
BITMAP
000000
000000
000000
000000
000000
000000
000000
07F800
020800
020800
020000
020000
020000
020000
070000
000000
000000
000000
ENDCHAR
STARTCHAR afii10069
ENCODING 1076
SWIDTH 1080 0
DWIDTH 18 0
BBX 18 18 0 -3
BITMAP
000000
000000
000000
000000
000000
000000
000000
03F800
011000
011000
011000
011000
031000
021000
0FFC00
080400
080400
000000
ENDCHAR
STARTCHAR afii10070
ENCODING 1077
SWIDTH 1080 0
DWIDTH 18 0
BBX 18 18 0 -3
BITMAP
000000
000000
000000
000000
000000
000000
000000
01E000
021000
040800
07F800
040000
040000
020800
01F000
000000
000000
000000
ENDCHAR
STARTCHAR afii10072
ENCODING 1078
SWIDTH 1080 0
DWIDTH 18 0
BBX 18 18 0 -3
BITMAP
000000
000000
000000
000000
000000
000000
000000
19CC00
088800
049000
03E000
06B000
049000
0C9800
19CC00
000000
000000
000000
ENDCHAR
STARTCHAR afii10073
ENCODING 1079
SWIDTH 1080 0
DWIDTH 18 0
BBX 18 18 0 -3
BITMAP
000000
000000
000000
000000
000000
000000
000000
03F000
020800
000800
00F000
000800
000800
020800
03F000
000000
000000
000000
ENDCHAR
STARTCHAR afii10074
ENCODING 1080
SWIDTH 1080 0
DWIDTH 18 0
BBX 18 18 0 -3
BITMAP
000000
000000
000000
000000
000000
000000
000000
0E1C00
040800
041800
046800
058800
060800
040800
0E1C00
000000
000000
000000
ENDCHAR
STARTCHAR afii10075
ENCODING 1081
SWIDTH 1080 0
DWIDTH 18 0
BBX 18 18 0 -3
BITMAP
000000
000000
000000
033000
021000
01E000
000000
0E1C00
040800
041800
046800
058800
060800
040800
0E1C00
000000
000000
000000
ENDCHAR
STARTCHAR afii10076
ENCODING 1082
SWIDTH 1080 0
DWIDTH 18 0
BBX 18 18 0 -3
BITMAP
000000
000000
000000
000000
000000
000000
000000
073800
024800
028000
038000
024000
022000
021000
073C00
000000
000000
000000
ENDCHAR
STARTCHAR afii10077
ENCODING 1083
SWIDTH 1080 0
DWIDTH 18 0
BBX 18 18 0 -3
BITMAP
000000
000000
000000
000000
000000
000000
000000
03F800
011000
011000
011000
011000
011000
0B1000
0E3800
000000
000000
000000
ENDCHAR
STARTCHAR afii10078
ENCODING 1084
SWIDTH 1080 0
DWIDTH 18 0
BBX 18 18 0 -3
BITMAP
000000
000000
000000
000000
000000
000000
000000
1C1C00
0A2800
0A2800
094800
094800
088800
088800
1C1C00
000000
000000
000000
ENDCHAR
STARTCHAR afii10079
ENCODING 1085
SWIDTH 1080 0
DWIDTH 18 0
BBX 18 18 0 -3
BITMAP
000000
000000
000000
000000
000000
000000
000000
0E1C00
040800
040800
07F800
040800
040800
040800
0E1C00
000000
000000
000000
ENDCHAR
STARTCHAR afii10080
ENCODING 1086
SWIDTH 1080 0
DWIDTH 18 0
BBX 18 18 0 -3
BITMAP
000000
000000
000000
000000
000000
000000
000000
01E000
021000
040800
040800
040800
040800
021000
01E000
000000
000000
000000
ENDCHAR
STARTCHAR afii10081
ENCODING 1087
SWIDTH 1080 0
DWIDTH 18 0
BBX 18 18 0 -3
BITMAP
000000
000000
000000
000000
000000
000000
000000
0FF800
041000
041000
041000
041000
041000
041000
0E3800
000000
000000
000000
ENDCHAR
STARTCHAR afii10082
ENCODING 1088
SWIDTH 1080 0
DWIDTH 18 0
BBX 18 18 0 -3
BITMAP
000000
000000
000000
000000
000000
000000
000000
06F000
030800
020400
020400
020400
030800
02F000
020000
020000
070000
000000
ENDCHAR
STARTCHAR afii10083
ENCODING 1089
SWIDTH 1080 0
DWIDTH 18 0
BBX 18 18 0 -3
BITMAP
000000
000000
000000
000000
000000
000000
000000
01F000
020800
040000
040000
040000
040000
020800
01F000
000000
000000
000000
ENDCHAR
STARTCHAR afii10084
ENCODING 1090
SWIDTH 1080 0
DWIDTH 18 0
BBX 18 18 0 -3
BITMAP
000000
000000
000000
000000
000000
000000
000000
0FF800
088800
008000
008000
008000
008000
008000
01C000
000000
000000
000000
ENDCHAR
STARTCHAR afii10085
ENCODING 1091
SWIDTH 1080 0
DWIDTH 18 0
BBX 18 18 0 -3
BITMAP
000000
000000
000000
000000
000000
000000
000000
0E1C00
040800
061800
021000
033000
012000
016000
00C000
098000
0F0000
000000
ENDCHAR
STARTCHAR afii10086
ENCODING 1092
SWIDTH 1080 0
DWIDTH 18 0
BBX 18 18 0 -3
BITMAP
000000
000000
018000
008000
008000
008000
008000
06B000
09C800
108400
108400
108400
108400
09C800
06B000
008000
01C000
000000
ENDCHAR
STARTCHAR afii10087
ENCODING 1093
SWIDTH 1080 0
DWIDTH 18 0
BBX 18 18 0 -3
BITMAP
000000
000000
000000
000000
000000
000000
000000
073800
021000
012000
00C000
00C000
012000
021000
0F3C00
000000
000000
000000
ENDCHAR
STARTCHAR afii10088
ENCODING 1094
SWIDTH 1080 0
DWIDTH 18 0
BBX 18 18 0 -3
BITMAP
000000
000000
000000
000000
000000
000000
000000
0E3800
041000
041000
041000
041000
041000
041000
0FFC00
000400
000400
000000
ENDCHAR
STARTCHAR afii10089
ENCODING 1095
SWIDTH 1080 0
DWIDTH 18 0
BBX 18 18 0 -3
BITMAP
000000
000000
000000
000000
000000
000000
000000
0E1C00
040800
040800
040800
03F800
000800
000800
001C00
000000
000000
000000
ENDCHAR
STARTCHAR afii10090
ENCODING 1096
SWIDTH 1080 0
DWIDTH 18 0
BBX 18 18 0 -3
BITMAP
000000
000000
000000
000000
000000
000000
000000
39CE00
108400
108400
108400
108400
108400
108400
3FFE00
000000
000000
000000
ENDCHAR
STARTCHAR afii10091
ENCODING 1097
SWIDTH 1080 0
DWIDTH 18 0
BBX 18 18 0 -3
BITMAP
000000
000000
000000
000000
000000
000000
000000
39CE00
108400
108400
108400
108400
108400
108400
3FFF00
000100
000100
000000
ENDCHAR
STARTCHAR afii10092
ENCODING 1098
SWIDTH 1080 0
DWIDTH 18 0
BBX 18 18 0 -3
BITMAP
000000
000000
000000
000000
000000
000000
000000
1FC000
108000
108000
00FC00
008200
008200
008200
01FC00
000000
000000
000000
ENDCHAR
STARTCHAR afii10093
ENCODING 1099
SWIDTH 1080 0
DWIDTH 18 0
BBX 18 18 0 -3
BITMAP
000000
000000
000000
000000
000000
000000
000000
1C0E00
080400
080400
0FC400
082400
082400
082400
1FCE00
000000
000000
000000
ENDCHAR
STARTCHAR afii10094
ENCODING 1100
SWIDTH 1080 0
DWIDTH 18 0
BBX 18 18 0 -3
BITMAP
000000
000000
000000
000000
000000
000000
000000
070000
020000
020000
03F000
020800
020800
020800
07F000
000000
000000
000000
ENDCHAR
STARTCHAR afii10095
ENCODING 1101
SWIDTH 1080 0
DWIDTH 18 0
BBX 18 18 0 -3
BITMAP
000000
000000
000000
000000
000000
000000
000000
03E000
041000
000800
019800
026800
000800
041000
03E000
000000
000000
000000
ENDCHAR
STARTCHAR afii10096
ENCODING 1102
SWIDTH 1080 0
DWIDTH 18 0
BBX 18 18 0 -3
BITMAP
000000
000000
000000
000000
000000
000000
000000
0E3800
044400
048200
078200
048200
048200
044400
0E3800
000000
000000
000000
ENDCHAR
STARTCHAR afii10097
ENCODING 1103
SWIDTH 1080 0
DWIDTH 18 0
BBX 18 18 0 -3
BITMAP
000000
000000
000000
000000
000000
000000
000000
03F800
041000
041000
041000
03F000
011000
021000
0E3800
000000
000000
000000
ENDCHAR
STARTCHAR afii10071
ENCODING 1105
SWIDTH 1080 0
DWIDTH 18 0
BBX 18 18 0 -3
BITMAP
000000
000000
000000
000000
033000
033000
000000
01E000
021000
040800
07F800
040000
040000
020800
01F000
000000
000000
000000
ENDCHAR
STARTCHAR uni2010
ENCODING 8208
SWIDTH 1080 0
DWIDTH 18 0
BBX 18 18 0 -3
BITMAP
000000
000000
000000
000000
000000
000000
000000
000000
03F000
000000
000000
000000
000000
000000
000000
000000
000000
000000
ENDCHAR
STARTCHAR uni2011
ENCODING 8209
SWIDTH 1080 0
DWIDTH 18 0
BBX 18 18 0 -3
BITMAP
000000
000000
000000
000000
000000
000000
000000
000000
03F000
000000
000000
000000
000000
000000
000000
000000
000000
000000
ENDCHAR
STARTCHAR figuredash
ENCODING 8210
SWIDTH 1080 0
DWIDTH 18 0
BBX 18 18 0 -3
BITMAP
000000
000000
000000
000000
000000
000000
000000
000000
0FFC00
000000
000000
000000
000000
000000
000000
000000
000000
000000
ENDCHAR
STARTCHAR endash
ENCODING 8211
SWIDTH 1080 0
DWIDTH 18 0
BBX 18 18 0 -3
BITMAP
000000
000000
000000
000000
000000
000000
000000
000000
1FFE00
000000
000000
000000
000000
000000
000000
000000
000000
000000
ENDCHAR
STARTCHAR emdash
ENCODING 8212
SWIDTH 1080 0
DWIDTH 18 0
BBX 18 18 0 -3
BITMAP
000000
000000
000000
000000
000000
000000
000000
000000
7FFF80
000000
000000
000000
000000
000000
000000
000000
000000
000000
ENDCHAR
STARTCHAR afii00208
ENCODING 8213
SWIDTH 1080 0
DWIDTH 18 0
BBX 18 18 0 -3
BITMAP
000000
000000
000000
000000
000000
000000
000000
000000
FFFFC0
000000
000000
000000
000000
000000
000000
000000
000000
000000
ENDCHAR
STARTCHAR uni2016
ENCODING 8214
SWIDTH 1080 0
DWIDTH 18 0
BBX 18 18 0 -3
BITMAP
000000
022000
022000
022000
022000
022000
022000
022000
022000
022000
022000
022000
022000
022000
022000
022000
022000
000000
ENDCHAR
STARTCHAR quoteleft
ENCODING 8216
SWIDTH 1080 0
DWIDTH 18 0
BBX 18 18 0 -3
BITMAP
000000
000400
000800
000C00
000C00
000000
000000
000000
000000
000000
000000
000000
000000
000000
000000
000000
000000
000000
ENDCHAR
STARTCHAR quoteright
ENCODING 8217
SWIDTH 1080 0
DWIDTH 18 0
BBX 18 18 0 -3
BITMAP
000000
0C0000
0C0000
040000
080000
000000
000000
000000
000000
000000
000000
000000
000000
000000
000000
000000
000000
000000
ENDCHAR
STARTCHAR quotedblleft
ENCODING 8220
SWIDTH 1080 0
DWIDTH 18 0
BBX 18 18 0 -3
BITMAP
000000
001200
002400
003600
003600
000000
000000
000000
000000
000000
000000
000000
000000
000000
000000
000000
000000
000000
ENDCHAR
STARTCHAR quotedblright
ENCODING 8221
SWIDTH 1080 0
DWIDTH 18 0
BBX 18 18 0 -3
BITMAP
000000
1B0000
1B0000
090000
120000
000000
000000
000000
000000
000000
000000
000000
000000
000000
000000
000000
000000
000000
ENDCHAR
STARTCHAR dagger
ENCODING 8224
SWIDTH 1080 0
DWIDTH 18 0
BBX 18 18 0 -3
BITMAP
000000
008000
01C000
049000
0FF800
049000
008000
03E000
01C000
01C000
01C000
01C000
01C000
008000
008000
008000
008000
000000
ENDCHAR
STARTCHAR daggerdbl
ENCODING 8225
SWIDTH 1080 0
DWIDTH 18 0
BBX 18 18 0 -3
BITMAP
000000
008000
01C000
049000
0FF800
049000
01C000
01C000
008000
008000
01C000
01C000
049000
0FF800
049000
01C000
008000
000000
ENDCHAR
STARTCHAR twodotenleader
ENCODING 8229
SWIDTH 1080 0
DWIDTH 18 0
BBX 18 18 0 -3
BITMAP
000000
000000
000000
000000
000000
000000
000000
000000
0C0C00
0C0C00
000000
000000
000000
000000
000000
000000
000000
000000
ENDCHAR
STARTCHAR ellipsis
ENCODING 8230
SWIDTH 1080 0
DWIDTH 18 0
BBX 18 18 0 -3
BITMAP
000000
000000
000000
000000
000000
000000
000000
000000
30C300
30C300
000000
000000
000000
000000
000000
000000
000000
000000
ENDCHAR
STARTCHAR perthousand
ENCODING 8240
SWIDTH 1080 0
DWIDTH 18 0
BBX 18 18 0 -3
BITMAP
000000
000000
182000
242000
244000
248000
248000
250000
1A0000
02C600
052900
092900
092900
112900
212900
20C600
000000
000000
ENDCHAR
STARTCHAR minute
ENCODING 8242
SWIDTH 1080 0
DWIDTH 18 0
BBX 18 18 0 -3
BITMAP
000000
000000
040000
0C0000
180000
100000
000000
000000
000000
000000
000000
000000
000000
000000
000000
000000
000000
000000
ENDCHAR
STARTCHAR second
ENCODING 8243
SWIDTH 1080 0
DWIDTH 18 0
BBX 18 18 0 -3
BITMAP
000000
000000
088000
198000
330000
220000
000000
000000
000000
000000
000000
000000
000000
000000
000000
000000
000000
000000
ENDCHAR
STARTCHAR uni2034
ENCODING 8244
SWIDTH 1080 0
DWIDTH 18 0
BBX 18 18 0 -3
BITMAP
000000
000000
088800
199800
333000
222000
000000
000000
000000
000000
000000
000000
000000
000000
000000
000000
000000
000000
ENDCHAR
STARTCHAR uni203B
ENCODING 8251
SWIDTH 1080 0
DWIDTH 18 0
BBX 18 18 0 -3
BITMAP
000000
000000
000000
10C200
08C400
040800
021000
012000
18C600
18C600
012000
021000
040800
08C400
10C200
000000
000000
000000
ENDCHAR
STARTCHAR uni2103
ENCODING 8451
SWIDTH 1080 0
DWIDTH 18 0
BBX 18 18 0 -3
BITMAP
000000
000000
307900
498500
4B0300
320100
060100
040000
040000
040000
060000
020100
030300
018600
007800
000000
000000
000000
ENDCHAR
STARTCHAR uni212B
ENCODING 8491
SWIDTH 1080 0
DWIDTH 18 0
BBX 18 18 0 -3
BITMAP
000000
00C000
012000
012000
00C000
000000
008000
014000
014000
022000
021000
07F800
040800
080400
3E1F00
000000
000000
000000
ENDCHAR
STARTCHAR arrowleft
ENCODING 8592
SWIDTH 1080 0
DWIDTH 18 0
BBX 18 18 0 -3
BITMAP
000000
000000
000000
000000
000000
000000
080000
100000
7FFF80
100000
080000
000000
000000
000000
000000
000000
000000
000000
ENDCHAR
STARTCHAR arrowup
ENCODING 8593
SWIDTH 1080 0
DWIDTH 18 0
BBX 18 18 0 -3
BITMAP
000000
008000
008000
01C000
02A000
008000
008000
008000
008000
008000
008000
008000
008000
008000
008000
008000
008000
000000
ENDCHAR
STARTCHAR arrowright
ENCODING 8594
SWIDTH 1080 0
DWIDTH 18 0
BBX 18 18 0 -3
BITMAP
000000
000000
000000
000000
000000
000000
000400
000200
7FFF80
000200
000400
000000
000000
000000
000000
000000
000000
000000
ENDCHAR
STARTCHAR arrowdown
ENCODING 8595
SWIDTH 1080 0
DWIDTH 18 0
BBX 18 18 0 -3
BITMAP
000000
008000
008000
008000
008000
008000
008000
008000
008000
008000
008000
008000
008000
02A000
01C000
008000
008000
000000
ENDCHAR
STARTCHAR arrowdblright
ENCODING 8658
SWIDTH 1080 0
DWIDTH 18 0
BBX 18 18 0 -3
BITMAP
000000
000000
000000
000000
000800
000400
7FFE00
000100
000080
000100
7FFE00
000400
000800
000000
000000
000000
000000
000000
ENDCHAR
STARTCHAR arrowdblboth
ENCODING 8660
SWIDTH 1080 0
DWIDTH 18 0
BBX 18 18 0 -3
BITMAP
000000
000000
000000
000000
040800
080400
1FFE00
200100
400080
200100
1FFE00
080400
040800
000000
000000
000000
000000
000000
ENDCHAR
STARTCHAR universal
ENCODING 8704
SWIDTH 1080 0
DWIDTH 18 0
BBX 18 18 0 -3
BITMAP
000000
000000
200200
200200
100400
100400
0FF800
080800
041000
041000
022000
022000
014000
014000
008000
008000
000000
000000
ENDCHAR
STARTCHAR partialdiff
ENCODING 8706
SWIDTH 1080 0
DWIDTH 18 0
BBX 18 18 0 -3
BITMAP
000000
000000
00F000
019800
020800
000800
000800
01D800
023000
041000
0C3000
082000
086000
0CC000
078000
000000
000000
000000
ENDCHAR
STARTCHAR existential
ENCODING 8707
SWIDTH 1080 0
DWIDTH 18 0
BBX 18 18 0 -3
BITMAP
000000
000000
000000
0FF800
000800
000800
000800
000800
0FF800
000800
000800
000800
000800
0FF800
000000
000000
000000
000000
ENDCHAR
STARTCHAR gradient
ENCODING 8711
SWIDTH 1080 0
DWIDTH 18 0
BBX 18 18 0 -3
BITMAP
000000
000000
3FFF00
180200
180600
0C0400
0C0C00
060800
061800
031000
033000
01A000
01E000
00C000
00C000
000000
000000
000000
ENDCHAR
STARTCHAR element
ENCODING 8712
SWIDTH 1080 0
DWIDTH 18 0
BBX 18 18 0 -3
BITMAP
000000
000000
000000
000000
03FC00
040000
080000
080000
0FFC00
080000
080000
040000
03FC00
000000
000000
000000
000000
000000
ENDCHAR
STARTCHAR suchthat
ENCODING 8715
SWIDTH 1080 0
DWIDTH 18 0
BBX 18 18 0 -3
BITMAP
000000
000000
000000
000000
0FF000
000800
000400
000400
0FFC00
000400
000400
000800
0FF000
000000
000000
000000
000000
000000
ENDCHAR
STARTCHAR minus
ENCODING 8722
SWIDTH 1080 0
DWIDTH 18 0
BBX 18 18 0 -3
BITMAP
000000
000000
000000
000000
000000
000000
000000
000000
1FFE00
000000
000000
000000
000000
000000
000000
000000
000000
000000
ENDCHAR
STARTCHAR radical
ENCODING 8730
SWIDTH 1080 0
DWIDTH 18 0
BBX 18 18 0 -3
BITMAP
000000
007F80
004000
004000
008000
008000
008000
008000
010000
010000
010000
110000
3A0000
5A0000
0E0000
0C0000
040000
000000
ENDCHAR
STARTCHAR proportional
ENCODING 8733
SWIDTH 1080 0
DWIDTH 18 0
BBX 18 18 0 -3
BITMAP
000000
000000
000000
000000
000000
0E1C00
112200
20C000
20C000
20C000
20C000
112200
0E1C00
000000
000000
000000
000000
000000
ENDCHAR
STARTCHAR infinity
ENCODING 8734
SWIDTH 1080 0
DWIDTH 18 0
BBX 18 18 0 -3
BITMAP
000000
000000
000000
000000
000000
0E1C00
112200
20C100
20C100
20C100
20C100
112200
0E1C00
000000
000000
000000
000000
000000
ENDCHAR
STARTCHAR angle
ENCODING 8736
SWIDTH 1080 0
DWIDTH 18 0
BBX 18 18 0 -3
BITMAP
000000
000000
000000
000400
000800
001000
002000
004000
008000
010000
020000
040000
080000
1FFE00
000000
000000
000000
000000
ENDCHAR
STARTCHAR logicaland
ENCODING 8743
SWIDTH 1080 0
DWIDTH 18 0
BBX 18 18 0 -3
BITMAP
000000
000000
000000
008000
008000
014000
014000
022000
022000
041000
041000
080800
080800
100400
100400
000000
000000
000000
ENDCHAR
STARTCHAR logicalor
ENCODING 8744
SWIDTH 1080 0
DWIDTH 18 0
BBX 18 18 0 -3
BITMAP
000000
000000
000000
100400
100400
080800
080800
041000
041000
022000
022000
014000
014000
008000
008000
000000
000000
000000
ENDCHAR
STARTCHAR intersection
ENCODING 8745
SWIDTH 1080 0
DWIDTH 18 0
BBX 18 18 0 -3
BITMAP
000000
000000
000000
01E000
021000
040800
080400
080400
080400
080400
080400
080400
080400
080400
080400
000000
000000
000000
ENDCHAR
STARTCHAR union
ENCODING 8746
SWIDTH 1080 0
DWIDTH 18 0
BBX 18 18 0 -3
BITMAP
000000
000000
000000
080400
080400
080400
080400
080400
080400
080400
080400
080400
040800
021000
01E000
000000
000000
000000
ENDCHAR
STARTCHAR integral
ENCODING 8747
SWIDTH 1080 0
DWIDTH 18 0
BBX 18 18 0 -3
BITMAP
000000
00E000
012000
010000
010000
018000
018000
008000
00C000
00C000
004000
006000
006000
002000
002000
012000
01C000
000000
ENDCHAR
STARTCHAR uni222C
ENCODING 8748
SWIDTH 1080 0
DWIDTH 18 0
BBX 18 18 0 -3
BITMAP
000000
071C00
092400
082000
082000
0C3000
0C3000
041000
061800
061800
020800
030C00
030C00
010400
010400
092400
0E3800
000000
ENDCHAR
STARTCHAR therefore
ENCODING 8756
SWIDTH 1080 0
DWIDTH 18 0
BBX 18 18 0 -3
BITMAP
000000
000000
000000
000000
00C000
00C000
000000
000000
000000
000000
000000
000000
180600
180600
000000
000000
000000
000000
ENDCHAR
STARTCHAR uni2235
ENCODING 8757
SWIDTH 1080 0
DWIDTH 18 0
BBX 18 18 0 -3
BITMAP
000000
000000
000000
000000
180600
180600
000000
000000
000000
000000
000000
000000
00C000
00C000
000000
000000
000000
000000
ENDCHAR
STARTCHAR uni223D
ENCODING 8765
SWIDTH 1080 0
DWIDTH 18 0
BBX 18 18 0 -3
BITMAP
000000
000000
000000
000000
000000
0E1C00
102200
204100
204100
208100
208100
110200
0E1C00
000000
000000
000000
000000
000000
ENDCHAR
STARTCHAR uni2252
ENCODING 8786
SWIDTH 1080 0
DWIDTH 18 0
BBX 18 18 0 -3
BITMAP
000000
000000
000000
0C0000
0C0000
000000
1FFE00
000000
000000
000000
1FFE00
000000
000C00
000C00
000000
000000
000000
000000
ENDCHAR
STARTCHAR notequal
ENCODING 8800
SWIDTH 1080 0
DWIDTH 18 0
BBX 18 18 0 -3
BITMAP
000000
000000
000000
002000
002000
004000
1FFE00
004000
008000
008000
1FFE00
008000
010000
010000
000000
000000
000000
000000
ENDCHAR
STARTCHAR equivalence
ENCODING 8801
SWIDTH 1080 0
DWIDTH 18 0
BBX 18 18 0 -3
BITMAP
000000
000000
000000
000000
1FFE00
000000
000000
000000
1FFE00
000000
000000
000000
1FFE00
000000
000000
000000
000000
000000
ENDCHAR
STARTCHAR uni2266
ENCODING 8806
SWIDTH 1080 0
DWIDTH 18 0
BBX 18 18 0 -3
BITMAP
000000
000000
000000
000E00
007000
038000
1C0000
038000
007000
000E00
000000
1FFE00
000000
000000
1FFE00
000000
000000
000000
ENDCHAR
STARTCHAR uni2267
ENCODING 8807
SWIDTH 1080 0
DWIDTH 18 0
BBX 18 18 0 -3
BITMAP
000000
000000
000000
1C0000
038000
007000
000E00
007000
038000
1C0000
000000
1FFE00
000000
000000
1FFE00
000000
000000
000000
ENDCHAR
STARTCHAR uni226A
ENCODING 8810
SWIDTH 1080 0
DWIDTH 18 0
BBX 18 18 0 -3
BITMAP
000000
000000
002100
004200
018C00
021000
0C6000
108000
210000
108000
084000
042000
031800
008400
004200
002100
000000
000000
ENDCHAR
STARTCHAR uni226B
ENCODING 8811
SWIDTH 1080 0
DWIDTH 18 0
BBX 18 18 0 -3
BITMAP
000000
000000
210000
108000
0C6000
021000
018C00
004200
002100
004200
008400
010800
063000
084000
108000
210000
000000
000000
ENDCHAR
STARTCHAR propersubset
ENCODING 8834
SWIDTH 1080 0
DWIDTH 18 0
BBX 18 18 0 -3
BITMAP
000000
000000
000000
000000
03FE00
040000
080000
100000
100000
100000
100000
080000
040000
03FE00
000000
000000
000000
000000
ENDCHAR
STARTCHAR propersuperset
ENCODING 8835
SWIDTH 1080 0
DWIDTH 18 0
BBX 18 18 0 -3
BITMAP
000000
000000
000000
000000
1FF000
000800
000400
000200
000200
000200
000200
000400
000800
1FF000
000000
000000
000000
000000
ENDCHAR
STARTCHAR reflexsubset
ENCODING 8838
SWIDTH 1080 0
DWIDTH 18 0
BBX 18 18 0 -3
BITMAP
000000
000000
000000
07FE00
080000
100000
100000
100000
100000
080000
07FE00
000000
000000
1FFE00
000000
000000
000000
000000
ENDCHAR
STARTCHAR reflexsuperset
ENCODING 8839
SWIDTH 1080 0
DWIDTH 18 0
BBX 18 18 0 -3
BITMAP
000000
000000
000000
1FF800
000400
000200
000200
000200
000200
000400
1FF800
000000
000000
1FFE00
000000
000000
000000
000000
ENDCHAR
STARTCHAR perpendicular
ENCODING 8869
SWIDTH 1080 0
DWIDTH 18 0
BBX 18 18 0 -3
BITMAP
000000
000000
000000
008000
008000
008000
008000
008000
008000
008000
008000
008000
008000
1FFE00
000000
000000
000000
000000
ENDCHAR
STARTCHAR uni2308
ENCODING 8968
SWIDTH 1080 0
DWIDTH 18 0
BBX 18 18 0 -3
BITMAP
000000
007C00
004000
004000
004000
004000
004000
004000
004000
004000
004000
004000
004000
004000
004000
004000
004000
000000
ENDCHAR
STARTCHAR uni2309
ENCODING 8969
SWIDTH 1080 0
DWIDTH 18 0
BBX 18 18 0 -3
BITMAP
000000
0F8000
008000
008000
008000
008000
008000
008000
008000
008000
008000
008000
008000
008000
008000
008000
008000
000000
ENDCHAR
STARTCHAR uni230A
ENCODING 8970
SWIDTH 1080 0
DWIDTH 18 0
BBX 18 18 0 -3
BITMAP
000000
004000
004000
004000
004000
004000
004000
004000
004000
004000
004000
004000
004000
004000
004000
004000
007C00
000000
ENDCHAR
STARTCHAR uni230B
ENCODING 8971
SWIDTH 1080 0
DWIDTH 18 0
BBX 18 18 0 -3
BITMAP
000000
0F8000
008000
008000
008000
008000
008000
008000
008000
008000
008000
008000
008000
008000
008000
008000
008000
000000
ENDCHAR
STARTCHAR uni2312
ENCODING 8978
SWIDTH 1080 0
DWIDTH 18 0
BBX 18 18 0 -3
BITMAP
000000
03F000
1C0E00
600180
000000
000000
000000
000000
000000
000000
000000
000000
000000
000000
000000
000000
000000
000000
ENDCHAR
STARTCHAR uni240A
ENCODING 9226
SWIDTH 1080 0
DWIDTH 18 0
BBX 18 18 0 -3
BITMAP
000000
000000
100000
100000
100000
100000
100000
103E00
102000
1F2000
003C00
002000
002000
002000
002000
000000
000000
000000
ENDCHAR
STARTCHAR uni240D
ENCODING 9229
SWIDTH 1080 0
DWIDTH 18 0
BBX 18 18 0 -3
BITMAP
000000
000000
0E0000
110000
100000
100000
100000
103C00
112200
0E2200
002200
003C00
002400
002200
002200
000000
000000
000000
ENDCHAR
STARTCHAR SF100000
ENCODING 9472
SWIDTH 1080 0
DWIDTH 18 0
BBX 18 18 0 -3
BITMAP
000000
000000
000000
000000
000000
000000
000000
000000
FFFFC0
000000
000000
000000
000000
000000
000000
000000
000000
000000
ENDCHAR
STARTCHAR uni2501
ENCODING 9473
SWIDTH 1080 0
DWIDTH 18 0
BBX 18 18 0 -3
BITMAP
000000
000000
000000
000000
000000
000000
000000
000000
FFFFC0
FFFFC0
000000
000000
000000
000000
000000
000000
000000
000000
ENDCHAR
STARTCHAR SF110000
ENCODING 9474
SWIDTH 1080 0
DWIDTH 18 0
BBX 18 18 0 -3
BITMAP
008000
008000
008000
008000
008000
008000
008000
008000
008000
008000
008000
008000
008000
008000
008000
008000
008000
008000
ENDCHAR
STARTCHAR uni2503
ENCODING 9475
SWIDTH 1080 0
DWIDTH 18 0
BBX 18 18 0 -3
BITMAP
00C000
00C000
00C000
00C000
00C000
00C000
00C000
00C000
00C000
00C000
00C000
00C000
00C000
00C000
00C000
00C000
00C000
00C000
ENDCHAR
STARTCHAR SF010000
ENCODING 9484
SWIDTH 1080 0
DWIDTH 18 0
BBX 18 18 0 -3
BITMAP
000000
000000
000000
000000
000000
000000
000000
000000
00FFC0
008000
008000
008000
008000
008000
008000
008000
008000
008000
ENDCHAR
STARTCHAR uni250F
ENCODING 9487
SWIDTH 1080 0
DWIDTH 18 0
BBX 18 18 0 -3
BITMAP
000000
000000
000000
000000
000000
000000
000000
000000
00FFC0
00FFC0
00C000
00C000
00C000
00C000
00C000
00C000
00C000
00C000
ENDCHAR
STARTCHAR SF030000
ENCODING 9488
SWIDTH 1080 0
DWIDTH 18 0
BBX 18 18 0 -3
BITMAP
000000
000000
000000
000000
000000
000000
000000
000000
FF8000
008000
008000
008000
008000
008000
008000
008000
008000
008000
ENDCHAR
STARTCHAR uni2513
ENCODING 9491
SWIDTH 1080 0
DWIDTH 18 0
BBX 18 18 0 -3
BITMAP
000000
000000
000000
000000
000000
000000
000000
000000
FFC000
FFC000
00C000
00C000
00C000
00C000
00C000
00C000
00C000
00C000
ENDCHAR
STARTCHAR SF020000
ENCODING 9492
SWIDTH 1080 0
DWIDTH 18 0
BBX 18 18 0 -3
BITMAP
008000
008000
008000
008000
008000
008000
008000
008000
00FFC0
000000
000000
000000
000000
000000
000000
000000
000000
000000
ENDCHAR
STARTCHAR uni2517
ENCODING 9495
SWIDTH 1080 0
DWIDTH 18 0
BBX 18 18 0 -3
BITMAP
00C000
00C000
00C000
00C000
00C000
00C000
00C000
00C000
00FFC0
00FFC0
000000
000000
000000
000000
000000
000000
000000
000000
ENDCHAR
STARTCHAR SF040000
ENCODING 9496
SWIDTH 1080 0
DWIDTH 18 0
BBX 18 18 0 -3
BITMAP
008000
008000
008000
008000
008000
008000
008000
008000
FF8000
000000
000000
000000
000000
000000
000000
000000
000000
000000
ENDCHAR
STARTCHAR uni251B
ENCODING 9499
SWIDTH 1080 0
DWIDTH 18 0
BBX 18 18 0 -3
BITMAP
00C000
00C000
00C000
00C000
00C000
00C000
00C000
00C000
FFC000
FFC000
000000
000000
000000
000000
000000
000000
000000
000000
ENDCHAR
STARTCHAR SF080000
ENCODING 9500
SWIDTH 1080 0
DWIDTH 18 0
BBX 18 18 0 -3
BITMAP
008000
008000
008000
008000
008000
008000
008000
008000
00FFC0
008000
008000
008000
008000
008000
008000
008000
008000
008000
ENDCHAR
STARTCHAR uni251D
ENCODING 9501
SWIDTH 1080 0
DWIDTH 18 0
BBX 18 18 0 -3
BITMAP
008000
008000
008000
008000
008000
008000
008000
008000
00FFC0
00FFC0
008000
008000
008000
008000
008000
008000
008000
008000
ENDCHAR
STARTCHAR uni2520
ENCODING 9504
SWIDTH 1080 0
DWIDTH 18 0
BBX 18 18 0 -3
BITMAP
00C000
00C000
00C000
00C000
00C000
00C000
00C000
00C000
00FFC0
00C000
00C000
00C000
00C000
00C000
00C000
00C000
00C000
00C000
ENDCHAR
STARTCHAR uni2523
ENCODING 9507
SWIDTH 1080 0
DWIDTH 18 0
BBX 18 18 0 -3
BITMAP
00C000
00C000
00C000
00C000
00C000
00C000
00C000
00C000
00FFC0
00FFC0
00C000
00C000
00C000
00C000
00C000
00C000
00C000
00C000
ENDCHAR
STARTCHAR SF090000
ENCODING 9508
SWIDTH 1080 0
DWIDTH 18 0
BBX 18 18 0 -3
BITMAP
008000
008000
008000
008000
008000
008000
008000
008000
FF8000
008000
008000
008000
008000
008000
008000
008000
008000
008000
ENDCHAR
STARTCHAR uni2525
ENCODING 9509
SWIDTH 1080 0
DWIDTH 18 0
BBX 18 18 0 -3
BITMAP
008000
008000
008000
008000
008000
008000
008000
008000
FF8000
FF8000
008000
008000
008000
008000
008000
008000
008000
008000
ENDCHAR
STARTCHAR uni2528
ENCODING 9512
SWIDTH 1080 0
DWIDTH 18 0
BBX 18 18 0 -3
BITMAP
00C000
00C000
00C000
00C000
00C000
00C000
00C000
00C000
FFC000
00C000
00C000
00C000
00C000
00C000
00C000
00C000
00C000
00C000
ENDCHAR
STARTCHAR uni252B
ENCODING 9515
SWIDTH 1080 0
DWIDTH 18 0
BBX 18 18 0 -3
BITMAP
00C000
00C000
00C000
00C000
00C000
00C000
00C000
00C000
FFC000
FFC000
00C000
00C000
00C000
00C000
00C000
00C000
00C000
00C000
ENDCHAR
STARTCHAR SF060000
ENCODING 9516
SWIDTH 1080 0
DWIDTH 18 0
BBX 18 18 0 -3
BITMAP
000000
000000
000000
000000
000000
000000
000000
000000
FFFFC0
008000
008000
008000
008000
008000
008000
008000
008000
008000
ENDCHAR
STARTCHAR uni252F
ENCODING 9519
SWIDTH 1080 0
DWIDTH 18 0
BBX 18 18 0 -3
BITMAP
000000
000000
000000
000000
000000
000000
000000
000000
FFFFC0
FFFFC0
008000
008000
008000
008000
008000
008000
008000
008000
ENDCHAR
STARTCHAR uni2530
ENCODING 9520
SWIDTH 1080 0
DWIDTH 18 0
BBX 18 18 0 -3
BITMAP
000000
000000
000000
000000
000000
000000
000000
000000
FFFFC0
00C000
00C000
00C000
00C000
00C000
00C000
00C000
00C000
00C000
ENDCHAR
STARTCHAR uni2533
ENCODING 9523
SWIDTH 1080 0
DWIDTH 18 0
BBX 18 18 0 -3
BITMAP
000000
000000
000000
000000
000000
000000
000000
000000
FFFFC0
FFFFC0
00C000
00C000
00C000
00C000
00C000
00C000
00C000
00C000
ENDCHAR
STARTCHAR SF070000
ENCODING 9524
SWIDTH 1080 0
DWIDTH 18 0
BBX 18 18 0 -3
BITMAP
008000
008000
008000
008000
008000
008000
008000
008000
FFFFC0
000000
000000
000000
000000
000000
000000
000000
000000
000000
ENDCHAR
STARTCHAR uni2537
ENCODING 9527
SWIDTH 1080 0
DWIDTH 18 0
BBX 18 18 0 -3
BITMAP
008000
008000
008000
008000
008000
008000
008000
008000
FFFFC0
FFFFC0
000000
000000
000000
000000
000000
000000
000000
000000
ENDCHAR
STARTCHAR uni2538
ENCODING 9528
SWIDTH 1080 0
DWIDTH 18 0
BBX 18 18 0 -3
BITMAP
00C000
00C000
00C000
00C000
00C000
00C000
00C000
00C000
FFFFC0
000000
000000
000000
000000
000000
000000
000000
000000
000000
ENDCHAR
STARTCHAR uni253B
ENCODING 9531
SWIDTH 1080 0
DWIDTH 18 0
BBX 18 18 0 -3
BITMAP
00C000
00C000
00C000
00C000
00C000
00C000
00C000
00C000
FFFFC0
FFFFC0
000000
000000
000000
000000
000000
000000
000000
000000
ENDCHAR
STARTCHAR SF050000
ENCODING 9532
SWIDTH 1080 0
DWIDTH 18 0
BBX 18 18 0 -3
BITMAP
008000
008000
008000
008000
008000
008000
008000
008000
FFFFC0
008000
008000
008000
008000
008000
008000
008000
008000
008000
ENDCHAR
STARTCHAR uni253F
ENCODING 9535
SWIDTH 1080 0
DWIDTH 18 0
BBX 18 18 0 -3
BITMAP
008000
008000
008000
008000
008000
008000
008000
008000
FFFFC0
FFFFC0
008000
008000
008000
008000
008000
008000
008000
008000
ENDCHAR
STARTCHAR uni2542
ENCODING 9538
SWIDTH 1080 0
DWIDTH 18 0
BBX 18 18 0 -3
BITMAP
00C000
00C000
00C000
00C000
00C000
00C000
00C000
00C000
FFFFC0
00C000
00C000
00C000
00C000
00C000
00C000
00C000
00C000
00C000
ENDCHAR
STARTCHAR uni254B
ENCODING 9547
SWIDTH 1080 0
DWIDTH 18 0
BBX 18 18 0 -3
BITMAP
00C000
00C000
00C000
00C000
00C000
00C000
00C000
00C000
FFFFC0
FFFFC0
00C000
00C000
00C000
00C000
00C000
00C000
00C000
00C000
ENDCHAR
STARTCHAR filledbox
ENCODING 9632
SWIDTH 1080 0
DWIDTH 18 0
BBX 18 18 0 -3
BITMAP
000000
000000
3FFF00
3FFF00
3FFF00
3FFF00
3FFF00
3FFF00
3FFF00
3FFF00
3FFF00
3FFF00
3FFF00
3FFF00
3FFF00
3FFF00
000000
000000
ENDCHAR
STARTCHAR H22073
ENCODING 9633
SWIDTH 1080 0
DWIDTH 18 0
BBX 18 18 0 -3
BITMAP
000000
000000
3FFF00
200100
200100
200100
200100
200100
200100
200100
200100
200100
200100
200100
200100
3FFF00
000000
000000
ENDCHAR
STARTCHAR triagup
ENCODING 9650
SWIDTH 1080 0
DWIDTH 18 0
BBX 18 18 0 -3
BITMAP
000000
000000
000000
008000
01C000
01C000
03E000
03F000
07F000
07F800
0FF800
0FFC00
1FFE00
1FFE00
3FFF00
000000
000000
000000
ENDCHAR
STARTCHAR uni25B3
ENCODING 9651
SWIDTH 1080 0
DWIDTH 18 0
BBX 18 18 0 -3
BITMAP
000000
000000
000000
008000
014000
014000
022000
022000
041000
040800
080800
080400
100400
100200
3FFF00
000000
000000
000000
ENDCHAR
STARTCHAR triagdn
ENCODING 9660
SWIDTH 1080 0
DWIDTH 18 0
BBX 18 18 0 -3
BITMAP
000000
000000
000000
3FFF00
1FFE00
1FFE00
0FFC00
0FF800
07F800
07F000
03F000
03E000
01C000
01C000
008000
000000
000000
000000
ENDCHAR
STARTCHAR uni25BD
ENCODING 9661
SWIDTH 1080 0
DWIDTH 18 0
BBX 18 18 0 -3
BITMAP
000000
000000
000000
3FFF00
100200
100400
080400
080800
040800
041000
022000
022000
014000
014000
008000
000000
000000
000000
ENDCHAR
STARTCHAR uni25C6
ENCODING 9670
SWIDTH 1080 0
DWIDTH 18 0
BBX 18 18 0 -3
BITMAP
000000
00C000
01E000
03F000
07F800
0FFC00
1FFE00
3FFF00
7FFF80
7FFF80
3FFF00
1FFE00
0FFC00
07F800
03F000
01E000
00C000
000000
ENDCHAR
STARTCHAR uni25C7
ENCODING 9671
SWIDTH 1080 0
DWIDTH 18 0
BBX 18 18 0 -3
BITMAP
000000
00C000
012000
021000
040800
080400
100200
200100
400080
400080
200100
100200
080400
040800
021000
012000
00C000
000000
ENDCHAR
STARTCHAR circle
ENCODING 9675
SWIDTH 1080 0
DWIDTH 18 0
BBX 18 18 0 -3
BITMAP
000000
000000
01E000
061800
080400
100200
100200
200100
200100
200100
200100
100200
100200
080400
061800
01E000
000000
000000
ENDCHAR
STARTCHAR uni25CE
ENCODING 9678
SWIDTH 1080 0
DWIDTH 18 0
BBX 18 18 0 -3
BITMAP
000000
000000
01E000
061800
080400
11E200
121200
240900
240900
240900
240900
121200
11E200
080400
061800
01E000
000000
000000
ENDCHAR
STARTCHAR H18533
ENCODING 9679
SWIDTH 1080 0
DWIDTH 18 0
BBX 18 18 0 -3
BITMAP
000000
000000
01E000
07F800
0FFC00
1FFE00
1FFE00
3FFF00
3FFF00
3FFF00
3FFF00
1FFE00
1FFE00
0FFC00
07F800
01E000
000000
000000
ENDCHAR
STARTCHAR uni25EF
ENCODING 9711
SWIDTH 1080 0
DWIDTH 18 0
BBX 18 18 0 -3
BITMAP
000000
01E000
061800
080400
100200
200100
200100
400080
400080
400080
400080
200100
200100
100200
080400
061800
01E000
000000
ENDCHAR
STARTCHAR uni2605
ENCODING 9733
SWIDTH 1080 0
DWIDTH 18 0
BBX 18 18 0 -3
BITMAP
000000
000000
008000
008000
01C000
01C000
03E000
3FFE00
1FFC00
0FF800
07F000
07F000
0F7800
0E3800
1C1C00
100400
000000
000000
ENDCHAR
STARTCHAR uni2606
ENCODING 9734
SWIDTH 1080 0
DWIDTH 18 0
BBX 18 18 0 -3
BITMAP
000000
000000
008000
014000
014000
022000
022000
3E3E00
100400
080800
041000
041000
088800
094800
163400
180C00
000000
000000
ENDCHAR
STARTCHAR female
ENCODING 9792
SWIDTH 1080 0
DWIDTH 18 0
BBX 18 18 0 -3
BITMAP
000000
000000
01E000
021000
040800
040800
040800
040800
021000
01E000
008000
0FFC00
008000
008000
008000
008000
008000
000000
ENDCHAR
STARTCHAR male
ENCODING 9794
SWIDTH 1080 0
DWIDTH 18 0
BBX 18 18 0 -3
BITMAP
000000
000000
007F00
000300
000500
000900
001100
002100
0F4100
108000
204000
204000
204000
204000
108000
0F0000
000000
000000
ENDCHAR
STARTCHAR musicalnote
ENCODING 9834
SWIDTH 1080 0
DWIDTH 18 0
BBX 18 18 0 -3
BITMAP
000000
004000
004000
006000
007000
005800
004C00
004600
004200
004200
004400
004800
004000
07C000
0FC000
0F8000
070000
000000
ENDCHAR
STARTCHAR uni266D
ENCODING 9837
SWIDTH 1080 0
DWIDTH 18 0
BBX 18 18 0 -3
BITMAP
000000
020000
020000
020000
020000
020000
020000
02F000
031800
021800
021800
021800
023000
026000
028000
030000
020000
000000
ENDCHAR
STARTCHAR uni266F
ENCODING 9839
SWIDTH 1080 0
DWIDTH 18 0
BBX 18 18 0 -3
BITMAP
000000
001000
021000
021000
021E00
03FE00
1FF000
1E1000
021000
021000
021E00
03FE00
1FF000
1E1000
021000
021000
020000
000000
ENDCHAR
STARTCHAR uni2800
ENCODING 10240
SWIDTH 1080 0
DWIDTH 18 0
BBX 18 18 0 -3
BITMAP
000000
000000
000000
000000
000000
000000
000000
000000
000000
000000
000000
000000
000000
000000
000000
000000
000000
00000E
ENDCHAR
STARTCHAR uni2801
ENCODING 10241
SWIDTH 1080 0
DWIDTH 18 0
BBX 18 18 0 -3
BITMAP
000000
000000
020000
070000
020000
000000
000000
000000
000000
000000
000000
000000
000000
000000
000000
000000
000000
00000E
ENDCHAR
STARTCHAR uni2802
ENCODING 10242
SWIDTH 1080 0
DWIDTH 18 0
BBX 18 18 0 -3
BITMAP
000000
000000
000000
000000
000000
000000
020000
070000
020000
000000
000000
000000
000000
000000
000000
000000
000000
00000E
ENDCHAR
STARTCHAR uni2803
ENCODING 10243
SWIDTH 1080 0
DWIDTH 18 0
BBX 18 18 0 -3
BITMAP
000000
000000
020000
070000
020000
000000
020000
070000
020000
000000
000000
000000
000000
000000
000000
000000
000000
00000E
ENDCHAR
STARTCHAR uni2804
ENCODING 10244
SWIDTH 1080 0
DWIDTH 18 0
BBX 18 18 0 -3
BITMAP
000000
000000
000000
000000
000000
000000
000000
000000
000000
000000
020000
070000
020000
000000
000000
000000
000000
00000E
ENDCHAR
STARTCHAR uni2805
ENCODING 10245
SWIDTH 1080 0
DWIDTH 18 0
BBX 18 18 0 -3
BITMAP
000000
000000
020000
070000
020000
000000
000000
000000
000000
000000
020000
070000
020000
000000
000000
000000
000000
00000E
ENDCHAR
STARTCHAR uni2806
ENCODING 10246
SWIDTH 1080 0
DWIDTH 18 0
BBX 18 18 0 -3
BITMAP
000000
000000
000000
000000
000000
000000
020000
070000
020000
000000
020000
070000
020000
000000
000000
000000
000000
00000E
ENDCHAR
STARTCHAR uni2807
ENCODING 10247
SWIDTH 1080 0
DWIDTH 18 0
BBX 18 18 0 -3
BITMAP
000000
000000
020000
070000
020000
000000
020000
070000
020000
000000
020000
070000
020000
000000
000000
000000
000000
00000E
ENDCHAR
STARTCHAR uni2808
ENCODING 10248
SWIDTH 1080 0
DWIDTH 18 0
BBX 18 18 0 -3
BITMAP
000000
000000
001000
003800
001000
000000
000000
000000
000000
000000
000000
000000
000000
000000
000000
000000
000000
00000E
ENDCHAR
STARTCHAR uni2809
ENCODING 10249
SWIDTH 1080 0
DWIDTH 18 0
BBX 18 18 0 -3
BITMAP
000000
000000
021000
073800
021000
000000
000000
000000
000000
000000
000000
000000
000000
000000
000000
000000
000000
00000E
ENDCHAR
STARTCHAR uni280A
ENCODING 10250
SWIDTH 1080 0
DWIDTH 18 0
BBX 18 18 0 -3
BITMAP
000000
000000
001000
003800
001000
000000
020000
070000
020000
000000
000000
000000
000000
000000
000000
000000
000000
00000E
ENDCHAR
STARTCHAR uni280B
ENCODING 10251
SWIDTH 1080 0
DWIDTH 18 0
BBX 18 18 0 -3
BITMAP
000000
000000
021000
073800
021000
000000
020000
070000
020000
000000
000000
000000
000000
000000
000000
000000
000000
00000E
ENDCHAR
STARTCHAR uni280C
ENCODING 10252
SWIDTH 1080 0
DWIDTH 18 0
BBX 18 18 0 -3
BITMAP
000000
000000
001000
003800
001000
000000
000000
000000
000000
000000
020000
070000
020000
000000
000000
000000
000000
00000E
ENDCHAR
STARTCHAR uni280D
ENCODING 10253
SWIDTH 1080 0
DWIDTH 18 0
BBX 18 18 0 -3
BITMAP
000000
000000
021000
073800
021000
000000
000000
000000
000000
000000
020000
070000
020000
000000
000000
000000
000000
00000E
ENDCHAR
STARTCHAR uni280E
ENCODING 10254
SWIDTH 1080 0
DWIDTH 18 0
BBX 18 18 0 -3
BITMAP
000000
000000
001000
003800
001000
000000
020000
070000
020000
000000
020000
070000
020000
000000
000000
000000
000000
00000E
ENDCHAR
STARTCHAR uni280F
ENCODING 10255
SWIDTH 1080 0
DWIDTH 18 0
BBX 18 18 0 -3
BITMAP
000000
000000
021000
073800
021000
000000
020000
070000
020000
000000
020000
070000
020000
000000
000000
000000
000000
00000E
ENDCHAR
STARTCHAR uni2810
ENCODING 10256
SWIDTH 1080 0
DWIDTH 18 0
BBX 18 18 0 -3
BITMAP
000000
000000
000000
000000
000000
000000
001000
003800
001000
000000
000000
000000
000000
000000
000000
000000
000000
00000E
ENDCHAR
STARTCHAR uni2811
ENCODING 10257
SWIDTH 1080 0
DWIDTH 18 0
BBX 18 18 0 -3
BITMAP
000000
000000
020000
070000
020000
000000
001000
003800
001000
000000
000000
000000
000000
000000
000000
000000
000000
00000E
ENDCHAR
STARTCHAR uni2812
ENCODING 10258
SWIDTH 1080 0
DWIDTH 18 0
BBX 18 18 0 -3
BITMAP
000000
000000
000000
000000
000000
000000
021000
073800
021000
000000
000000
000000
000000
000000
000000
000000
000000
00000E
ENDCHAR
STARTCHAR uni2813
ENCODING 10259
SWIDTH 1080 0
DWIDTH 18 0
BBX 18 18 0 -3
BITMAP
000000
000000
020000
070000
020000
000000
021000
073800
021000
000000
000000
000000
000000
000000
000000
000000
000000
00000E
ENDCHAR
STARTCHAR uni2814
ENCODING 10260
SWIDTH 1080 0
DWIDTH 18 0
BBX 18 18 0 -3
BITMAP
000000
000000
000000
000000
000000
000000
001000
003800
001000
000000
020000
070000
020000
000000
000000
000000
000000
00000E
ENDCHAR
STARTCHAR uni2815
ENCODING 10261
SWIDTH 1080 0
DWIDTH 18 0
BBX 18 18 0 -3
BITMAP
000000
000000
020000
070000
020000
000000
001000
003800
001000
000000
020000
070000
020000
000000
000000
000000
000000
00000E
ENDCHAR
STARTCHAR uni2816
ENCODING 10262
SWIDTH 1080 0
DWIDTH 18 0
BBX 18 18 0 -3
BITMAP
000000
000000
000000
000000
000000
000000
021000
073800
021000
000000
020000
070000
020000
000000
000000
000000
000000
00000E
ENDCHAR
STARTCHAR uni2817
ENCODING 10263
SWIDTH 1080 0
DWIDTH 18 0
BBX 18 18 0 -3
BITMAP
000000
000000
020000
070000
020000
000000
021000
073800
021000
000000
020000
070000
020000
000000
000000
000000
000000
00000E
ENDCHAR
STARTCHAR uni2818
ENCODING 10264
SWIDTH 1080 0
DWIDTH 18 0
BBX 18 18 0 -3
BITMAP
000000
000000
001000
003800
001000
000000
001000
003800
001000
000000
000000
000000
000000
000000
000000
000000
000000
00000E
ENDCHAR
STARTCHAR uni2819
ENCODING 10265
SWIDTH 1080 0
DWIDTH 18 0
BBX 18 18 0 -3
BITMAP
000000
000000
021000
073800
021000
000000
001000
003800
001000
000000
000000
000000
000000
000000
000000
000000
000000
00000E
ENDCHAR
STARTCHAR uni281A
ENCODING 10266
SWIDTH 1080 0
DWIDTH 18 0
BBX 18 18 0 -3
BITMAP
000000
000000
001000
003800
001000
000000
021000
073800
021000
000000
000000
000000
000000
000000
000000
000000
000000
00000E
ENDCHAR
STARTCHAR uni281B
ENCODING 10267
SWIDTH 1080 0
DWIDTH 18 0
BBX 18 18 0 -3
BITMAP
000000
000000
021000
073800
021000
000000
021000
073800
021000
000000
000000
000000
000000
000000
000000
000000
000000
00000E
ENDCHAR
STARTCHAR uni281C
ENCODING 10268
SWIDTH 1080 0
DWIDTH 18 0
BBX 18 18 0 -3
BITMAP
000000
000000
001000
003800
001000
000000
001000
003800
001000
000000
020000
070000
020000
000000
000000
000000
000000
00000E
ENDCHAR
STARTCHAR uni281D
ENCODING 10269
SWIDTH 1080 0
DWIDTH 18 0
BBX 18 18 0 -3
BITMAP
000000
000000
021000
073800
021000
000000
001000
003800
001000
000000
020000
070000
020000
000000
000000
000000
000000
00000E
ENDCHAR
STARTCHAR uni281E
ENCODING 10270
SWIDTH 1080 0
DWIDTH 18 0
BBX 18 18 0 -3
BITMAP
000000
000000
001000
003800
001000
000000
021000
073800
021000
000000
020000
070000
020000
000000
000000
000000
000000
00000E
ENDCHAR
STARTCHAR uni281F
ENCODING 10271
SWIDTH 1080 0
DWIDTH 18 0
BBX 18 18 0 -3
BITMAP
000000
000000
021000
073800
021000
000000
021000
073800
021000
000000
020000
070000
020000
000000
000000
000000
000000
00000E
ENDCHAR
STARTCHAR uni2820
ENCODING 10272
SWIDTH 1080 0
DWIDTH 18 0
BBX 18 18 0 -3
BITMAP
000000
000000
000000
000000
000000
000000
000000
000000
000000
000000
001000
003800
001000
000000
000000
000000
000000
00000E
ENDCHAR
STARTCHAR uni2821
ENCODING 10273
SWIDTH 1080 0
DWIDTH 18 0
BBX 18 18 0 -3
BITMAP
000000
000000
020000
070000
020000
000000
000000
000000
000000
000000
001000
003800
001000
000000
000000
000000
000000
00000E
ENDCHAR
STARTCHAR uni2822
ENCODING 10274
SWIDTH 1080 0
DWIDTH 18 0
BBX 18 18 0 -3
BITMAP
000000
000000
000000
000000
000000
000000
020000
070000
020000
000000
001000
003800
001000
000000
000000
000000
000000
00000E
ENDCHAR
STARTCHAR uni2823
ENCODING 10275
SWIDTH 1080 0
DWIDTH 18 0
BBX 18 18 0 -3
BITMAP
000000
000000
020000
070000
020000
000000
020000
070000
020000
000000
001000
003800
001000
000000
000000
000000
000000
00000E
ENDCHAR
STARTCHAR uni2824
ENCODING 10276
SWIDTH 1080 0
DWIDTH 18 0
BBX 18 18 0 -3
BITMAP
000000
000000
000000
000000
000000
000000
000000
000000
000000
000000
021000
073800
021000
000000
000000
000000
000000
00000E
ENDCHAR
STARTCHAR uni2825
ENCODING 10277
SWIDTH 1080 0
DWIDTH 18 0
BBX 18 18 0 -3
BITMAP
000000
000000
020000
070000
020000
000000
000000
000000
000000
000000
021000
073800
021000
000000
000000
000000
000000
00000E
ENDCHAR
STARTCHAR uni2826
ENCODING 10278
SWIDTH 1080 0
DWIDTH 18 0
BBX 18 18 0 -3
BITMAP
000000
000000
000000
000000
000000
000000
020000
070000
020000
000000
021000
073800
021000
000000
000000
000000
000000
00000E
ENDCHAR
STARTCHAR uni2827
ENCODING 10279
SWIDTH 1080 0
DWIDTH 18 0
BBX 18 18 0 -3
BITMAP
000000
000000
020000
070000
020000
000000
020000
070000
020000
000000
021000
073800
021000
000000
000000
000000
000000
00000E
ENDCHAR
STARTCHAR uni2828
ENCODING 10280
SWIDTH 1080 0
DWIDTH 18 0
BBX 18 18 0 -3
BITMAP
000000
000000
001000
003800
001000
000000
000000
000000
000000
000000
001000
003800
001000
000000
000000
000000
000000
00000E
ENDCHAR
STARTCHAR uni2829
ENCODING 10281
SWIDTH 1080 0
DWIDTH 18 0
BBX 18 18 0 -3
BITMAP
000000
000000
021000
073800
021000
000000
000000
000000
000000
000000
001000
003800
001000
000000
000000
000000
000000
00000E
ENDCHAR
STARTCHAR uni282A
ENCODING 10282
SWIDTH 1080 0
DWIDTH 18 0
BBX 18 18 0 -3
BITMAP
000000
000000
001000
003800
001000
000000
020000
070000
020000
000000
001000
003800
001000
000000
000000
000000
000000
00000E
ENDCHAR
STARTCHAR uni282B
ENCODING 10283
SWIDTH 1080 0
DWIDTH 18 0
BBX 18 18 0 -3
BITMAP
000000
000000
021000
073800
021000
000000
020000
070000
020000
000000
001000
003800
001000
000000
000000
000000
000000
00000E
ENDCHAR
STARTCHAR uni282C
ENCODING 10284
SWIDTH 1080 0
DWIDTH 18 0
BBX 18 18 0 -3
BITMAP
000000
000000
001000
003800
001000
000000
000000
000000
000000
000000
021000
073800
021000
000000
000000
000000
000000
00000E
ENDCHAR
STARTCHAR uni282D
ENCODING 10285
SWIDTH 1080 0
DWIDTH 18 0
BBX 18 18 0 -3
BITMAP
000000
000000
021000
073800
021000
000000
000000
000000
000000
000000
021000
073800
021000
000000
000000
000000
000000
00000E
ENDCHAR
STARTCHAR uni282E
ENCODING 10286
SWIDTH 1080 0
DWIDTH 18 0
BBX 18 18 0 -3
BITMAP
000000
000000
001000
003800
001000
000000
020000
070000
020000
000000
021000
073800
021000
000000
000000
000000
000000
00000E
ENDCHAR
STARTCHAR uni282F
ENCODING 10287
SWIDTH 1080 0
DWIDTH 18 0
BBX 18 18 0 -3
BITMAP
000000
000000
021000
073800
021000
000000
020000
070000
020000
000000
021000
073800
021000
000000
000000
000000
000000
00000E
ENDCHAR
STARTCHAR uni2830
ENCODING 10288
SWIDTH 1080 0
DWIDTH 18 0
BBX 18 18 0 -3
BITMAP
000000
000000
000000
000000
000000
000000
001000
003800
001000
000000
001000
003800
001000
000000
000000
000000
000000
00000E
ENDCHAR
STARTCHAR uni2831
ENCODING 10289
SWIDTH 1080 0
DWIDTH 18 0
BBX 18 18 0 -3
BITMAP
000000
000000
020000
070000
020000
000000
001000
003800
001000
000000
001000
003800
001000
000000
000000
000000
000000
00000E
ENDCHAR
STARTCHAR uni2832
ENCODING 10290
SWIDTH 1080 0
DWIDTH 18 0
BBX 18 18 0 -3
BITMAP
000000
000000
000000
000000
000000
000000
021000
073800
021000
000000
001000
003800
001000
000000
000000
000000
000000
00000E
ENDCHAR
STARTCHAR uni2833
ENCODING 10291
SWIDTH 1080 0
DWIDTH 18 0
BBX 18 18 0 -3
BITMAP
000000
000000
020000
070000
020000
000000
021000
073800
021000
000000
001000
003800
001000
000000
000000
000000
000000
00000E
ENDCHAR
STARTCHAR uni2834
ENCODING 10292
SWIDTH 1080 0
DWIDTH 18 0
BBX 18 18 0 -3
BITMAP
000000
000000
000000
000000
000000
000000
001000
003800
001000
000000
021000
073800
021000
000000
000000
000000
000000
00000E
ENDCHAR
STARTCHAR uni2835
ENCODING 10293
SWIDTH 1080 0
DWIDTH 18 0
BBX 18 18 0 -3
BITMAP
000000
000000
020000
070000
020000
000000
001000
003800
001000
000000
021000
073800
021000
000000
000000
000000
000000
00000E
ENDCHAR
STARTCHAR uni2836
ENCODING 10294
SWIDTH 1080 0
DWIDTH 18 0
BBX 18 18 0 -3
BITMAP
000000
000000
000000
000000
000000
000000
021000
073800
021000
000000
021000
073800
021000
000000
000000
000000
000000
00000E
ENDCHAR
STARTCHAR uni2837
ENCODING 10295
SWIDTH 1080 0
DWIDTH 18 0
BBX 18 18 0 -3
BITMAP
000000
000000
020000
070000
020000
000000
021000
073800
021000
000000
021000
073800
021000
000000
000000
000000
000000
00000E
ENDCHAR
STARTCHAR uni2838
ENCODING 10296
SWIDTH 1080 0
DWIDTH 18 0
BBX 18 18 0 -3
BITMAP
000000
000000
001000
003800
001000
000000
001000
003800
001000
000000
001000
003800
001000
000000
000000
000000
000000
00000E
ENDCHAR
STARTCHAR uni2839
ENCODING 10297
SWIDTH 1080 0
DWIDTH 18 0
BBX 18 18 0 -3
BITMAP
000000
000000
021000
073800
021000
000000
001000
003800
001000
000000
001000
003800
001000
000000
000000
000000
000000
00000E
ENDCHAR
STARTCHAR uni283A
ENCODING 10298
SWIDTH 1080 0
DWIDTH 18 0
BBX 18 18 0 -3
BITMAP
000000
000000
001000
003800
001000
000000
021000
073800
021000
000000
001000
003800
001000
000000
000000
000000
000000
00000E
ENDCHAR
STARTCHAR uni283B
ENCODING 10299
SWIDTH 1080 0
DWIDTH 18 0
BBX 18 18 0 -3
BITMAP
000000
000000
021000
073800
021000
000000
021000
073800
021000
000000
001000
003800
001000
000000
000000
000000
000000
00000E
ENDCHAR
STARTCHAR uni283C
ENCODING 10300
SWIDTH 1080 0
DWIDTH 18 0
BBX 18 18 0 -3
BITMAP
000000
000000
001000
003800
001000
000000
001000
003800
001000
000000
021000
073800
021000
000000
000000
000000
000000
00000E
ENDCHAR
STARTCHAR uni283D
ENCODING 10301
SWIDTH 1080 0
DWIDTH 18 0
BBX 18 18 0 -3
BITMAP
000000
000000
021000
073800
021000
000000
001000
003800
001000
000000
021000
073800
021000
000000
000000
000000
000000
00000E
ENDCHAR
STARTCHAR uni283E
ENCODING 10302
SWIDTH 1080 0
DWIDTH 18 0
BBX 18 18 0 -3
BITMAP
000000
000000
001000
003800
001000
000000
021000
073800
021000
000000
021000
073800
021000
000000
000000
000000
000000
00000E
ENDCHAR
STARTCHAR uni283F
ENCODING 10303
SWIDTH 1080 0
DWIDTH 18 0
BBX 18 18 0 -3
BITMAP
000000
000000
021000
073800
021000
000000
021000
073800
021000
000000
021000
073800
021000
000000
000000
000000
000000
00000E
ENDCHAR
STARTCHAR uni2840
ENCODING 10304
SWIDTH 1080 0
DWIDTH 18 0
BBX 18 18 0 -3
BITMAP
000000
000000
000000
000000
000000
000000
000000
000000
000000
000000
000000
000000
000000
000000
020000
070000
020000
00000E
ENDCHAR
STARTCHAR uni2841
ENCODING 10305
SWIDTH 1080 0
DWIDTH 18 0
BBX 18 18 0 -3
BITMAP
000000
000000
020000
070000
020000
000000
000000
000000
000000
000000
000000
000000
000000
000000
020000
070000
020000
00000E
ENDCHAR
STARTCHAR uni2842
ENCODING 10306
SWIDTH 1080 0
DWIDTH 18 0
BBX 18 18 0 -3
BITMAP
000000
000000
000000
000000
000000
000000
020000
070000
020000
000000
000000
000000
000000
000000
020000
070000
020000
00000E
ENDCHAR
STARTCHAR uni2843
ENCODING 10307
SWIDTH 1080 0
DWIDTH 18 0
BBX 18 18 0 -3
BITMAP
000000
000000
020000
070000
020000
000000
020000
070000
020000
000000
000000
000000
000000
000000
020000
070000
020000
00000E
ENDCHAR
STARTCHAR uni2844
ENCODING 10308
SWIDTH 1080 0
DWIDTH 18 0
BBX 18 18 0 -3
BITMAP
000000
000000
000000
000000
000000
000000
000000
000000
000000
000000
020000
070000
020000
000000
020000
070000
020000
00000E
ENDCHAR
STARTCHAR uni2845
ENCODING 10309
SWIDTH 1080 0
DWIDTH 18 0
BBX 18 18 0 -3
BITMAP
000000
000000
020000
070000
020000
000000
000000
000000
000000
000000
020000
070000
020000
000000
020000
070000
020000
00000E
ENDCHAR
STARTCHAR uni2846
ENCODING 10310
SWIDTH 1080 0
DWIDTH 18 0
BBX 18 18 0 -3
BITMAP
000000
000000
000000
000000
000000
000000
020000
070000
020000
000000
020000
070000
020000
000000
020000
070000
020000
00000E
ENDCHAR
STARTCHAR uni2847
ENCODING 10311
SWIDTH 1080 0
DWIDTH 18 0
BBX 18 18 0 -3
BITMAP
000000
000000
020000
070000
020000
000000
020000
070000
020000
000000
020000
070000
020000
000000
020000
070000
020000
00000E
ENDCHAR
STARTCHAR uni2848
ENCODING 10312
SWIDTH 1080 0
DWIDTH 18 0
BBX 18 18 0 -3
BITMAP
000000
000000
001000
003800
001000
000000
000000
000000
000000
000000
000000
000000
000000
000000
020000
070000
020000
00000E
ENDCHAR
STARTCHAR uni2849
ENCODING 10313
SWIDTH 1080 0
DWIDTH 18 0
BBX 18 18 0 -3
BITMAP
000000
000000
021000
073800
021000
000000
000000
000000
000000
000000
000000
000000
000000
000000
020000
070000
020000
00000E
ENDCHAR
STARTCHAR uni284A
ENCODING 10314
SWIDTH 1080 0
DWIDTH 18 0
BBX 18 18 0 -3
BITMAP
000000
000000
001000
003800
001000
000000
020000
070000
020000
000000
000000
000000
000000
000000
020000
070000
020000
00000E
ENDCHAR
STARTCHAR uni284B
ENCODING 10315
SWIDTH 1080 0
DWIDTH 18 0
BBX 18 18 0 -3
BITMAP
000000
000000
021000
073800
021000
000000
020000
070000
020000
000000
000000
000000
000000
000000
020000
070000
020000
00000E
ENDCHAR
STARTCHAR uni284C
ENCODING 10316
SWIDTH 1080 0
DWIDTH 18 0
BBX 18 18 0 -3
BITMAP
000000
000000
001000
003800
001000
000000
000000
000000
000000
000000
020000
070000
020000
000000
020000
070000
020000
00000E
ENDCHAR
STARTCHAR uni284D
ENCODING 10317
SWIDTH 1080 0
DWIDTH 18 0
BBX 18 18 0 -3
BITMAP
000000
000000
021000
073800
021000
000000
000000
000000
000000
000000
020000
070000
020000
000000
020000
070000
020000
00000E
ENDCHAR
STARTCHAR uni284E
ENCODING 10318
SWIDTH 1080 0
DWIDTH 18 0
BBX 18 18 0 -3
BITMAP
000000
000000
001000
003800
001000
000000
020000
070000
020000
000000
020000
070000
020000
000000
020000
070000
020000
00000E
ENDCHAR
STARTCHAR uni284F
ENCODING 10319
SWIDTH 1080 0
DWIDTH 18 0
BBX 18 18 0 -3
BITMAP
000000
000000
021000
073800
021000
000000
020000
070000
020000
000000
020000
070000
020000
000000
020000
070000
020000
00000E
ENDCHAR
STARTCHAR uni2850
ENCODING 10320
SWIDTH 1080 0
DWIDTH 18 0
BBX 18 18 0 -3
BITMAP
000000
000000
000000
000000
000000
000000
001000
003800
001000
000000
000000
000000
000000
000000
020000
070000
020000
00000E
ENDCHAR
STARTCHAR uni2851
ENCODING 10321
SWIDTH 1080 0
DWIDTH 18 0
BBX 18 18 0 -3
BITMAP
000000
000000
020000
070000
020000
000000
001000
003800
001000
000000
000000
000000
000000
000000
020000
070000
020000
00000E
ENDCHAR
STARTCHAR uni2852
ENCODING 10322
SWIDTH 1080 0
DWIDTH 18 0
BBX 18 18 0 -3
BITMAP
000000
000000
000000
000000
000000
000000
021000
073800
021000
000000
000000
000000
000000
000000
020000
070000
020000
00000E
ENDCHAR
STARTCHAR uni2853
ENCODING 10323
SWIDTH 1080 0
DWIDTH 18 0
BBX 18 18 0 -3
BITMAP
000000
000000
020000
070000
020000
000000
021000
073800
021000
000000
000000
000000
000000
000000
020000
070000
020000
00000E
ENDCHAR
STARTCHAR uni2854
ENCODING 10324
SWIDTH 1080 0
DWIDTH 18 0
BBX 18 18 0 -3
BITMAP
000000
000000
000000
000000
000000
000000
001000
003800
001000
000000
020000
070000
020000
000000
020000
070000
020000
00000E
ENDCHAR
STARTCHAR uni2855
ENCODING 10325
SWIDTH 1080 0
DWIDTH 18 0
BBX 18 18 0 -3
BITMAP
000000
000000
020000
070000
020000
000000
001000
003800
001000
000000
020000
070000
020000
000000
020000
070000
020000
00000E
ENDCHAR
STARTCHAR uni2856
ENCODING 10326
SWIDTH 1080 0
DWIDTH 18 0
BBX 18 18 0 -3
BITMAP
000000
000000
000000
000000
000000
000000
021000
073800
021000
000000
020000
070000
020000
000000
020000
070000
020000
00000E
ENDCHAR
STARTCHAR uni2857
ENCODING 10327
SWIDTH 1080 0
DWIDTH 18 0
BBX 18 18 0 -3
BITMAP
000000
000000
020000
070000
020000
000000
021000
073800
021000
000000
020000
070000
020000
000000
020000
070000
020000
00000E
ENDCHAR
STARTCHAR uni2858
ENCODING 10328
SWIDTH 1080 0
DWIDTH 18 0
BBX 18 18 0 -3
BITMAP
000000
000000
001000
003800
001000
000000
001000
003800
001000
000000
000000
000000
000000
000000
020000
070000
020000
00000E
ENDCHAR
STARTCHAR uni2859
ENCODING 10329
SWIDTH 1080 0
DWIDTH 18 0
BBX 18 18 0 -3
BITMAP
000000
000000
021000
073800
021000
000000
001000
003800
001000
000000
000000
000000
000000
000000
020000
070000
020000
00000E
ENDCHAR
STARTCHAR uni285A
ENCODING 10330
SWIDTH 1080 0
DWIDTH 18 0
BBX 18 18 0 -3
BITMAP
000000
000000
001000
003800
001000
000000
021000
073800
021000
000000
000000
000000
000000
000000
020000
070000
020000
00000E
ENDCHAR
STARTCHAR uni285B
ENCODING 10331
SWIDTH 1080 0
DWIDTH 18 0
BBX 18 18 0 -3
BITMAP
000000
000000
021000
073800
021000
000000
021000
073800
021000
000000
000000
000000
000000
000000
020000
070000
020000
00000E
ENDCHAR
STARTCHAR uni285C
ENCODING 10332
SWIDTH 1080 0
DWIDTH 18 0
BBX 18 18 0 -3
BITMAP
000000
000000
001000
003800
001000
000000
001000
003800
001000
000000
020000
070000
020000
000000
020000
070000
020000
00000E
ENDCHAR
STARTCHAR uni285D
ENCODING 10333
SWIDTH 1080 0
DWIDTH 18 0
BBX 18 18 0 -3
BITMAP
000000
000000
021000
073800
021000
000000
001000
003800
001000
000000
020000
070000
020000
000000
020000
070000
020000
00000E
ENDCHAR
STARTCHAR uni285E
ENCODING 10334
SWIDTH 1080 0
DWIDTH 18 0
BBX 18 18 0 -3
BITMAP
000000
000000
001000
003800
001000
000000
021000
073800
021000
000000
020000
070000
020000
000000
020000
070000
020000
00000E
ENDCHAR
STARTCHAR uni285F
ENCODING 10335
SWIDTH 1080 0
DWIDTH 18 0
BBX 18 18 0 -3
BITMAP
000000
000000
021000
073800
021000
000000
021000
073800
021000
000000
020000
070000
020000
000000
020000
070000
020000
00000E
ENDCHAR
STARTCHAR uni2860
ENCODING 10336
SWIDTH 1080 0
DWIDTH 18 0
BBX 18 18 0 -3
BITMAP
000000
000000
000000
000000
000000
000000
000000
000000
000000
000000
001000
003800
001000
000000
020000
070000
020000
00000E
ENDCHAR
STARTCHAR uni2861
ENCODING 10337
SWIDTH 1080 0
DWIDTH 18 0
BBX 18 18 0 -3
BITMAP
000000
000000
020000
070000
020000
000000
000000
000000
000000
000000
001000
003800
001000
000000
020000
070000
020000
00000E
ENDCHAR
STARTCHAR uni2862
ENCODING 10338
SWIDTH 1080 0
DWIDTH 18 0
BBX 18 18 0 -3
BITMAP
000000
000000
000000
000000
000000
000000
020000
070000
020000
000000
001000
003800
001000
000000
020000
070000
020000
00000E
ENDCHAR
STARTCHAR uni2863
ENCODING 10339
SWIDTH 1080 0
DWIDTH 18 0
BBX 18 18 0 -3
BITMAP
000000
000000
020000
070000
020000
000000
020000
070000
020000
000000
001000
003800
001000
000000
020000
070000
020000
00000E
ENDCHAR
STARTCHAR uni2864
ENCODING 10340
SWIDTH 1080 0
DWIDTH 18 0
BBX 18 18 0 -3
BITMAP
000000
000000
000000
000000
000000
000000
000000
000000
000000
000000
021000
073800
021000
000000
020000
070000
020000
00000E
ENDCHAR
STARTCHAR uni2865
ENCODING 10341
SWIDTH 1080 0
DWIDTH 18 0
BBX 18 18 0 -3
BITMAP
000000
000000
020000
070000
020000
000000
000000
000000
000000
000000
021000
073800
021000
000000
020000
070000
020000
00000E
ENDCHAR
STARTCHAR uni2866
ENCODING 10342
SWIDTH 1080 0
DWIDTH 18 0
BBX 18 18 0 -3
BITMAP
000000
000000
000000
000000
000000
000000
020000
070000
020000
000000
021000
073800
021000
000000
020000
070000
020000
00000E
ENDCHAR
STARTCHAR uni2867
ENCODING 10343
SWIDTH 1080 0
DWIDTH 18 0
BBX 18 18 0 -3
BITMAP
000000
000000
020000
070000
020000
000000
020000
070000
020000
000000
021000
073800
021000
000000
020000
070000
020000
00000E
ENDCHAR
STARTCHAR uni2868
ENCODING 10344
SWIDTH 1080 0
DWIDTH 18 0
BBX 18 18 0 -3
BITMAP
000000
000000
001000
003800
001000
000000
000000
000000
000000
000000
001000
003800
001000
000000
020000
070000
020000
00000E
ENDCHAR
STARTCHAR uni2869
ENCODING 10345
SWIDTH 1080 0
DWIDTH 18 0
BBX 18 18 0 -3
BITMAP
000000
000000
021000
073800
021000
000000
000000
000000
000000
000000
001000
003800
001000
000000
020000
070000
020000
00000E
ENDCHAR
STARTCHAR uni286A
ENCODING 10346
SWIDTH 1080 0
DWIDTH 18 0
BBX 18 18 0 -3
BITMAP
000000
000000
001000
003800
001000
000000
020000
070000
020000
000000
001000
003800
001000
000000
020000
070000
020000
00000E
ENDCHAR
STARTCHAR uni286B
ENCODING 10347
SWIDTH 1080 0
DWIDTH 18 0
BBX 18 18 0 -3
BITMAP
000000
000000
021000
073800
021000
000000
020000
070000
020000
000000
001000
003800
001000
000000
020000
070000
020000
00000E
ENDCHAR
STARTCHAR uni286C
ENCODING 10348
SWIDTH 1080 0
DWIDTH 18 0
BBX 18 18 0 -3
BITMAP
000000
000000
001000
003800
001000
000000
000000
000000
000000
000000
021000
073800
021000
000000
020000
070000
020000
00000E
ENDCHAR
STARTCHAR uni286D
ENCODING 10349
SWIDTH 1080 0
DWIDTH 18 0
BBX 18 18 0 -3
BITMAP
000000
000000
021000
073800
021000
000000
000000
000000
000000
000000
021000
073800
021000
000000
020000
070000
020000
00000E
ENDCHAR
STARTCHAR uni286E
ENCODING 10350
SWIDTH 1080 0
DWIDTH 18 0
BBX 18 18 0 -3
BITMAP
000000
000000
001000
003800
001000
000000
020000
070000
020000
000000
021000
073800
021000
000000
020000
070000
020000
00000E
ENDCHAR
STARTCHAR uni286F
ENCODING 10351
SWIDTH 1080 0
DWIDTH 18 0
BBX 18 18 0 -3
BITMAP
000000
000000
021000
073800
021000
000000
020000
070000
020000
000000
021000
073800
021000
000000
020000
070000
020000
00000E
ENDCHAR
STARTCHAR uni2870
ENCODING 10352
SWIDTH 1080 0
DWIDTH 18 0
BBX 18 18 0 -3
BITMAP
000000
000000
000000
000000
000000
000000
001000
003800
001000
000000
001000
003800
001000
000000
020000
070000
020000
00000E
ENDCHAR
STARTCHAR uni2871
ENCODING 10353
SWIDTH 1080 0
DWIDTH 18 0
BBX 18 18 0 -3
BITMAP
000000
000000
020000
070000
020000
000000
001000
003800
001000
000000
001000
003800
001000
000000
020000
070000
020000
00000E
ENDCHAR
STARTCHAR uni2872
ENCODING 10354
SWIDTH 1080 0
DWIDTH 18 0
BBX 18 18 0 -3
BITMAP
000000
000000
000000
000000
000000
000000
021000
073800
021000
000000
001000
003800
001000
000000
020000
070000
020000
00000E
ENDCHAR
STARTCHAR uni2873
ENCODING 10355
SWIDTH 1080 0
DWIDTH 18 0
BBX 18 18 0 -3
BITMAP
000000
000000
020000
070000
020000
000000
021000
073800
021000
000000
001000
003800
001000
000000
020000
070000
020000
00000E
ENDCHAR
STARTCHAR uni2874
ENCODING 10356
SWIDTH 1080 0
DWIDTH 18 0
BBX 18 18 0 -3
BITMAP
000000
000000
000000
000000
000000
000000
001000
003800
001000
000000
021000
073800
021000
000000
020000
070000
020000
00000E
ENDCHAR
STARTCHAR uni2875
ENCODING 10357
SWIDTH 1080 0
DWIDTH 18 0
BBX 18 18 0 -3
BITMAP
000000
000000
020000
070000
020000
000000
001000
003800
001000
000000
021000
073800
021000
000000
020000
070000
020000
00000E
ENDCHAR
STARTCHAR uni2876
ENCODING 10358
SWIDTH 1080 0
DWIDTH 18 0
BBX 18 18 0 -3
BITMAP
000000
000000
000000
000000
000000
000000
021000
073800
021000
000000
021000
073800
021000
000000
020000
070000
020000
00000E
ENDCHAR
STARTCHAR uni2877
ENCODING 10359
SWIDTH 1080 0
DWIDTH 18 0
BBX 18 18 0 -3
BITMAP
000000
000000
020000
070000
020000
000000
021000
073800
021000
000000
021000
073800
021000
000000
020000
070000
020000
00000E
ENDCHAR
STARTCHAR uni2878
ENCODING 10360
SWIDTH 1080 0
DWIDTH 18 0
BBX 18 18 0 -3
BITMAP
000000
000000
001000
003800
001000
000000
001000
003800
001000
000000
001000
003800
001000
000000
020000
070000
020000
00000E
ENDCHAR
STARTCHAR uni2879
ENCODING 10361
SWIDTH 1080 0
DWIDTH 18 0
BBX 18 18 0 -3
BITMAP
000000
000000
021000
073800
021000
000000
001000
003800
001000
000000
001000
003800
001000
000000
020000
070000
020000
00000E
ENDCHAR
STARTCHAR uni287A
ENCODING 10362
SWIDTH 1080 0
DWIDTH 18 0
BBX 18 18 0 -3
BITMAP
000000
000000
001000
003800
001000
000000
021000
073800
021000
000000
001000
003800
001000
000000
020000
070000
020000
00000E
ENDCHAR
STARTCHAR uni287B
ENCODING 10363
SWIDTH 1080 0
DWIDTH 18 0
BBX 18 18 0 -3
BITMAP
000000
000000
021000
073800
021000
000000
021000
073800
021000
000000
001000
003800
001000
000000
020000
070000
020000
00000E
ENDCHAR
STARTCHAR uni287C
ENCODING 10364
SWIDTH 1080 0
DWIDTH 18 0
BBX 18 18 0 -3
BITMAP
000000
000000
001000
003800
001000
000000
001000
003800
001000
000000
021000
073800
021000
000000
020000
070000
020000
00000E
ENDCHAR
STARTCHAR uni287D
ENCODING 10365
SWIDTH 1080 0
DWIDTH 18 0
BBX 18 18 0 -3
BITMAP
000000
000000
021000
073800
021000
000000
001000
003800
001000
000000
021000
073800
021000
000000
020000
070000
020000
00000E
ENDCHAR
STARTCHAR uni287E
ENCODING 10366
SWIDTH 1080 0
DWIDTH 18 0
BBX 18 18 0 -3
BITMAP
000000
000000
001000
003800
001000
000000
021000
073800
021000
000000
021000
073800
021000
000000
020000
070000
020000
00000E
ENDCHAR
STARTCHAR uni287F
ENCODING 10367
SWIDTH 1080 0
DWIDTH 18 0
BBX 18 18 0 -3
BITMAP
000000
000000
021000
073800
021000
000000
021000
073800
021000
000000
021000
073800
021000
000000
020000
070000
020000
00000E
ENDCHAR
STARTCHAR uni2880
ENCODING 10368
SWIDTH 1080 0
DWIDTH 18 0
BBX 18 18 0 -3
BITMAP
000000
000000
000000
000000
000000
000000
000000
000000
000000
000000
000000
000000
000000
000000
001000
003800
001000
00000E
ENDCHAR
STARTCHAR uni2881
ENCODING 10369
SWIDTH 1080 0
DWIDTH 18 0
BBX 18 18 0 -3
BITMAP
000000
000000
020000
070000
020000
000000
000000
000000
000000
000000
000000
000000
000000
000000
001000
003800
001000
00000E
ENDCHAR
STARTCHAR uni2882
ENCODING 10370
SWIDTH 1080 0
DWIDTH 18 0
BBX 18 18 0 -3
BITMAP
000000
000000
000000
000000
000000
000000
020000
070000
020000
000000
000000
000000
000000
000000
001000
003800
001000
00000E
ENDCHAR
STARTCHAR uni2883
ENCODING 10371
SWIDTH 1080 0
DWIDTH 18 0
BBX 18 18 0 -3
BITMAP
000000
000000
020000
070000
020000
000000
020000
070000
020000
000000
000000
000000
000000
000000
001000
003800
001000
00000E
ENDCHAR
STARTCHAR uni2884
ENCODING 10372
SWIDTH 1080 0
DWIDTH 18 0
BBX 18 18 0 -3
BITMAP
000000
000000
000000
000000
000000
000000
000000
000000
000000
000000
020000
070000
020000
000000
001000
003800
001000
00000E
ENDCHAR
STARTCHAR uni2885
ENCODING 10373
SWIDTH 1080 0
DWIDTH 18 0
BBX 18 18 0 -3
BITMAP
000000
000000
020000
070000
020000
000000
000000
000000
000000
000000
020000
070000
020000
000000
001000
003800
001000
00000E
ENDCHAR
STARTCHAR uni2886
ENCODING 10374
SWIDTH 1080 0
DWIDTH 18 0
BBX 18 18 0 -3
BITMAP
000000
000000
000000
000000
000000
000000
020000
070000
020000
000000
020000
070000
020000
000000
001000
003800
001000
00000E
ENDCHAR
STARTCHAR uni2887
ENCODING 10375
SWIDTH 1080 0
DWIDTH 18 0
BBX 18 18 0 -3
BITMAP
000000
000000
020000
070000
020000
000000
020000
070000
020000
000000
020000
070000
020000
000000
001000
003800
001000
00000E
ENDCHAR
STARTCHAR uni2888
ENCODING 10376
SWIDTH 1080 0
DWIDTH 18 0
BBX 18 18 0 -3
BITMAP
000000
000000
001000
003800
001000
000000
000000
000000
000000
000000
000000
000000
000000
000000
001000
003800
001000
00000E
ENDCHAR
STARTCHAR uni2889
ENCODING 10377
SWIDTH 1080 0
DWIDTH 18 0
BBX 18 18 0 -3
BITMAP
000000
000000
021000
073800
021000
000000
000000
000000
000000
000000
000000
000000
000000
000000
001000
003800
001000
00000E
ENDCHAR
STARTCHAR uni288A
ENCODING 10378
SWIDTH 1080 0
DWIDTH 18 0
BBX 18 18 0 -3
BITMAP
000000
000000
001000
003800
001000
000000
020000
070000
020000
000000
000000
000000
000000
000000
001000
003800
001000
00000E
ENDCHAR
STARTCHAR uni288B
ENCODING 10379
SWIDTH 1080 0
DWIDTH 18 0
BBX 18 18 0 -3
BITMAP
000000
000000
021000
073800
021000
000000
020000
070000
020000
000000
000000
000000
000000
000000
001000
003800
001000
00000E
ENDCHAR
STARTCHAR uni288C
ENCODING 10380
SWIDTH 1080 0
DWIDTH 18 0
BBX 18 18 0 -3
BITMAP
000000
000000
001000
003800
001000
000000
000000
000000
000000
000000
020000
070000
020000
000000
001000
003800
001000
00000E
ENDCHAR
STARTCHAR uni288D
ENCODING 10381
SWIDTH 1080 0
DWIDTH 18 0
BBX 18 18 0 -3
BITMAP
000000
000000
021000
073800
021000
000000
000000
000000
000000
000000
020000
070000
020000
000000
001000
003800
001000
00000E
ENDCHAR
STARTCHAR uni288E
ENCODING 10382
SWIDTH 1080 0
DWIDTH 18 0
BBX 18 18 0 -3
BITMAP
000000
000000
001000
003800
001000
000000
020000
070000
020000
000000
020000
070000
020000
000000
001000
003800
001000
00000E
ENDCHAR
STARTCHAR uni288F
ENCODING 10383
SWIDTH 1080 0
DWIDTH 18 0
BBX 18 18 0 -3
BITMAP
000000
000000
021000
073800
021000
000000
020000
070000
020000
000000
020000
070000
020000
000000
001000
003800
001000
00000E
ENDCHAR
STARTCHAR uni2890
ENCODING 10384
SWIDTH 1080 0
DWIDTH 18 0
BBX 18 18 0 -3
BITMAP
000000
000000
000000
000000
000000
000000
001000
003800
001000
000000
000000
000000
000000
000000
001000
003800
001000
00000E
ENDCHAR
STARTCHAR uni2891
ENCODING 10385
SWIDTH 1080 0
DWIDTH 18 0
BBX 18 18 0 -3
BITMAP
000000
000000
020000
070000
020000
000000
001000
003800
001000
000000
000000
000000
000000
000000
001000
003800
001000
00000E
ENDCHAR
STARTCHAR uni2892
ENCODING 10386
SWIDTH 1080 0
DWIDTH 18 0
BBX 18 18 0 -3
BITMAP
000000
000000
000000
000000
000000
000000
021000
073800
021000
000000
000000
000000
000000
000000
001000
003800
001000
00000E
ENDCHAR
STARTCHAR uni2893
ENCODING 10387
SWIDTH 1080 0
DWIDTH 18 0
BBX 18 18 0 -3
BITMAP
000000
000000
020000
070000
020000
000000
021000
073800
021000
000000
000000
000000
000000
000000
001000
003800
001000
00000E
ENDCHAR
STARTCHAR uni2894
ENCODING 10388
SWIDTH 1080 0
DWIDTH 18 0
BBX 18 18 0 -3
BITMAP
000000
000000
000000
000000
000000
000000
001000
003800
001000
000000
020000
070000
020000
000000
001000
003800
001000
00000E
ENDCHAR
STARTCHAR uni2895
ENCODING 10389
SWIDTH 1080 0
DWIDTH 18 0
BBX 18 18 0 -3
BITMAP
000000
000000
020000
070000
020000
000000
001000
003800
001000
000000
020000
070000
020000
000000
001000
003800
001000
00000E
ENDCHAR
STARTCHAR uni2896
ENCODING 10390
SWIDTH 1080 0
DWIDTH 18 0
BBX 18 18 0 -3
BITMAP
000000
000000
000000
000000
000000
000000
021000
073800
021000
000000
020000
070000
020000
000000
001000
003800
001000
00000E
ENDCHAR
STARTCHAR uni2897
ENCODING 10391
SWIDTH 1080 0
DWIDTH 18 0
BBX 18 18 0 -3
BITMAP
000000
000000
020000
070000
020000
000000
021000
073800
021000
000000
020000
070000
020000
000000
001000
003800
001000
00000E
ENDCHAR
STARTCHAR uni2898
ENCODING 10392
SWIDTH 1080 0
DWIDTH 18 0
BBX 18 18 0 -3
BITMAP
000000
000000
001000
003800
001000
000000
001000
003800
001000
000000
000000
000000
000000
000000
001000
003800
001000
00000E
ENDCHAR
STARTCHAR uni2899
ENCODING 10393
SWIDTH 1080 0
DWIDTH 18 0
BBX 18 18 0 -3
BITMAP
000000
000000
021000
073800
021000
000000
001000
003800
001000
000000
000000
000000
000000
000000
001000
003800
001000
00000E
ENDCHAR
STARTCHAR uni289A
ENCODING 10394
SWIDTH 1080 0
DWIDTH 18 0
BBX 18 18 0 -3
BITMAP
000000
000000
001000
003800
001000
000000
021000
073800
021000
000000
000000
000000
000000
000000
001000
003800
001000
00000E
ENDCHAR
STARTCHAR uni289B
ENCODING 10395
SWIDTH 1080 0
DWIDTH 18 0
BBX 18 18 0 -3
BITMAP
000000
000000
021000
073800
021000
000000
021000
073800
021000
000000
000000
000000
000000
000000
001000
003800
001000
00000E
ENDCHAR
STARTCHAR uni289C
ENCODING 10396
SWIDTH 1080 0
DWIDTH 18 0
BBX 18 18 0 -3
BITMAP
000000
000000
001000
003800
001000
000000
001000
003800
001000
000000
020000
070000
020000
000000
001000
003800
001000
00000E
ENDCHAR
STARTCHAR uni289D
ENCODING 10397
SWIDTH 1080 0
DWIDTH 18 0
BBX 18 18 0 -3
BITMAP
000000
000000
021000
073800
021000
000000
001000
003800
001000
000000
020000
070000
020000
000000
001000
003800
001000
00000E
ENDCHAR
STARTCHAR uni289E
ENCODING 10398
SWIDTH 1080 0
DWIDTH 18 0
BBX 18 18 0 -3
BITMAP
000000
000000
001000
003800
001000
000000
021000
073800
021000
000000
020000
070000
020000
000000
001000
003800
001000
00000E
ENDCHAR
STARTCHAR uni289F
ENCODING 10399
SWIDTH 1080 0
DWIDTH 18 0
BBX 18 18 0 -3
BITMAP
000000
000000
021000
073800
021000
000000
021000
073800
021000
000000
020000
070000
020000
000000
001000
003800
001000
00000E
ENDCHAR
STARTCHAR uni28A0
ENCODING 10400
SWIDTH 1080 0
DWIDTH 18 0
BBX 18 18 0 -3
BITMAP
000000
000000
000000
000000
000000
000000
000000
000000
000000
000000
001000
003800
001000
000000
001000
003800
001000
00000E
ENDCHAR
STARTCHAR uni28A1
ENCODING 10401
SWIDTH 1080 0
DWIDTH 18 0
BBX 18 18 0 -3
BITMAP
000000
000000
020000
070000
020000
000000
000000
000000
000000
000000
001000
003800
001000
000000
001000
003800
001000
00000E
ENDCHAR
STARTCHAR uni28A2
ENCODING 10402
SWIDTH 1080 0
DWIDTH 18 0
BBX 18 18 0 -3
BITMAP
000000
000000
000000
000000
000000
000000
020000
070000
020000
000000
001000
003800
001000
000000
001000
003800
001000
00000E
ENDCHAR
STARTCHAR uni28A3
ENCODING 10403
SWIDTH 1080 0
DWIDTH 18 0
BBX 18 18 0 -3
BITMAP
000000
000000
020000
070000
020000
000000
020000
070000
020000
000000
001000
003800
001000
000000
001000
003800
001000
00000E
ENDCHAR
STARTCHAR uni28A4
ENCODING 10404
SWIDTH 1080 0
DWIDTH 18 0
BBX 18 18 0 -3
BITMAP
000000
000000
000000
000000
000000
000000
000000
000000
000000
000000
021000
073800
021000
000000
001000
003800
001000
00000E
ENDCHAR
STARTCHAR uni28A5
ENCODING 10405
SWIDTH 1080 0
DWIDTH 18 0
BBX 18 18 0 -3
BITMAP
000000
000000
020000
070000
020000
000000
000000
000000
000000
000000
021000
073800
021000
000000
001000
003800
001000
00000E
ENDCHAR
STARTCHAR uni28A6
ENCODING 10406
SWIDTH 1080 0
DWIDTH 18 0
BBX 18 18 0 -3
BITMAP
000000
000000
000000
000000
000000
000000
020000
070000
020000
000000
021000
073800
021000
000000
001000
003800
001000
00000E
ENDCHAR
STARTCHAR uni28A7
ENCODING 10407
SWIDTH 1080 0
DWIDTH 18 0
BBX 18 18 0 -3
BITMAP
000000
000000
020000
070000
020000
000000
020000
070000
020000
000000
021000
073800
021000
000000
001000
003800
001000
00000E
ENDCHAR
STARTCHAR uni28A8
ENCODING 10408
SWIDTH 1080 0
DWIDTH 18 0
BBX 18 18 0 -3
BITMAP
000000
000000
001000
003800
001000
000000
000000
000000
000000
000000
001000
003800
001000
000000
001000
003800
001000
00000E
ENDCHAR
STARTCHAR uni28A9
ENCODING 10409
SWIDTH 1080 0
DWIDTH 18 0
BBX 18 18 0 -3
BITMAP
000000
000000
021000
073800
021000
000000
000000
000000
000000
000000
001000
003800
001000
000000
001000
003800
001000
00000E
ENDCHAR
STARTCHAR uni28AA
ENCODING 10410
SWIDTH 1080 0
DWIDTH 18 0
BBX 18 18 0 -3
BITMAP
000000
000000
001000
003800
001000
000000
020000
070000
020000
000000
001000
003800
001000
000000
001000
003800
001000
00000E
ENDCHAR
STARTCHAR uni28AB
ENCODING 10411
SWIDTH 1080 0
DWIDTH 18 0
BBX 18 18 0 -3
BITMAP
000000
000000
021000
073800
021000
000000
020000
070000
020000
000000
001000
003800
001000
000000
001000
003800
001000
00000E
ENDCHAR
STARTCHAR uni28AC
ENCODING 10412
SWIDTH 1080 0
DWIDTH 18 0
BBX 18 18 0 -3
BITMAP
000000
000000
001000
003800
001000
000000
000000
000000
000000
000000
021000
073800
021000
000000
001000
003800
001000
00000E
ENDCHAR
STARTCHAR uni28AD
ENCODING 10413
SWIDTH 1080 0
DWIDTH 18 0
BBX 18 18 0 -3
BITMAP
000000
000000
021000
073800
021000
000000
000000
000000
000000
000000
021000
073800
021000
000000
001000
003800
001000
00000E
ENDCHAR
STARTCHAR uni28AE
ENCODING 10414
SWIDTH 1080 0
DWIDTH 18 0
BBX 18 18 0 -3
BITMAP
000000
000000
001000
003800
001000
000000
020000
070000
020000
000000
021000
073800
021000
000000
001000
003800
001000
00000E
ENDCHAR
STARTCHAR uni28AF
ENCODING 10415
SWIDTH 1080 0
DWIDTH 18 0
BBX 18 18 0 -3
BITMAP
000000
000000
021000
073800
021000
000000
020000
070000
020000
000000
021000
073800
021000
000000
001000
003800
001000
00000E
ENDCHAR
STARTCHAR uni28B0
ENCODING 10416
SWIDTH 1080 0
DWIDTH 18 0
BBX 18 18 0 -3
BITMAP
000000
000000
000000
000000
000000
000000
001000
003800
001000
000000
001000
003800
001000
000000
001000
003800
001000
00000E
ENDCHAR
STARTCHAR uni28B1
ENCODING 10417
SWIDTH 1080 0
DWIDTH 18 0
BBX 18 18 0 -3
BITMAP
000000
000000
020000
070000
020000
000000
001000
003800
001000
000000
001000
003800
001000
000000
001000
003800
001000
00000E
ENDCHAR
STARTCHAR uni28B2
ENCODING 10418
SWIDTH 1080 0
DWIDTH 18 0
BBX 18 18 0 -3
BITMAP
000000
000000
000000
000000
000000
000000
021000
073800
021000
000000
001000
003800
001000
000000
001000
003800
001000
00000E
ENDCHAR
STARTCHAR uni28B3
ENCODING 10419
SWIDTH 1080 0
DWIDTH 18 0
BBX 18 18 0 -3
BITMAP
000000
000000
020000
070000
020000
000000
021000
073800
021000
000000
001000
003800
001000
000000
001000
003800
001000
00000E
ENDCHAR
STARTCHAR uni28B4
ENCODING 10420
SWIDTH 1080 0
DWIDTH 18 0
BBX 18 18 0 -3
BITMAP
000000
000000
000000
000000
000000
000000
001000
003800
001000
000000
021000
073800
021000
000000
001000
003800
001000
00000E
ENDCHAR
STARTCHAR uni28B5
ENCODING 10421
SWIDTH 1080 0
DWIDTH 18 0
BBX 18 18 0 -3
BITMAP
000000
000000
020000
070000
020000
000000
001000
003800
001000
000000
021000
073800
021000
000000
001000
003800
001000
00000E
ENDCHAR
STARTCHAR uni28B6
ENCODING 10422
SWIDTH 1080 0
DWIDTH 18 0
BBX 18 18 0 -3
BITMAP
000000
000000
000000
000000
000000
000000
021000
073800
021000
000000
021000
073800
021000
000000
001000
003800
001000
00000E
ENDCHAR
STARTCHAR uni28B7
ENCODING 10423
SWIDTH 1080 0
DWIDTH 18 0
BBX 18 18 0 -3
BITMAP
000000
000000
020000
070000
020000
000000
021000
073800
021000
000000
021000
073800
021000
000000
001000
003800
001000
00000E
ENDCHAR
STARTCHAR uni28B8
ENCODING 10424
SWIDTH 1080 0
DWIDTH 18 0
BBX 18 18 0 -3
BITMAP
000000
000000
001000
003800
001000
000000
001000
003800
001000
000000
001000
003800
001000
000000
001000
003800
001000
00000E
ENDCHAR
STARTCHAR uni28B9
ENCODING 10425
SWIDTH 1080 0
DWIDTH 18 0
BBX 18 18 0 -3
BITMAP
000000
000000
021000
073800
021000
000000
001000
003800
001000
000000
001000
003800
001000
000000
001000
003800
001000
00000E
ENDCHAR
STARTCHAR uni28BA
ENCODING 10426
SWIDTH 1080 0
DWIDTH 18 0
BBX 18 18 0 -3
BITMAP
000000
000000
001000
003800
001000
000000
021000
073800
021000
000000
001000
003800
001000
000000
001000
003800
001000
00000E
ENDCHAR
STARTCHAR uni28BB
ENCODING 10427
SWIDTH 1080 0
DWIDTH 18 0
BBX 18 18 0 -3
BITMAP
000000
000000
021000
073800
021000
000000
021000
073800
021000
000000
001000
003800
001000
000000
001000
003800
001000
00000E
ENDCHAR
STARTCHAR uni28BC
ENCODING 10428
SWIDTH 1080 0
DWIDTH 18 0
BBX 18 18 0 -3
BITMAP
000000
000000
001000
003800
001000
000000
001000
003800
001000
000000
021000
073800
021000
000000
001000
003800
001000
00000E
ENDCHAR
STARTCHAR uni28BD
ENCODING 10429
SWIDTH 1080 0
DWIDTH 18 0
BBX 18 18 0 -3
BITMAP
000000
000000
021000
073800
021000
000000
001000
003800
001000
000000
021000
073800
021000
000000
001000
003800
001000
00000E
ENDCHAR
STARTCHAR uni28BE
ENCODING 10430
SWIDTH 1080 0
DWIDTH 18 0
BBX 18 18 0 -3
BITMAP
000000
000000
001000
003800
001000
000000
021000
073800
021000
000000
021000
073800
021000
000000
001000
003800
001000
00000E
ENDCHAR
STARTCHAR uni28BF
ENCODING 10431
SWIDTH 1080 0
DWIDTH 18 0
BBX 18 18 0 -3
BITMAP
000000
000000
021000
073800
021000
000000
021000
073800
021000
000000
021000
073800
021000
000000
001000
003800
001000
00000E
ENDCHAR
STARTCHAR uni28C0
ENCODING 10432
SWIDTH 1080 0
DWIDTH 18 0
BBX 18 18 0 -3
BITMAP
000000
000000
000000
000000
000000
000000
000000
000000
000000
000000
000000
000000
000000
000000
021000
073800
021000
00000E
ENDCHAR
STARTCHAR uni28C1
ENCODING 10433
SWIDTH 1080 0
DWIDTH 18 0
BBX 18 18 0 -3
BITMAP
000000
000000
020000
070000
020000
000000
000000
000000
000000
000000
000000
000000
000000
000000
021000
073800
021000
00000E
ENDCHAR
STARTCHAR uni28C2
ENCODING 10434
SWIDTH 1080 0
DWIDTH 18 0
BBX 18 18 0 -3
BITMAP
000000
000000
000000
000000
000000
000000
020000
070000
020000
000000
000000
000000
000000
000000
021000
073800
021000
00000E
ENDCHAR
STARTCHAR uni28C3
ENCODING 10435
SWIDTH 1080 0
DWIDTH 18 0
BBX 18 18 0 -3
BITMAP
000000
000000
020000
070000
020000
000000
020000
070000
020000
000000
000000
000000
000000
000000
021000
073800
021000
00000E
ENDCHAR
STARTCHAR uni28C4
ENCODING 10436
SWIDTH 1080 0
DWIDTH 18 0
BBX 18 18 0 -3
BITMAP
000000
000000
000000
000000
000000
000000
000000
000000
000000
000000
020000
070000
020000
000000
021000
073800
021000
00000E
ENDCHAR
STARTCHAR uni28C5
ENCODING 10437
SWIDTH 1080 0
DWIDTH 18 0
BBX 18 18 0 -3
BITMAP
000000
000000
020000
070000
020000
000000
000000
000000
000000
000000
020000
070000
020000
000000
021000
073800
021000
00000E
ENDCHAR
STARTCHAR uni28C6
ENCODING 10438
SWIDTH 1080 0
DWIDTH 18 0
BBX 18 18 0 -3
BITMAP
000000
000000
000000
000000
000000
000000
020000
070000
020000
000000
020000
070000
020000
000000
021000
073800
021000
00000E
ENDCHAR
STARTCHAR uni28C7
ENCODING 10439
SWIDTH 1080 0
DWIDTH 18 0
BBX 18 18 0 -3
BITMAP
000000
000000
020000
070000
020000
000000
020000
070000
020000
000000
020000
070000
020000
000000
021000
073800
021000
00000E
ENDCHAR
STARTCHAR uni28C8
ENCODING 10440
SWIDTH 1080 0
DWIDTH 18 0
BBX 18 18 0 -3
BITMAP
000000
000000
001000
003800
001000
000000
000000
000000
000000
000000
000000
000000
000000
000000
021000
073800
021000
00000E
ENDCHAR
STARTCHAR uni28C9
ENCODING 10441
SWIDTH 1080 0
DWIDTH 18 0
BBX 18 18 0 -3
BITMAP
000000
000000
021000
073800
021000
000000
000000
000000
000000
000000
000000
000000
000000
000000
021000
073800
021000
00000E
ENDCHAR
STARTCHAR uni28CA
ENCODING 10442
SWIDTH 1080 0
DWIDTH 18 0
BBX 18 18 0 -3
BITMAP
000000
000000
001000
003800
001000
000000
020000
070000
020000
000000
000000
000000
000000
000000
021000
073800
021000
00000E
ENDCHAR
STARTCHAR uni28CB
ENCODING 10443
SWIDTH 1080 0
DWIDTH 18 0
BBX 18 18 0 -3
BITMAP
000000
000000
021000
073800
021000
000000
020000
070000
020000
000000
000000
000000
000000
000000
021000
073800
021000
00000E
ENDCHAR
STARTCHAR uni28CC
ENCODING 10444
SWIDTH 1080 0
DWIDTH 18 0
BBX 18 18 0 -3
BITMAP
000000
000000
001000
003800
001000
000000
000000
000000
000000
000000
020000
070000
020000
000000
021000
073800
021000
00000E
ENDCHAR
STARTCHAR uni28CD
ENCODING 10445
SWIDTH 1080 0
DWIDTH 18 0
BBX 18 18 0 -3
BITMAP
000000
000000
021000
073800
021000
000000
000000
000000
000000
000000
020000
070000
020000
000000
021000
073800
021000
00000E
ENDCHAR
STARTCHAR uni28CE
ENCODING 10446
SWIDTH 1080 0
DWIDTH 18 0
BBX 18 18 0 -3
BITMAP
000000
000000
001000
003800
001000
000000
020000
070000
020000
000000
020000
070000
020000
000000
021000
073800
021000
00000E
ENDCHAR
STARTCHAR uni28CF
ENCODING 10447
SWIDTH 1080 0
DWIDTH 18 0
BBX 18 18 0 -3
BITMAP
000000
000000
021000
073800
021000
000000
020000
070000
020000
000000
020000
070000
020000
000000
021000
073800
021000
00000E
ENDCHAR
STARTCHAR uni28D0
ENCODING 10448
SWIDTH 1080 0
DWIDTH 18 0
BBX 18 18 0 -3
BITMAP
000000
000000
000000
000000
000000
000000
001000
003800
001000
000000
000000
000000
000000
000000
021000
073800
021000
00000E
ENDCHAR
STARTCHAR uni28D1
ENCODING 10449
SWIDTH 1080 0
DWIDTH 18 0
BBX 18 18 0 -3
BITMAP
000000
000000
020000
070000
020000
000000
001000
003800
001000
000000
000000
000000
000000
000000
021000
073800
021000
00000E
ENDCHAR
STARTCHAR uni28D2
ENCODING 10450
SWIDTH 1080 0
DWIDTH 18 0
BBX 18 18 0 -3
BITMAP
000000
000000
000000
000000
000000
000000
021000
073800
021000
000000
000000
000000
000000
000000
021000
073800
021000
00000E
ENDCHAR
STARTCHAR uni28D3
ENCODING 10451
SWIDTH 1080 0
DWIDTH 18 0
BBX 18 18 0 -3
BITMAP
000000
000000
020000
070000
020000
000000
021000
073800
021000
000000
000000
000000
000000
000000
021000
073800
021000
00000E
ENDCHAR
STARTCHAR uni28D4
ENCODING 10452
SWIDTH 1080 0
DWIDTH 18 0
BBX 18 18 0 -3
BITMAP
000000
000000
000000
000000
000000
000000
001000
003800
001000
000000
020000
070000
020000
000000
021000
073800
021000
00000E
ENDCHAR
STARTCHAR uni28D5
ENCODING 10453
SWIDTH 1080 0
DWIDTH 18 0
BBX 18 18 0 -3
BITMAP
000000
000000
020000
070000
020000
000000
001000
003800
001000
000000
020000
070000
020000
000000
021000
073800
021000
00000E
ENDCHAR
STARTCHAR uni28D6
ENCODING 10454
SWIDTH 1080 0
DWIDTH 18 0
BBX 18 18 0 -3
BITMAP
000000
000000
000000
000000
000000
000000
021000
073800
021000
000000
020000
070000
020000
000000
021000
073800
021000
00000E
ENDCHAR
STARTCHAR uni28D7
ENCODING 10455
SWIDTH 1080 0
DWIDTH 18 0
BBX 18 18 0 -3
BITMAP
000000
000000
020000
070000
020000
000000
021000
073800
021000
000000
020000
070000
020000
000000
021000
073800
021000
00000E
ENDCHAR
STARTCHAR uni28D8
ENCODING 10456
SWIDTH 1080 0
DWIDTH 18 0
BBX 18 18 0 -3
BITMAP
000000
000000
001000
003800
001000
000000
001000
003800
001000
000000
000000
000000
000000
000000
021000
073800
021000
00000E
ENDCHAR
STARTCHAR uni28D9
ENCODING 10457
SWIDTH 1080 0
DWIDTH 18 0
BBX 18 18 0 -3
BITMAP
000000
000000
021000
073800
021000
000000
001000
003800
001000
000000
000000
000000
000000
000000
021000
073800
021000
00000E
ENDCHAR
STARTCHAR uni28DA
ENCODING 10458
SWIDTH 1080 0
DWIDTH 18 0
BBX 18 18 0 -3
BITMAP
000000
000000
001000
003800
001000
000000
021000
073800
021000
000000
000000
000000
000000
000000
021000
073800
021000
00000E
ENDCHAR
STARTCHAR uni28DB
ENCODING 10459
SWIDTH 1080 0
DWIDTH 18 0
BBX 18 18 0 -3
BITMAP
000000
000000
021000
073800
021000
000000
021000
073800
021000
000000
000000
000000
000000
000000
021000
073800
021000
00000E
ENDCHAR
STARTCHAR uni28DC
ENCODING 10460
SWIDTH 1080 0
DWIDTH 18 0
BBX 18 18 0 -3
BITMAP
000000
000000
001000
003800
001000
000000
001000
003800
001000
000000
020000
070000
020000
000000
021000
073800
021000
00000E
ENDCHAR
STARTCHAR uni28DD
ENCODING 10461
SWIDTH 1080 0
DWIDTH 18 0
BBX 18 18 0 -3
BITMAP
000000
000000
021000
073800
021000
000000
001000
003800
001000
000000
020000
070000
020000
000000
021000
073800
021000
00000E
ENDCHAR
STARTCHAR uni28DE
ENCODING 10462
SWIDTH 1080 0
DWIDTH 18 0
BBX 18 18 0 -3
BITMAP
000000
000000
001000
003800
001000
000000
021000
073800
021000
000000
020000
070000
020000
000000
021000
073800
021000
00000E
ENDCHAR
STARTCHAR uni28DF
ENCODING 10463
SWIDTH 1080 0
DWIDTH 18 0
BBX 18 18 0 -3
BITMAP
000000
000000
021000
073800
021000
000000
021000
073800
021000
000000
020000
070000
020000
000000
021000
073800
021000
00000E
ENDCHAR
STARTCHAR uni28E0
ENCODING 10464
SWIDTH 1080 0
DWIDTH 18 0
BBX 18 18 0 -3
BITMAP
000000
000000
000000
000000
000000
000000
000000
000000
000000
000000
001000
003800
001000
000000
021000
073800
021000
00000E
ENDCHAR
STARTCHAR uni28E1
ENCODING 10465
SWIDTH 1080 0
DWIDTH 18 0
BBX 18 18 0 -3
BITMAP
000000
000000
020000
070000
020000
000000
000000
000000
000000
000000
001000
003800
001000
000000
021000
073800
021000
00000E
ENDCHAR
STARTCHAR uni28E2
ENCODING 10466
SWIDTH 1080 0
DWIDTH 18 0
BBX 18 18 0 -3
BITMAP
000000
000000
000000
000000
000000
000000
020000
070000
020000
000000
001000
003800
001000
000000
021000
073800
021000
00000E
ENDCHAR
STARTCHAR uni28E3
ENCODING 10467
SWIDTH 1080 0
DWIDTH 18 0
BBX 18 18 0 -3
BITMAP
000000
000000
020000
070000
020000
000000
020000
070000
020000
000000
001000
003800
001000
000000
021000
073800
021000
00000E
ENDCHAR
STARTCHAR uni28E4
ENCODING 10468
SWIDTH 1080 0
DWIDTH 18 0
BBX 18 18 0 -3
BITMAP
000000
000000
000000
000000
000000
000000
000000
000000
000000
000000
021000
073800
021000
000000
021000
073800
021000
00000E
ENDCHAR
STARTCHAR uni28E5
ENCODING 10469
SWIDTH 1080 0
DWIDTH 18 0
BBX 18 18 0 -3
BITMAP
000000
000000
020000
070000
020000
000000
000000
000000
000000
000000
021000
073800
021000
000000
021000
073800
021000
00000E
ENDCHAR
STARTCHAR uni28E6
ENCODING 10470
SWIDTH 1080 0
DWIDTH 18 0
BBX 18 18 0 -3
BITMAP
000000
000000
000000
000000
000000
000000
020000
070000
020000
000000
021000
073800
021000
000000
021000
073800
021000
00000E
ENDCHAR
STARTCHAR uni28E7
ENCODING 10471
SWIDTH 1080 0
DWIDTH 18 0
BBX 18 18 0 -3
BITMAP
000000
000000
020000
070000
020000
000000
020000
070000
020000
000000
021000
073800
021000
000000
021000
073800
021000
00000E
ENDCHAR
STARTCHAR uni28E8
ENCODING 10472
SWIDTH 1080 0
DWIDTH 18 0
BBX 18 18 0 -3
BITMAP
000000
000000
001000
003800
001000
000000
000000
000000
000000
000000
001000
003800
001000
000000
021000
073800
021000
00000E
ENDCHAR
STARTCHAR uni28E9
ENCODING 10473
SWIDTH 1080 0
DWIDTH 18 0
BBX 18 18 0 -3
BITMAP
000000
000000
021000
073800
021000
000000
000000
000000
000000
000000
001000
003800
001000
000000
021000
073800
021000
00000E
ENDCHAR
STARTCHAR uni28EA
ENCODING 10474
SWIDTH 1080 0
DWIDTH 18 0
BBX 18 18 0 -3
BITMAP
000000
000000
001000
003800
001000
000000
020000
070000
020000
000000
001000
003800
001000
000000
021000
073800
021000
00000E
ENDCHAR
STARTCHAR uni28EB
ENCODING 10475
SWIDTH 1080 0
DWIDTH 18 0
BBX 18 18 0 -3
BITMAP
000000
000000
021000
073800
021000
000000
020000
070000
020000
000000
001000
003800
001000
000000
021000
073800
021000
00000E
ENDCHAR
STARTCHAR uni28EC
ENCODING 10476
SWIDTH 1080 0
DWIDTH 18 0
BBX 18 18 0 -3
BITMAP
000000
000000
001000
003800
001000
000000
000000
000000
000000
000000
021000
073800
021000
000000
021000
073800
021000
00000E
ENDCHAR
STARTCHAR uni28ED
ENCODING 10477
SWIDTH 1080 0
DWIDTH 18 0
BBX 18 18 0 -3
BITMAP
000000
000000
021000
073800
021000
000000
000000
000000
000000
000000
021000
073800
021000
000000
021000
073800
021000
00000E
ENDCHAR
STARTCHAR uni28EE
ENCODING 10478
SWIDTH 1080 0
DWIDTH 18 0
BBX 18 18 0 -3
BITMAP
000000
000000
001000
003800
001000
000000
020000
070000
020000
000000
021000
073800
021000
000000
021000
073800
021000
00000E
ENDCHAR
STARTCHAR uni28EF
ENCODING 10479
SWIDTH 1080 0
DWIDTH 18 0
BBX 18 18 0 -3
BITMAP
000000
000000
021000
073800
021000
000000
020000
070000
020000
000000
021000
073800
021000
000000
021000
073800
021000
00000E
ENDCHAR
STARTCHAR uni28F0
ENCODING 10480
SWIDTH 1080 0
DWIDTH 18 0
BBX 18 18 0 -3
BITMAP
000000
000000
000000
000000
000000
000000
001000
003800
001000
000000
001000
003800
001000
000000
021000
073800
021000
00000E
ENDCHAR
STARTCHAR uni28F1
ENCODING 10481
SWIDTH 1080 0
DWIDTH 18 0
BBX 18 18 0 -3
BITMAP
000000
000000
020000
070000
020000
000000
001000
003800
001000
000000
001000
003800
001000
000000
021000
073800
021000
00000E
ENDCHAR
STARTCHAR uni28F2
ENCODING 10482
SWIDTH 1080 0
DWIDTH 18 0
BBX 18 18 0 -3
BITMAP
000000
000000
000000
000000
000000
000000
021000
073800
021000
000000
001000
003800
001000
000000
021000
073800
021000
00000E
ENDCHAR
STARTCHAR uni28F3
ENCODING 10483
SWIDTH 1080 0
DWIDTH 18 0
BBX 18 18 0 -3
BITMAP
000000
000000
020000
070000
020000
000000
021000
073800
021000
000000
001000
003800
001000
000000
021000
073800
021000
00000E
ENDCHAR
STARTCHAR uni28F4
ENCODING 10484
SWIDTH 1080 0
DWIDTH 18 0
BBX 18 18 0 -3
BITMAP
000000
000000
000000
000000
000000
000000
001000
003800
001000
000000
021000
073800
021000
000000
021000
073800
021000
00000E
ENDCHAR
STARTCHAR uni28F5
ENCODING 10485
SWIDTH 1080 0
DWIDTH 18 0
BBX 18 18 0 -3
BITMAP
000000
000000
020000
070000
020000
000000
001000
003800
001000
000000
021000
073800
021000
000000
021000
073800
021000
00000E
ENDCHAR
STARTCHAR uni28F6
ENCODING 10486
SWIDTH 1080 0
DWIDTH 18 0
BBX 18 18 0 -3
BITMAP
000000
000000
000000
000000
000000
000000
021000
073800
021000
000000
021000
073800
021000
000000
021000
073800
021000
00000E
ENDCHAR
STARTCHAR uni28F7
ENCODING 10487
SWIDTH 1080 0
DWIDTH 18 0
BBX 18 18 0 -3
BITMAP
000000
000000
020000
070000
020000
000000
021000
073800
021000
000000
021000
073800
021000
000000
021000
073800
021000
00000E
ENDCHAR
STARTCHAR uni28F8
ENCODING 10488
SWIDTH 1080 0
DWIDTH 18 0
BBX 18 18 0 -3
BITMAP
000000
000000
001000
003800
001000
000000
001000
003800
001000
000000
001000
003800
001000
000000
021000
073800
021000
00000E
ENDCHAR
STARTCHAR uni28F9
ENCODING 10489
SWIDTH 1080 0
DWIDTH 18 0
BBX 18 18 0 -3
BITMAP
000000
000000
021000
073800
021000
000000
001000
003800
001000
000000
001000
003800
001000
000000
021000
073800
021000
00000E
ENDCHAR
STARTCHAR uni28FA
ENCODING 10490
SWIDTH 1080 0
DWIDTH 18 0
BBX 18 18 0 -3
BITMAP
000000
000000
001000
003800
001000
000000
021000
073800
021000
000000
001000
003800
001000
000000
021000
073800
021000
00000E
ENDCHAR
STARTCHAR uni28FB
ENCODING 10491
SWIDTH 1080 0
DWIDTH 18 0
BBX 18 18 0 -3
BITMAP
000000
000000
021000
073800
021000
000000
021000
073800
021000
000000
001000
003800
001000
000000
021000
073800
021000
00000E
ENDCHAR
STARTCHAR uni28FC
ENCODING 10492
SWIDTH 1080 0
DWIDTH 18 0
BBX 18 18 0 -3
BITMAP
000000
000000
001000
003800
001000
000000
001000
003800
001000
000000
021000
073800
021000
000000
021000
073800
021000
00000E
ENDCHAR
STARTCHAR uni28FD
ENCODING 10493
SWIDTH 1080 0
DWIDTH 18 0
BBX 18 18 0 -3
BITMAP
000000
000000
021000
073800
021000
000000
001000
003800
001000
000000
021000
073800
021000
000000
021000
073800
021000
00000E
ENDCHAR
STARTCHAR uni28FE
ENCODING 10494
SWIDTH 1080 0
DWIDTH 18 0
BBX 18 18 0 -3
BITMAP
000000
000000
001000
003800
001000
000000
021000
073800
021000
000000
021000
073800
021000
000000
021000
073800
021000
00000E
ENDCHAR
STARTCHAR uni28FF
ENCODING 10495
SWIDTH 1080 0
DWIDTH 18 0
BBX 18 18 0 -3
BITMAP
000000
000000
021000
073800
021000
000000
021000
073800
021000
000000
021000
073800
021000
000000
021000
073800
021000
00000E
ENDCHAR
STARTCHAR uni3000
ENCODING 12288
SWIDTH 1080 0
DWIDTH 18 0
BBX 18 18 0 -3
BITMAP
000000
000000
000000
000000
000000
000000
000000
000000
000000
000000
000000
000000
000000
000000
000000
000000
000000
000000
ENDCHAR
STARTCHAR uni3001
ENCODING 12289
SWIDTH 1080 0
DWIDTH 18 0
BBX 18 18 0 -3
BITMAP
000000
000000
000000
000000
000000
000000
000000
000000
000000
000000
000000
000000
000000
000000
300000
180000
080000
000000
ENDCHAR
STARTCHAR uni3002
ENCODING 12290
SWIDTH 1080 0
DWIDTH 18 0
BBX 18 18 0 -3
BITMAP
000000
000000
000000
000000
000000
000000
000000
000000
000000
000000
000000
000000
000000
300000
480000
480000
300000
000000
ENDCHAR
STARTCHAR uni3003
ENCODING 12291
SWIDTH 1080 0
DWIDTH 18 0
BBX 18 18 0 -3
BITMAP
000000
000000
000000
000000
021000
021000
021000
021000
021000
021000
021000
042000
042000
084000
000000
000000
000000
000000
ENDCHAR
STARTCHAR uni3005
ENCODING 12293
SWIDTH 1080 0
DWIDTH 18 0
BBX 18 18 0 -3
BITMAP
000000
000000
010000
010000
010000
03FC00
020400
060C00
040800
0C1800
19B000
00E000
003000
001800
000800
000000
000000
000000
ENDCHAR
STARTCHAR uni3006
ENCODING 12294
SWIDTH 1080 0
DWIDTH 18 0
BBX 18 18 0 -3
BITMAP
000000
000000
000300
000600
000C00
039800
04F000
086000
08F000
199800
130000
160000
140000
1C0000
180000
300000
000000
000000
ENDCHAR
STARTCHAR uni3007
ENCODING 12295
SWIDTH 1080 0
DWIDTH 18 0
BBX 18 18 0 -3
BITMAP
000000
000000
000000
03F000
0E1C00
180600
100200
300300
200100
200100
300300
100200
180600
0E1C00
03F000
000000
000000
000000
ENDCHAR
STARTCHAR uni3008
ENCODING 12296
SWIDTH 1080 0
DWIDTH 18 0
BBX 18 18 0 -3
BITMAP
000000
000400
000800
000800
001000
002000
002000
004000
008000
008000
004000
002000
002000
001000
000800
000800
000400
000000
ENDCHAR
STARTCHAR uni3009
ENCODING 12297
SWIDTH 1080 0
DWIDTH 18 0
BBX 18 18 0 -3
BITMAP
000000
080000
040000
040000
020000
010000
010000
008000
004000
004000
008000
010000
010000
020000
040000
040000
080000
000000
ENDCHAR
STARTCHAR uni300A
ENCODING 12298
SWIDTH 1080 0
DWIDTH 18 0
BBX 18 18 0 -3
BITMAP
000000
000900
001200
001200
002400
004800
004800
009000
012000
012000
009000
004800
004800
002400
001200
001200
000900
000000
ENDCHAR
STARTCHAR uni300B
ENCODING 12299
SWIDTH 1080 0
DWIDTH 18 0
BBX 18 18 0 -3
BITMAP
000000
240000
120000
120000
090000
048000
048000
024000
012000
012000
024000
048000
048000
090000
120000
120000
240000
000000
ENDCHAR
STARTCHAR uni300C
ENCODING 12300
SWIDTH 1080 0
DWIDTH 18 0
BBX 18 18 0 -3
BITMAP
000000
007C00
004000
004000
004000
004000
004000
004000
004000
004000
004000
004000
000000
000000
000000
000000
000000
000000
ENDCHAR
STARTCHAR uni300D
ENCODING 12301
SWIDTH 1080 0
DWIDTH 18 0
BBX 18 18 0 -3
BITMAP
000000
000000
000000
000000
000000
000000
008000
008000
008000
008000
008000
008000
008000
008000
008000
008000
0F8000
000000
ENDCHAR
STARTCHAR uni300E
ENCODING 12302
SWIDTH 1080 0
DWIDTH 18 0
BBX 18 18 0 -3
BITMAP
000000
00FC00
008400
00BC00
00A000
00A000
00A000
00A000
00A000
00A000
00A000
00E000
000000
000000
000000
000000
000000
000000
ENDCHAR
STARTCHAR uni300F
ENCODING 12303
SWIDTH 1080 0
DWIDTH 18 0
BBX 18 18 0 -3
BITMAP
000000
000000
000000
000000
000000
000000
01C000
014000
014000
014000
014000
014000
014000
014000
0F4000
084000
0FC000
000000
ENDCHAR
STARTCHAR uni3010
ENCODING 12304
SWIDTH 1080 0
DWIDTH 18 0
BBX 18 18 0 -3
BITMAP
000000
007C00
007800
007000
006000
006000
004000
004000
004000
004000
004000
004000
006000
006000
007000
007800
007C00
000000
ENDCHAR
STARTCHAR uni3011
ENCODING 12305
SWIDTH 1080 0
DWIDTH 18 0
BBX 18 18 0 -3
BITMAP
000000
0F8000
078000
038000
018000
018000
008000
008000
008000
008000
008000
008000
018000
018000
038000
078000
0F8000
000000
ENDCHAR
STARTCHAR uni3012
ENCODING 12306
SWIDTH 1080 0
DWIDTH 18 0
BBX 18 18 0 -3
BITMAP
000000
000000
3FFF00
3FFF00
000000
000000
3FFF00
3FFF00
00C000
00C000
00C000
00C000
00C000
00C000
00C000
00C000
000000
000000
ENDCHAR
STARTCHAR uni3013
ENCODING 12307
SWIDTH 1080 0
DWIDTH 18 0
BBX 18 18 0 -3
BITMAP
000000
000000
000000
3FFF00
3FFF00
3FFF00
3FFF00
000000
000000
000000
3FFF00
3FFF00
3FFF00
3FFF00
000000
000000
000000
000000
ENDCHAR
STARTCHAR uni3014
ENCODING 12308
SWIDTH 1080 0
DWIDTH 18 0
BBX 18 18 0 -3
BITMAP
000000
000400
001800
006000
004000
004000
004000
004000
004000
004000
004000
004000
004000
004000
006000
001800
000400
000000
ENDCHAR
STARTCHAR uni3015
ENCODING 12309
SWIDTH 1080 0
DWIDTH 18 0
BBX 18 18 0 -3
BITMAP
000000
080000
060000
018000
008000
008000
008000
008000
008000
008000
008000
008000
008000
008000
018000
060000
080000
000000
ENDCHAR
STARTCHAR uni301C
ENCODING 12316
SWIDTH 1080 0
DWIDTH 18 0
BBX 18 18 0 -3
BITMAP
000000
000000
000000
000000
000000
000000
000000
1E0000
218080
406100
001E00
000000
000000
000000
000000
000000
000000
000000
ENDCHAR
STARTCHAR uni3041
ENCODING 12353
SWIDTH 1080 0
DWIDTH 18 0
BBX 18 18 0 -3
BITMAP
000000
000000
000000
000000
000000
008000
008000
0FFC00
012000
01F800
032C00
052600
094200
094200
088600
070C00
003000
000000
ENDCHAR
STARTCHAR uni3042
ENCODING 12354
SWIDTH 1080 0
DWIDTH 18 0
BBX 18 18 0 -3
BITMAP
000000
010000
010000
1FFC00
020000
022000
03F800
0E2E00
1A2200
122300
324100
224100
228300
230200
1C0E00
003800
000000
000000
ENDCHAR
STARTCHAR uni3043
ENCODING 12355
SWIDTH 1080 0
DWIDTH 18 0
BBX 18 18 0 -3
BITMAP
000000
000000
000000
000000
000000
000000
000000
080000
081800
080C00
080400
080600
0C0200
050200
070000
020000
000000
000000
ENDCHAR
STARTCHAR uni3044
ENCODING 12356
SWIDTH 1080 0
DWIDTH 18 0
BBX 18 18 0 -3
BITMAP
000000
000000
000000
100000
100800
100C00
100600
100200
100300
100100
100100
190100
0B0000
0E0000
040000
000000
000000
000000
ENDCHAR
STARTCHAR uni3045
ENCODING 12357
SWIDTH 1080 0
DWIDTH 18 0
BBX 18 18 0 -3
BITMAP
000000
000000
000000
000000
000000
030000
01C000
007000
000000
07F000
000800
000800
000800
001800
003000
00E000
038000
000000
ENDCHAR
STARTCHAR uni3046
ENCODING 12358
SWIDTH 1080 0
DWIDTH 18 0
BBX 18 18 0 -3
BITMAP
000000
030000
01C000
007000
000000
000000
0FF800
000C00
000400
000400
000400
000C00
001800
003000
00E000
078000
000000
000000
ENDCHAR
STARTCHAR uni3047
ENCODING 12359
SWIDTH 1080 0
DWIDTH 18 0
BBX 18 18 0 -3
BITMAP
000000
000000
000000
000000
000000
030000
01C000
007000
000000
07F000
002000
004000
008000
03C000
064000
0C4000
003C00
000000
ENDCHAR
STARTCHAR uni3048
ENCODING 12360
SWIDTH 1080 0
DWIDTH 18 0
BBX 18 18 0 -3
BITMAP
000000
030000
01C000
007000
000000
0FF800
001000
002000
004000
008000
01E000
032000
062000
0C2000
183000
001F00
000000
000000
ENDCHAR
STARTCHAR uni3049
ENCODING 12361
SWIDTH 1080 0
DWIDTH 18 0
BBX 18 18 0 -3
BITMAP
000000
000000
000000
000000
000000
010000
010800
01EC00
0F0400
010000
01F000
030800
050400
090400
090C00
063800
000000
000000
ENDCHAR
STARTCHAR uni304A
ENCODING 12362
SWIDTH 1080 0
DWIDTH 18 0
BBX 18 18 0 -3
BITMAP
000000
020000
020000
020600
03E300
3E0100
020000
020000
02FC00
038600
0E0300
1A0100
320100
220300
260600
1C1C00
000000
000000
ENDCHAR
STARTCHAR uni304B
ENCODING 12363
SWIDTH 1080 0
DWIDTH 18 0
BBX 18 18 0 -3
BITMAP
000000
020000
020000
020400
020600
3FC300
022100
022180
062080
042080
042000
0C2000
082000
186000
304000
01C000
000000
000000
ENDCHAR
STARTCHAR uni304C
ENCODING 12364
SWIDTH 1080 0
DWIDTH 18 0
BBX 18 18 0 -3
BITMAP
000000
020280
020280
020800
020C00
3FC600
022200
022300
062100
042100
042000
0C2000
082000
186000
304000
01C000
000000
000000
ENDCHAR
STARTCHAR uni304D
ENCODING 12365
SWIDTH 1080 0
DWIDTH 18 0
BBX 18 18 0 -3
BITMAP
000000
010000
010000
1FFC00
008000
008000
1FFE00
004000
002000
07F800
080C00
100000
100000
180000
0E0000
03F800
000000
000000
ENDCHAR
STARTCHAR uni304E
ENCODING 12366
SWIDTH 1080 0
DWIDTH 18 0
BBX 18 18 0 -3
BITMAP
000000
010280
010280
1FF800
008000
008000
1FFC00
004000
002000
07F800
080C00
100000
100000
180000
0E0000
03F800
000000
000000
ENDCHAR
STARTCHAR uni304F
ENCODING 12367
SWIDTH 1080 0
DWIDTH 18 0
BBX 18 18 0 -3
BITMAP
000000
000800
001800
003000
006000
00C000
018000
060000
0C0000
060000
030000
018000
00C000
006000
003000
001800
000800
000000
ENDCHAR
STARTCHAR uni3050
ENCODING 12368
SWIDTH 1080 0
DWIDTH 18 0
BBX 18 18 0 -3
BITMAP
000000
000800
001A80
003280
006000
00C000
018000
060000
0C0000
060000
030000
018000
00C000
006000
003000
001800
000800
000000
ENDCHAR
STARTCHAR uni3051
ENCODING 12369
SWIDTH 1080 0
DWIDTH 18 0
BBX 18 18 0 -3
BITMAP
000000
000800
100800
100800
300800
23FF80
200800
200800
200800
200800
200800
280800
301800
101000
003000
006000
000000
000000
ENDCHAR
STARTCHAR uni3052
ENCODING 12370
SWIDTH 1080 0
DWIDTH 18 0
BBX 18 18 0 -3
BITMAP
000000
001280
101280
101000
301000
23FF00
201000
201000
201000
201000
201000
281000
303000
102000
006000
00C000
000000
000000
ENDCHAR
STARTCHAR uni3053
ENCODING 12371
SWIDTH 1080 0
DWIDTH 18 0
BBX 18 18 0 -3
BITMAP
000000
000000
000000
0FFC00
000000
000000
000000
000000
000000
000000
000000
100000
180000
0E0000
03FE00
000000
000000
000000
ENDCHAR
STARTCHAR uni3054
ENCODING 12372
SWIDTH 1080 0
DWIDTH 18 0
BBX 18 18 0 -3
BITMAP
000000
000280
000280
0FF800
000000
000000
000000
000000
000000
000000
000000
100000
180000
0E0000
03FE00
000000
000000
000000
ENDCHAR
STARTCHAR uni3055
ENCODING 12373
SWIDTH 1080 0
DWIDTH 18 0
BBX 18 18 0 -3
BITMAP
000000
020000
030000
010000
3FFE00
008000
00C000
006000
003000
07FC00
080600
100000
100000
180000
0E0000
03F800
000000
000000
ENDCHAR
STARTCHAR uni3056
ENCODING 12374
SWIDTH 1080 0
DWIDTH 18 0
BBX 18 18 0 -3
BITMAP
000000
020280
030280
010000
3FFE00
008000
00C000
006000
003000
07FC00
080600
100000
100000
180000
0E0000
03F800
000000
000000
ENDCHAR
STARTCHAR uni3057
ENCODING 12375
SWIDTH 1080 0
DWIDTH 18 0
BBX 18 18 0 -3
BITMAP
000000
000000
040000
040000
040000
040000
040000
040000
040000
040000
040000
040200
040600
040C00
023800
01E000
000000
000000
ENDCHAR
STARTCHAR uni3058
ENCODING 12376
SWIDTH 1080 0
DWIDTH 18 0
BBX 18 18 0 -3
BITMAP
000000
000000
040000
042800
042800
040000
040000
040000
040000
040000
040000
040200
040600
040C00
023800
01E000
000000
000000
ENDCHAR
STARTCHAR uni3059
ENCODING 12377
SWIDTH 1080 0
DWIDTH 18 0
BBX 18 18 0 -3
BITMAP
000000
004000
004000
004000
7FFF80
004000
004000
03C000
066000
042000
042000
062000
03E000
004000
00C000
018000
070000
000000
ENDCHAR
STARTCHAR uni305A
ENCODING 12378
SWIDTH 1080 0
DWIDTH 18 0
BBX 18 18 0 -3
BITMAP
000000
004280
004280
004000
7FFF80
004000
004000
03C000
066000
042000
042000
062000
03E000
004000
00C000
018000
070000
000000
ENDCHAR
STARTCHAR uni305B
ENCODING 12379
SWIDTH 1080 0
DWIDTH 18 0
BBX 18 18 0 -3
BITMAP
000000
000000
040800
040800
040800
040800
7FFF80
040800
040800
040800
040800
043000
040000
040000
020000
01FE00
000000
000000
ENDCHAR
STARTCHAR uni305C
ENCODING 12380
SWIDTH 1080 0
DWIDTH 18 0
BBX 18 18 0 -3
BITMAP
000000
000280
041280
041000
041000
041000
7FFF80
041000
041000
041000
041000
046000
040000
040000
020000
01FE00
000000
000000
ENDCHAR
STARTCHAR uni305D
ENCODING 12381
SWIDTH 1080 0
DWIDTH 18 0
BBX 18 18 0 -3
BITMAP
000000
000000
0FFC00
001800
006000
00C000
018000
060000
3FFF00
00C000
018000
030000
020000
020000
030000
01C000
007800
000000
ENDCHAR
STARTCHAR uni305E
ENCODING 12382
SWIDTH 1080 0
DWIDTH 18 0
BBX 18 18 0 -3
BITMAP
000000
000000
0FF800
003280
006280
00C000
018000
060000
3FFF00
00C000
018000
030000
020000
020000
030000
01C000
007800
000000
ENDCHAR
STARTCHAR uni305F
ENCODING 12383
SWIDTH 1080 0
DWIDTH 18 0
BBX 18 18 0 -3
BITMAP
000000
020000
020000
020000
3FC000
040000
043E00
040000
0C0000
080000
080000
180000
100000
104000
306000
203F00
000000
000000
ENDCHAR
STARTCHAR uni3060
ENCODING 12384
SWIDTH 1080 0
DWIDTH 18 0
BBX 18 18 0 -3
BITMAP
000000
020500
020500
020000
3FC000
040000
043E00
040000
0C0000
080000
080000
180000
100000
104000
306000
203F00
000000
000000
ENDCHAR
STARTCHAR uni3061
ENCODING 12385
SWIDTH 1080 0
DWIDTH 18 0
BBX 18 18 0 -3
BITMAP
000000
008000
008000
008000
3FFE00
010000
030000
020000
07F800
0C0400
180200
000200
000200
000600
001C00
03F000
000000
000000
ENDCHAR
STARTCHAR uni3062
ENCODING 12386
SWIDTH 1080 0
DWIDTH 18 0
BBX 18 18 0 -3
BITMAP
000000
008280
008280
008000
3FFE00
010000
030000
020000
07F800
0C0400
180200
000200
000200
000600
001C00
03F000
000000
000000
ENDCHAR
STARTCHAR uni3063
ENCODING 12387
SWIDTH 1080 0
DWIDTH 18 0
BBX 18 18 0 -3
BITMAP
000000
000000
000000
000000
000000
000000
000000
000000
00F000
038800
0E0400
000400
000400
000C00
001800
007000
000000
000000
ENDCHAR
STARTCHAR uni3064
ENCODING 12388
SWIDTH 1080 0
DWIDTH 18 0
BBX 18 18 0 -3
BITMAP
000000
000000
000000
000000
01FC00
0F0200
380100
000100
000100
000100
000300
000600
001C00
007000
000000
000000
000000
000000
ENDCHAR
STARTCHAR uni3065
ENCODING 12389
SWIDTH 1080 0
DWIDTH 18 0
BBX 18 18 0 -3
BITMAP
000000
000280
000280
000000
01FC00
0F0200
380100
000100
000100
000100
000300
000600
001C00
007000
000000
000000
000000
000000
ENDCHAR
STARTCHAR uni3066
ENCODING 12390
SWIDTH 1080 0
DWIDTH 18 0
BBX 18 18 0 -3
BITMAP
000000
000000
000000
3FFF00
003000
006000
00C000
008000
018000
010000
010000
010000
018000
00C000
007000
001C00
000000
000000
ENDCHAR
STARTCHAR uni3067
ENCODING 12391
SWIDTH 1080 0
DWIDTH 18 0
BBX 18 18 0 -3
BITMAP
000000
000000
000000
3FFE00
003000
006280
00C280
008000
018000
010000
010000
010000
018000
00C000
007000
001C00
000000
000000
ENDCHAR
STARTCHAR uni3068
ENCODING 12392
SWIDTH 1080 0
DWIDTH 18 0
BBX 18 18 0 -3
BITMAP
000000
000000
080000
0C0000
040000
060600
021C00
037000
01C000
030000
060000
0C0000
080000
080000
0C0000
07FE00
000000
000000
ENDCHAR
STARTCHAR uni3069
ENCODING 12393
SWIDTH 1080 0
DWIDTH 18 0
BBX 18 18 0 -3
BITMAP
000000
000280
080280
0C0000
040000
060600
021C00
037000
01C000
030000
060000
0C0000
080000
080000
0C0000
07FE00
000000
000000
ENDCHAR
STARTCHAR uni306A
ENCODING 12394
SWIDTH 1080 0
DWIDTH 18 0
BBX 18 18 0 -3
BITMAP
000000
040000
040000
040C00
3F8600
040300
0C0000
081000
081000
181000
101000
301000
01F000
021C00
023600
01E000
000000
000000
ENDCHAR
STARTCHAR uni306B
ENCODING 12395
SWIDTH 1080 0
DWIDTH 18 0
BBX 18 18 0 -3
BITMAP
000000
000000
080000
080000
18FE00
100000
100000
100000
100000
100000
100000
110000
110000
158000
18FF00
080000
000000
000000
ENDCHAR
STARTCHAR uni306C
ENCODING 12396
SWIDTH 1080 0
DWIDTH 18 0
BBX 18 18 0 -3
BITMAP
000000
004000
004000
104000
104000
1BF800
0E4E00
084200
1CC300
148100
368100
238100
211D00
23A200
26A700
1C1D80
000000
000000
ENDCHAR
STARTCHAR uni306D
ENCODING 12397
SWIDTH 1080 0
DWIDTH 18 0
BBX 18 18 0 -3
BITMAP
000000
040000
040000
040000
047C00
3CC600
058300
070100
060100
040100
0C0100
1C1D00
342200
042700
041D80
040000
000000
000000
ENDCHAR
STARTCHAR uni306E
ENCODING 12398
SWIDTH 1080 0
DWIDTH 18 0
BBX 18 18 0 -3
BITMAP
000000
000000
000000
01F000
075C00
0C4600
184200
10C300
308100
218100
210100
230300
260200
1C0E00
003800
000000
000000
000000
ENDCHAR
STARTCHAR uni306F
ENCODING 12399
SWIDTH 1080 0
DWIDTH 18 0
BBX 18 18 0 -3
BITMAP
000000
000000
101000
101000
301000
23FF00
201000
201000
201000
201000
201000
21F000
221C00
2A1600
323300
11E000
000000
000000
ENDCHAR
STARTCHAR uni3070
ENCODING 12400
SWIDTH 1080 0
DWIDTH 18 0
BBX 18 18 0 -3
BITMAP
000000
000280
101280
101000
301000
23FF00
201000
201000
201000
201000
201000
21F000
221C00
2A1600
323300
11E000
000000
000000
ENDCHAR
STARTCHAR uni3071
ENCODING 12401
SWIDTH 1080 0
DWIDTH 18 0
BBX 18 18 0 -3
BITMAP
000000
000000
102000
102300
302480
23FC80
202300
202000
202000
202000
202000
21E000
223800
2A2C00
326600
11C000
000000
000000
ENDCHAR
STARTCHAR uni3072
ENCODING 12402
SWIDTH 1080 0
DWIDTH 18 0
BBX 18 18 0 -3
BITMAP
000000
000000
010800
3F0800
020C00
060E00
0C0B00
080980
180800
100800
100800
100800
101800
181000
0C7000
07C000
000000
000000
ENDCHAR
STARTCHAR uni3073
ENCODING 12403
SWIDTH 1080 0
DWIDTH 18 0
BBX 18 18 0 -3
BITMAP
000000
000280
010A80
3F0800
020C00
060E00
0C0B00
080980
180800
100800
100800
100800
101800
181000
0C7000
07C000
000000
000000
ENDCHAR
STARTCHAR uni3074
ENCODING 12404
SWIDTH 1080 0
DWIDTH 18 0
BBX 18 18 0 -3
BITMAP
000000
000000
042000
7C2300
082480
183480
103B00
102C00
302000
202000
202000
202000
202000
306000
18C000
0F8000
000000
000000
ENDCHAR
STARTCHAR uni3075
ENCODING 12405
SWIDTH 1080 0
DWIDTH 18 0
BBX 18 18 0 -3
BITMAP
000000
000000
020000
030000
01C000
006000
000000
030000
018000
00C600
204300
206100
2C2180
382080
106000
01C000
000000
000000
ENDCHAR
STARTCHAR uni3076
ENCODING 12406
SWIDTH 1080 0
DWIDTH 18 0
BBX 18 18 0 -3
BITMAP
000000
000000
020500
030500
01C000
006000
000000
030000
018000
00C600
204300
206100
2C2180
382080
106000
01C000
000000
000000
ENDCHAR
STARTCHAR uni3077
ENCODING 12407
SWIDTH 1080 0
DWIDTH 18 0
BBX 18 18 0 -3
BITMAP
000000
000000
020000
030600
01C900
006900
000600
030000
018000
00C600
204300
206100
2C2180
382080
106000
01C000
000000
000000
ENDCHAR
STARTCHAR uni3078
ENCODING 12408
SWIDTH 1080 0
DWIDTH 18 0
BBX 18 18 0 -3
BITMAP
000000
000000
000000
000000
030000
048000
0CC000
084000
186000
303000
001800
000C00
000600
000300
000000
000000
000000
000000
ENDCHAR
STARTCHAR uni3079
ENCODING 12409
SWIDTH 1080 0
DWIDTH 18 0
BBX 18 18 0 -3
BITMAP
000000
000000
001400
001400
030000
048000
0CC000
084000
186000
303000
001800
000C00
000600
000300
000000
000000
000000
000000
ENDCHAR
STARTCHAR uni307A
ENCODING 12410
SWIDTH 1080 0
DWIDTH 18 0
BBX 18 18 0 -3
BITMAP
000000
000000
000000
000000
030C00
049200
0CD200
084C00
186000
303000
001800
000C00
000600
000300
000000
000000
000000
000000
ENDCHAR
STARTCHAR uni307B
ENCODING 12411
SWIDTH 1080 0
DWIDTH 18 0
BBX 18 18 0 -3
BITMAP
000000
000000
100000
13FF00
301000
201000
201000
23FF00
201000
201000
201000
21F000
221C00
2A1600
323300
11E000
000000
000000
ENDCHAR
STARTCHAR uni307C
ENCODING 12412
SWIDTH 1080 0
DWIDTH 18 0
BBX 18 18 0 -3
BITMAP
000000
000280
100280
13FC00
301000
201000
201000
23FE00
201000
201000
201000
21F000
221C00
2A1600
323300
11E000
000000
000000
ENDCHAR
STARTCHAR uni307D
ENCODING 12413
SWIDTH 1080 0
DWIDTH 18 0
BBX 18 18 0 -3
BITMAP
000000
000000
100000
13FB00
302480
202480
202300
23FC00
202000
202000
202000
21E000
223800
2A2C00
326600
11C000
000000
000000
ENDCHAR
STARTCHAR uni307E
ENCODING 12414
SWIDTH 1080 0
DWIDTH 18 0
BBX 18 18 0 -3
BITMAP
000000
004000
004000
004000
1FFE00
004000
004000
1FFE00
004000
004000
004000
0FC000
107000
105C00
10C600
0F8000
000000
000000
ENDCHAR
STARTCHAR uni307F
ENCODING 12415
SWIDTH 1080 0
DWIDTH 18 0
BBX 18 18 0 -3
BITMAP
000000
000000
000000
0F8000
008000
008400
008400
008400
0FFC00
190700
330580
220C00
260800
2C1800
183000
006000
000000
000000
ENDCHAR
STARTCHAR uni3080
ENCODING 12416
SWIDTH 1080 0
DWIDTH 18 0
BBX 18 18 0 -3
BITMAP
000000
040000
040000
040000
3F8C00
040600
040300
040100
1C0000
240000
240000
240000
240400
1C0400
060C00
03F800
000000
000000
ENDCHAR
STARTCHAR uni3081
ENCODING 12417
SWIDTH 1080 0
DWIDTH 18 0
BBX 18 18 0 -3
BITMAP
000000
002000
002000
102000
102000
1BF800
0E4E00
084200
1C4300
16C100
328100
238100
210300
278200
1C8E00
003800
000000
000000
ENDCHAR
STARTCHAR uni3082
ENCODING 12418
SWIDTH 1080 0
DWIDTH 18 0
BBX 18 18 0 -3
BITMAP
000000
010000
010000
010000
1FF000
010000
010000
1FF000
020000
020000
020200
020200
020200
030600
018C00
00F800
000000
000000
ENDCHAR
STARTCHAR uni3083
ENCODING 12419
SWIDTH 1080 0
DWIDTH 18 0
BBX 18 18 0 -3
BITMAP
000000
000000
000000
000000
000000
006000
043000
061000
027C00
03C200
0F0200
198200
008C00
008000
00C000
004000
004000
000000
ENDCHAR
STARTCHAR uni3084
ENCODING 12420
SWIDTH 1080 0
DWIDTH 18 0
BBX 18 18 0 -3
BITMAP
000000
000000
086000
0C3000
041000
067E00
03C100
1E0100
730300
010E00
010000
018000
008000
008000
00C000
004000
004000
000000
ENDCHAR
STARTCHAR uni3085
ENCODING 12421
SWIDTH 1080 0
DWIDTH 18 0
BBX 18 18 0 -3
BITMAP
000000
000000
000000
000000
000000
002000
042000
04F800
092400
0A2200
0A2200
0C2200
052400
04F800
002000
006000
00C000
000000
ENDCHAR
STARTCHAR uni3086
ENCODING 12422
SWIDTH 1080 0
DWIDTH 18 0
BBX 18 18 0 -3
BITMAP
000000
000000
002000
102000
11FC00
332600
262300
242100
282100
282100
302300
132600
11FC00
002000
006000
00C000
000000
000000
ENDCHAR
STARTCHAR uni3087
ENCODING 12423
SWIDTH 1080 0
DWIDTH 18 0
BBX 18 18 0 -3
BITMAP
000000
000000
000000
000000
000000
008000
008000
008000
00F800
008000
008000
008000
008000
078000
08F000
089800
070000
000000
ENDCHAR
STARTCHAR uni3088
ENCODING 12424
SWIDTH 1080 0
DWIDTH 18 0
BBX 18 18 0 -3
BITMAP
000000
004000
004000
004000
004000
007E00
004000
004000
004000
004000
004000
0FC000
107000
105C00
10C600
0F8000
000000
000000
ENDCHAR
STARTCHAR uni3089
ENCODING 12425
SWIDTH 1080 0
DWIDTH 18 0
BBX 18 18 0 -3
BITMAP
000000
00C000
006000
043000
040000
0C0000
080000
080000
09FC00
0F0600
180200
000200
000200
000600
001C00
00F000
000000
000000
ENDCHAR
STARTCHAR uni308A
ENCODING 12426
SWIDTH 1080 0
DWIDTH 18 0
BBX 18 18 0 -3
BITMAP
000000
000000
040400
040400
040400
040400
040400
040400
050400
060400
040400
000C00
000800
001800
003000
00E000
000000
000000
ENDCHAR
STARTCHAR uni308B
ENCODING 12427
SWIDTH 1080 0
DWIDTH 18 0
BBX 18 18 0 -3
BITMAP
000000
000000
0FF800
003000
006000
00C000
018000
03F800
060C00
0C0600
180200
038200
04C200
044600
064C00
03F800
000000
000000
ENDCHAR
STARTCHAR uni308C
ENCODING 12428
SWIDTH 1080 0
DWIDTH 18 0
BBX 18 18 0 -3
BITMAP
000000
040000
040000
040000
047000
3CC800
058800
070800
060800
040800
0C0800
1C0800
340880
040980
040700
040000
000000
000000
ENDCHAR
STARTCHAR uni308D
ENCODING 12429
SWIDTH 1080 0
DWIDTH 18 0
BBX 18 18 0 -3
BITMAP
000000
000000
0FF800
003000
006000
00C000
018000
03F800
060C00
0C0600
180200
000200
000600
000C00
003800
01E000
000000
000000
ENDCHAR
STARTCHAR uni308E
ENCODING 12430
SWIDTH 1080 0
DWIDTH 18 0
BBX 18 18 0 -3
BITMAP
000000
000000
000000
000000
000000
020000
020000
020000
1E3800
02C400
030200
020200
060200
0E0200
1A0400
021800
020000
000000
ENDCHAR
STARTCHAR uni308F
ENCODING 12431
SWIDTH 1080 0
DWIDTH 18 0
BBX 18 18 0 -3
BITMAP
000000
040000
040000
040000
047C00
3CC600
058300
070100
060100
040100
0C0100
1C0100
340300
040600
041C00
040000
000000
000000
ENDCHAR
STARTCHAR uni3090
ENCODING 12432
SWIDTH 1080 0
DWIDTH 18 0
BBX 18 18 0 -3
BITMAP
000000
000000
07C000
004000
004000
004000
01FC00
068600
0C8300
198100
130100
323100
265900
2C4B00
186600
003C00
000000
000000
ENDCHAR
STARTCHAR uni3091
ENCODING 12433
SWIDTH 1080 0
DWIDTH 18 0
BBX 18 18 0 -3
BITMAP
000000
000000
0FF800
006000
018000
07F800
1C0C00
000400
070400
098C00
0C9800
07F000
040000
1F3E00
31E300
604180
000000
000000
ENDCHAR
STARTCHAR uni3092
ENCODING 12434
SWIDTH 1080 0
DWIDTH 18 0
BBX 18 18 0 -3
BITMAP
000000
010000
010000
01F000
1F0000
020000
020300
07CE00
0C3800
18E000
01A000
032000
062000
040000
060000
03FE00
000000
000000
ENDCHAR
STARTCHAR uni3093
ENCODING 12435
SWIDTH 1080 0
DWIDTH 18 0
BBX 18 18 0 -3
BITMAP
000000
010000
010000
030000
020000
060000
040000
040000
0DC000
0A2000
0C2000
182000
102100
102300
302600
201C00
000000
000000
ENDCHAR
STARTCHAR uni309B
ENCODING 12443
SWIDTH 1080 0
DWIDTH 18 0
BBX 18 18 0 -3
BITMAP
000000
280000
280000
000000
000000
000000
000000
000000
000000
000000
000000
000000
000000
000000
000000
000000
000000
000000
ENDCHAR
STARTCHAR uni309C
ENCODING 12444
SWIDTH 1080 0
DWIDTH 18 0
BBX 18 18 0 -3
BITMAP
000000
000000
000000
300000
480000
480000
300000
000000
000000
000000
000000
000000
000000
000000
000000
000000
000000
000000
ENDCHAR
STARTCHAR uni309D
ENCODING 12445
SWIDTH 1080 0
DWIDTH 18 0
BBX 18 18 0 -3
BITMAP
000000
000000
000000
000000
040000
060000
030000
018000
00E000
003000
001800
003000
00E000
018000
000000
000000
000000
000000
ENDCHAR
STARTCHAR uni309E
ENCODING 12446
SWIDTH 1080 0
DWIDTH 18 0
BBX 18 18 0 -3
BITMAP
000000
000000
000000
000000
041400
061400
030000
018000
00E000
003000
001800
003000
00E000
018000
000000
000000
000000
000000
ENDCHAR
STARTCHAR uni30A1
ENCODING 12449
SWIDTH 1080 0
DWIDTH 18 0
BBX 18 18 0 -3
BITMAP
000000
000000
000000
000000
000000
000000
000000
0FFE00
000600
008C00
009800
008000
008000
018000
010000
030000
060000
000000
ENDCHAR
STARTCHAR uni30A2
ENCODING 12450
SWIDTH 1080 0
DWIDTH 18 0
BBX 18 18 0 -3
BITMAP
000000
000000
000000
3FFF00
000300
008600
008C00
009800
008000
008000
008000
018000
010000
030000
060000
1C0000
000000
000000
ENDCHAR
STARTCHAR uni30A3
ENCODING 12451
SWIDTH 1080 0
DWIDTH 18 0
BBX 18 18 0 -3
BITMAP
000000
000000
000000
000000
000000
000000
000400
000C00
001800
007000
01C000
0F4000
004000
004000
004000
004000
004000
000000
ENDCHAR
STARTCHAR uni30A4
ENCODING 12452
SWIDTH 1080 0
DWIDTH 18 0
BBX 18 18 0 -3
BITMAP
000000
000000
000200
000600
000C00
001800
007000
01C000
074000
3C4000
004000
004000
004000
004000
004000
004000
000000
000000
ENDCHAR
STARTCHAR uni30A5
ENCODING 12453
SWIDTH 1080 0
DWIDTH 18 0
BBX 18 18 0 -3
BITMAP
000000
000000
000000
000000
000000
000000
008000
008000
0FFC00
080400
080400
000C00
000800
001800
003000
00E000
038000
000000
ENDCHAR
STARTCHAR uni30A6
ENCODING 12454
SWIDTH 1080 0
DWIDTH 18 0
BBX 18 18 0 -3
BITMAP
000000
008000
008000
008000
1FFE00
100200
100200
100200
100200
000600
000400
000C00
001800
003000
00E000
038000
000000
000000
ENDCHAR
STARTCHAR uni30A7
ENCODING 12455
SWIDTH 1080 0
DWIDTH 18 0
BBX 18 18 0 -3
BITMAP
000000
000000
000000
000000
000000
000000
000000
000000
07F800
008000
008000
008000
008000
008000
008000
0FFC00
000000
000000
ENDCHAR
STARTCHAR uni30A8
ENCODING 12456
SWIDTH 1080 0
DWIDTH 18 0
BBX 18 18 0 -3
BITMAP
000000
000000
000000
000000
1FFE00
008000
008000
008000
008000
008000
008000
008000
008000
3FFF00
000000
000000
000000
000000
ENDCHAR
STARTCHAR uni30A9
ENCODING 12457
SWIDTH 1080 0
DWIDTH 18 0
BBX 18 18 0 -3
BITMAP
000000
000000
000000
000000
000000
000000
002000
002000
002000
0FFE00
00A000
01A000
032000
062000
1C2000
002000
00E000
000000
ENDCHAR
STARTCHAR uni30AA
ENCODING 12458
SWIDTH 1080 0
DWIDTH 18 0
BBX 18 18 0 -3
BITMAP
000000
002000
002000
002000
002000
3FFF00
00A000
01A000
012000
032000
062000
0C2000
182000
302000
002000
00E000
000000
000000
ENDCHAR
STARTCHAR uni30AB
ENCODING 12459
SWIDTH 1080 0
DWIDTH 18 0
BBX 18 18 0 -3
BITMAP
000000
008000
008000
008000
008000
1FFE00
008200
008200
018200
010200
010200
030200
020600
060400
0C0400
183C00
000000
000000
ENDCHAR
STARTCHAR uni30AC
ENCODING 12460
SWIDTH 1080 0
DWIDTH 18 0
BBX 18 18 0 -3
BITMAP
000000
008280
008280
008000
008000
1FFE00
008200
008200
018200
010200
010200
030200
020600
060400
0C0400
183C00
000000
000000
ENDCHAR
STARTCHAR uni30AD
ENCODING 12461
SWIDTH 1080 0
DWIDTH 18 0
BBX 18 18 0 -3
BITMAP
000000
020000
020000
030000
011C00
01F000
078000
3C8000
008F00
00F800
03C000
1E4000
006000
002000
002000
003000
001000
000000
ENDCHAR
STARTCHAR uni30AE
ENCODING 12462
SWIDTH 1080 0
DWIDTH 18 0
BBX 18 18 0 -3
BITMAP
000000
020280
020280
030000
011C00
01F000
078000
3C8000
008F00
00F800
03C000
1E4000
006000
002000
002000
003000
001000
000000
ENDCHAR
STARTCHAR uni30AF
ENCODING 12463
SWIDTH 1080 0
DWIDTH 18 0
BBX 18 18 0 -3
BITMAP
000000
008000
008000
008000
01FC00
010400
030400
060C00
0C0800
001800
001000
003000
006000
00C000
038000
0E0000
000000
000000
ENDCHAR
STARTCHAR uni30B0
ENCODING 12464
SWIDTH 1080 0
DWIDTH 18 0
BBX 18 18 0 -3
BITMAP
000000
008280
008280
008000
01FC00
010400
030400
060C00
0C0800
001800
001000
003000
006000
00C000
038000
0E0000
000000
000000
ENDCHAR
STARTCHAR uni30B1
ENCODING 12465
SWIDTH 1080 0
DWIDTH 18 0
BBX 18 18 0 -3
BITMAP
000000
020000
020000
060000
040000
0FFF00
081000
181000
301000
001000
003000
002000
006000
00C000
018000
070000
000000
000000
ENDCHAR
STARTCHAR uni30B2
ENCODING 12466
SWIDTH 1080 0
DWIDTH 18 0
BBX 18 18 0 -3
BITMAP
000000
020280
020280
060000
040000
0FFF00
081000
181000
301000
001000
003000
002000
006000
00C000
018000
070000
000000
000000
ENDCHAR
STARTCHAR uni30B3
ENCODING 12467
SWIDTH 1080 0
DWIDTH 18 0
BBX 18 18 0 -3
BITMAP
000000
000000
000000
000000
1FFE00
000200
000200
000200
000200
000200
000200
000200
000200
000200
1FFE00
000000
000000
000000
ENDCHAR
STARTCHAR uni30B4
ENCODING 12468
SWIDTH 1080 0
DWIDTH 18 0
BBX 18 18 0 -3
BITMAP
000000
000280
000280
000000
1FFE00
000200
000200
000200
000200
000200
000200
000200
000200
000200
1FFE00
000000
000000
000000
ENDCHAR
STARTCHAR uni30B5
ENCODING 12469
SWIDTH 1080 0
DWIDTH 18 0
BBX 18 18 0 -3
BITMAP
000000
000000
040800
040800
040800
7FFF80
040800
040800
040800
040800
001800
001000
003000
006000
00C000
038000
000000
000000
ENDCHAR
STARTCHAR uni30B6
ENCODING 12470
SWIDTH 1080 0
DWIDTH 18 0
BBX 18 18 0 -3
BITMAP
000000
000280
040A80
040800
040800
7FFF80
040800
040800
040800
040800
001800
001000
003000
006000
00C000
038000
000000
000000
ENDCHAR
STARTCHAR uni30B7
ENCODING 12471
SWIDTH 1080 0
DWIDTH 18 0
BBX 18 18 0 -3
BITMAP
000000
000000
000000
060000
030000
010000
000000
180100
0C0300
040600
000C00
001800
003000
00E000
038000
1E0000
000000
000000
ENDCHAR
STARTCHAR uni30B8
ENCODING 12472
SWIDTH 1080 0
DWIDTH 18 0
BBX 18 18 0 -3
BITMAP
000000
000000
000500
060500
030000
010000
000000
180100
0C0300
040600
000C00
001800
003000
00E000
038000
1E0000
000000
000000
ENDCHAR
STARTCHAR uni30B9
ENCODING 12473
SWIDTH 1080 0
DWIDTH 18 0
BBX 18 18 0 -3
BITMAP
000000
000000
000000
1FF800
000800
000800
001800
001000
003000
006000
00E000
01B000
031800
060C00
0C0600
380300
000000
000000
ENDCHAR
STARTCHAR uni30BA
ENCODING 12474
SWIDTH 1080 0
DWIDTH 18 0
BBX 18 18 0 -3
BITMAP
000000
000280
000280
1FF800
000800
000800
001800
001000
003000
006000
00E000
01B000
031800
060C00
0C0600
380300
000000
000000
ENDCHAR
STARTCHAR uni30BB
ENCODING 12475
SWIDTH 1080 0
DWIDTH 18 0
BBX 18 18 0 -3
BITMAP
000000
000000
040000
040000
040000
047E00
07C600
7C0C00
041800
040000
040000
040000
040000
060000
03FE00
000000
000000
000000
ENDCHAR
STARTCHAR uni30BC
ENCODING 12476
SWIDTH 1080 0
DWIDTH 18 0
BBX 18 18 0 -3
BITMAP
000000
000280
040280
040000
040000
047E00
07C600
7C0C00
041800
040000
040000
040000
040000
060000
03FE00
000000
000000
000000
ENDCHAR
STARTCHAR uni30BD
ENCODING 12477
SWIDTH 1080 0
DWIDTH 18 0
BBX 18 18 0 -3
BITMAP
000000
000000
000000
100200
180200
080200
0C0200
040600
000400
000C00
000800
001800
003000
006000
01C000
070000
000000
000000
ENDCHAR
STARTCHAR uni30BE
ENCODING 12478
SWIDTH 1080 0
DWIDTH 18 0
BBX 18 18 0 -3
BITMAP
000000
000280
000280
100000
180400
080400
0C0400
040C00
000800
001800
001000
003000
006000
00C000
038000
0E0000
000000
000000
ENDCHAR
STARTCHAR uni30BF
ENCODING 12479
SWIDTH 1080 0
DWIDTH 18 0
BBX 18 18 0 -3
BITMAP
000000
008000
008000
008000
01FE00
010200
030600
06C400
0C6C00
002800
001800
003000
006000
00C000
038000
0E0000
000000
000000
ENDCHAR
STARTCHAR uni30C0
ENCODING 12480
SWIDTH 1080 0
DWIDTH 18 0
BBX 18 18 0 -3
BITMAP
000000
010280
010280
010000
03FC00
020400
060C00
0D8800
18D800
005000
003000
006000
00C000
018000
070000
1C0000
000000
000000
ENDCHAR
STARTCHAR uni30C1
ENCODING 12481
SWIDTH 1080 0
DWIDTH 18 0
BBX 18 18 0 -3
BITMAP
000000
000000
000C00
007800
0FC000
004000
004000
004000
3FFF00
004000
004000
00C000
008000
018000
030000
0E0000
000000
000000
ENDCHAR
STARTCHAR uni30C2
ENCODING 12482
SWIDTH 1080 0
DWIDTH 18 0
BBX 18 18 0 -3
BITMAP
000000
000280
001A80
007000
0FC000
004000
004000
004000
3FFF00
004000
004000
00C000
008000
018000
030000
0E0000
000000
000000
ENDCHAR
STARTCHAR uni30C3
ENCODING 12483
SWIDTH 1080 0
DWIDTH 18 0
BBX 18 18 0 -3
BITMAP
000000
000000
000000
000000
000000
000000
000000
010000
098400
0C8400
040C00
000800
001800
003000
006000
00C000
038000
000000
ENDCHAR
STARTCHAR uni30C4
ENCODING 12484
SWIDTH 1080 0
DWIDTH 18 0
BBX 18 18 0 -3
BITMAP
000000
000000
000000
020000
230100
310100
118300
188200
080600
000400
000C00
001800
003000
006000
01C000
070000
000000
000000
ENDCHAR
STARTCHAR uni30C5
ENCODING 12485
SWIDTH 1080 0
DWIDTH 18 0
BBX 18 18 0 -3
BITMAP
000000
000280
000280
020000
230200
310200
118200
188600
080400
000C00
000800
001800
003000
006000
01C000
070000
000000
000000
ENDCHAR
STARTCHAR uni30C6
ENCODING 12486
SWIDTH 1080 0
DWIDTH 18 0
BBX 18 18 0 -3
BITMAP
000000
000000
000000
1FFE00
000000
000000
000000
3FFF00
004000
004000
004000
00C000
008000
018000
030000
0E0000
000000
000000
ENDCHAR
STARTCHAR uni30C7
ENCODING 12487
SWIDTH 1080 0
DWIDTH 18 0
BBX 18 18 0 -3
BITMAP
000000
000280
000280
1FFC00
000000
000000
000000
3FFE00
004000
004000
004000
00C000
008000
018000
030000
0E0000
000000
000000
ENDCHAR
STARTCHAR uni30C8
ENCODING 12488
SWIDTH 1080 0
DWIDTH 18 0
BBX 18 18 0 -3
BITMAP
000000
000000
010000
010000
010000
010000
010000
01E000
013800
010E00
010000
010000
010000
010000
010000
010000
000000
000000
ENDCHAR
STARTCHAR uni30C9
ENCODING 12489
SWIDTH 1080 0
DWIDTH 18 0
BBX 18 18 0 -3
BITMAP
000000
000000
010500
010500
010000
010000
010000
01E000
013800
010E00
010000
010000
010000
010000
010000
010000
000000
000000
ENDCHAR
STARTCHAR uni30CA
ENCODING 12490
SWIDTH 1080 0
DWIDTH 18 0
BBX 18 18 0 -3
BITMAP
000000
000000
004000
004000
004000
004000
3FFF00
004000
004000
004000
004000
00C000
008000
018000
030000
0E0000
000000
000000
ENDCHAR
STARTCHAR uni30CB
ENCODING 12491
SWIDTH 1080 0
DWIDTH 18 0
BBX 18 18 0 -3
BITMAP
000000
000000
000000
000000
000000
0FFC00
000000
000000
000000
000000
000000
000000
000000
3FFF00
000000
000000
000000
000000
ENDCHAR
STARTCHAR uni30CC
ENCODING 12492
SWIDTH 1080 0
DWIDTH 18 0
BBX 18 18 0 -3
BITMAP
000000
000000
000000
0FFC00
000400
000C00
000800
061800
03B000
00E000
007000
00D800
018C00
030400
060000
1C0000
000000
000000
ENDCHAR
STARTCHAR uni30CD
ENCODING 12493
SWIDTH 1080 0
DWIDTH 18 0
BBX 18 18 0 -3
BITMAP
000000
008000
008000
008000
1FFC00
001800
003000
006000
00C000
039800
0E8E00
388300
008000
008000
008000
008000
000000
000000
ENDCHAR
STARTCHAR uni30CE
ENCODING 12494
SWIDTH 1080 0
DWIDTH 18 0
BBX 18 18 0 -3
BITMAP
000000
000000
000000
000400
000400
000C00
000800
001800
003000
002000
006000
00C000
018000
030000
060000
1C0000
000000
000000
ENDCHAR
STARTCHAR uni30CF
ENCODING 12495
SWIDTH 1080 0
DWIDTH 18 0
BBX 18 18 0 -3
BITMAP
000000
000000
000000
000000
021000
021800
020800
060C00
040400
040600
040200
0C0200
080300
180100
300100
000000
000000
000000
ENDCHAR
STARTCHAR uni30D0
ENCODING 12496
SWIDTH 1080 0
DWIDTH 18 0
BBX 18 18 0 -3
BITMAP
000000
000280
000280
000000
021000
021800
020800
060C00
040400
040600
040200
0C0200
080300
180100
300100
000000
000000
000000
ENDCHAR
STARTCHAR uni30D1
ENCODING 12497
SWIDTH 1080 0
DWIDTH 18 0
BBX 18 18 0 -3
BITMAP
000000
000000
000000
000300
042480
043480
041300
0C1800
080800
080C00
080400
180400
100600
300200
600200
000000
000000
000000
ENDCHAR
STARTCHAR uni30D2
ENCODING 12498
SWIDTH 1080 0
DWIDTH 18 0
BBX 18 18 0 -3
BITMAP
000000
000000
080000
080000
080000
080C00
087800
0FC000
080000
080000
080000
080000
080000
0C0000
07FE00
000000
000000
000000
ENDCHAR
STARTCHAR uni30D3
ENCODING 12499
SWIDTH 1080 0
DWIDTH 18 0
BBX 18 18 0 -3
BITMAP
000000
000280
080280
080000
080000
080C00
087800
0FC000
080000
080000
080000
080000
080000
0C0000
07FE00
000000
000000
000000
ENDCHAR
STARTCHAR uni30D4
ENCODING 12500
SWIDTH 1080 0
DWIDTH 18 0
BBX 18 18 0 -3
BITMAP
000000
000000
100000
100300
100480
103480
11E300
1F0000
100000
100000
100000
100000
100000
180000
0FFC00
000000
000000
000000
ENDCHAR
STARTCHAR uni30D5
ENCODING 12501
SWIDTH 1080 0
DWIDTH 18 0
BBX 18 18 0 -3
BITMAP
000000
000000
000000
1FFE00
000200
000600
000400
000C00
000800
001800
003000
006000
00C000
038000
0E0000
000000
000000
000000
ENDCHAR
STARTCHAR uni30D6
ENCODING 12502
SWIDTH 1080 0
DWIDTH 18 0
BBX 18 18 0 -3
BITMAP
000000
000280
000280
3FFC00
000400
000C00
000800
001800
001000
003000
006000
00C000
018000
070000
1C0000
000000
000000
000000
ENDCHAR
STARTCHAR uni30D7
ENCODING 12503
SWIDTH 1080 0
DWIDTH 18 0
BBX 18 18 0 -3
BITMAP
000000
000000
000000
7FF300
001480
001480
003300
002000
006000
004000
00C000
018000
030000
0E0000
380000
000000
000000
000000
ENDCHAR
STARTCHAR uni30D8
ENCODING 12504
SWIDTH 1080 0
DWIDTH 18 0
BBX 18 18 0 -3
BITMAP
000000
000000
000000
000000
020000
070000
058000
0CC000
086000
183000
301800
000C00
000600
000300
000000
000000
000000
000000
ENDCHAR
STARTCHAR uni30D9
ENCODING 12505
SWIDTH 1080 0
DWIDTH 18 0
BBX 18 18 0 -3
BITMAP
000000
000000
002800
002800
020000
070000
058000
0CC000
086000
183000
301800
000C00
000600
000300
000000
000000
000000
000000
ENDCHAR
STARTCHAR uni30DA
ENCODING 12506
SWIDTH 1080 0
DWIDTH 18 0
BBX 18 18 0 -3
BITMAP
000000
000000
000000
000000
021800
072400
05A400
0CD800
086000
183000
301800
000C00
000600
000300
000000
000000
000000
000000
ENDCHAR
STARTCHAR uni30DB
ENCODING 12507
SWIDTH 1080 0
DWIDTH 18 0
BBX 18 18 0 -3
BITMAP
000000
000000
008000
008000
008000
3FFF00
008000
008000
048800
048C00
0C8600
088200
188300
308100
008000
038000
000000
000000
ENDCHAR
STARTCHAR uni30DC
ENCODING 12508
SWIDTH 1080 0
DWIDTH 18 0
BBX 18 18 0 -3
BITMAP
000000
000500
008500
008000
008000
3FFF00
008000
008000
048800
048C00
0C8600
088200
188300
308100
008000
038000
000000
000000
ENDCHAR
STARTCHAR uni30DD
ENCODING 12509
SWIDTH 1080 0
DWIDTH 18 0
BBX 18 18 0 -3
BITMAP
000000
000000
008000
008300
008480
3FFC80
008300
008000
049000
049800
0C8C00
088400
188600
308200
008000
038000
000000
000000
ENDCHAR
STARTCHAR uni30DE
ENCODING 12510
SWIDTH 1080 0
DWIDTH 18 0
BBX 18 18 0 -3
BITMAP
000000
000000
000000
000000
3FFF00
000600
000C00
001800
063000
036000
01C000
00C000
006000
003000
001000
000000
000000
000000
ENDCHAR
STARTCHAR uni30DF
ENCODING 12511
SWIDTH 1080 0
DWIDTH 18 0
BBX 18 18 0 -3
BITMAP
000000
000000
038000
00F000
001800
000000
000000
038000
00E000
003000
000000
000000
070000
01C000
007000
001800
000000
000000
ENDCHAR
STARTCHAR uni30E0
ENCODING 12512
SWIDTH 1080 0
DWIDTH 18 0
BBX 18 18 0 -3
BITMAP
000000
000000
008000
008000
018000
010000
010000
030000
020800
020800
060C00
040400
047E00
0FC200
380300
000000
000000
000000
ENDCHAR
STARTCHAR uni30E1
ENCODING 12513
SWIDTH 1080 0
DWIDTH 18 0
BBX 18 18 0 -3
BITMAP
000000
000000
000400
000400
000C00
000800
061800
03B000
00E000
007000
00D800
018C00
030400
060000
0C0000
380000
000000
000000
ENDCHAR
STARTCHAR uni30E2
ENCODING 12514
SWIDTH 1080 0
DWIDTH 18 0
BBX 18 18 0 -3
BITMAP
000000
000000
000000
1FFC00
010000
010000
010000
010000
3FFE00
010000
010000
010000
010000
018000
00FE00
000000
000000
000000
ENDCHAR
STARTCHAR uni30E3
ENCODING 12515
SWIDTH 1080 0
DWIDTH 18 0
BBX 18 18 0 -3
BITMAP
000000
000000
000000
000000
000000
000000
020000
030000
011E00
01F200
078600
1C8400
00C000
004000
006000
002000
002000
000000
ENDCHAR
STARTCHAR uni30E4
ENCODING 12516
SWIDTH 1080 0
DWIDTH 18 0
BBX 18 18 0 -3
BITMAP
000000
000000
040000
060000
020F00
02F900
0F8300
790600
018400
008000
00C000
004000
004000
006000
002000
002000
000000
000000
ENDCHAR
STARTCHAR uni30E5
ENCODING 12517
SWIDTH 1080 0
DWIDTH 18 0
BBX 18 18 0 -3
BITMAP
000000
000000
000000
000000
000000
000000
000000
000000
07E000
002000
002000
002000
002000
002000
002000
0FFC00
000000
000000
ENDCHAR
STARTCHAR uni30E6
ENCODING 12518
SWIDTH 1080 0
DWIDTH 18 0
BBX 18 18 0 -3
BITMAP
000000
000000
000000
000000
0FF000
001000
001000
001000
001000
001000
001000
001000
001000
3FFF00
000000
000000
000000
000000
ENDCHAR
STARTCHAR uni30E7
ENCODING 12519
SWIDTH 1080 0
DWIDTH 18 0
BBX 18 18 0 -3
BITMAP
000000
000000
000000
000000
000000
000000
000000
07F800
000800
000800
000800
07F800
000800
000800
000800
07F800
000000
000000
ENDCHAR
STARTCHAR uni30E8
ENCODING 12520
SWIDTH 1080 0
DWIDTH 18 0
BBX 18 18 0 -3
BITMAP
000000
000000
000000
0FFC00
000400
000400
000400
000400
0FFC00
000400
000400
000400
000400
000400
0FFC00
000000
000000
000000
ENDCHAR
STARTCHAR uni30E9
ENCODING 12521
SWIDTH 1080 0
DWIDTH 18 0
BBX 18 18 0 -3
BITMAP
000000
000000
000000
0FFC00
000000
000000
000000
1FFE00
000200
000600
000400
000C00
001800
003000
00E000
078000
000000
000000
ENDCHAR
STARTCHAR uni30EA
ENCODING 12522
SWIDTH 1080 0
DWIDTH 18 0
BBX 18 18 0 -3
BITMAP
000000
000000
040400
040400
040400
040400
040400
040400
040400
040400
000400
000C00
000800
001800
003000
00E000
000000
000000
ENDCHAR
STARTCHAR uni30EB
ENCODING 12523
SWIDTH 1080 0
DWIDTH 18 0
BBX 18 18 0 -3
BITMAP
000000
000000
002000
042000
042000
042000
042000
042000
042080
042180
042300
0C2600
082C00
183800
303000
000000
000000
000000
ENDCHAR
STARTCHAR uni30EC
ENCODING 12524
SWIDTH 1080 0
DWIDTH 18 0
BBX 18 18 0 -3
BITMAP
000000
000000
000000
040000
040000
040000
040000
040000
040100
040300
040600
040C00
043800
04E000
078000
000000
000000
000000
ENDCHAR
STARTCHAR uni30ED
ENCODING 12525
SWIDTH 1080 0
DWIDTH 18 0
BBX 18 18 0 -3
BITMAP
000000
000000
000000
000000
0FFC00
080400
080400
080400
080400
080400
080400
080400
080400
0FFC00
000000
000000
000000
000000
ENDCHAR
STARTCHAR uni30EE
ENCODING 12526
SWIDTH 1080 0
DWIDTH 18 0
BBX 18 18 0 -3
BITMAP
000000
000000
000000
000000
000000
000000
000000
0FFC00
080400
080400
080400
000C00
000800
001800
003000
00E000
038000
000000
ENDCHAR
STARTCHAR uni30EF
ENCODING 12527
SWIDTH 1080 0
DWIDTH 18 0
BBX 18 18 0 -3
BITMAP
000000
000000
000000
1FFE00
100200
100200
100200
000200
000600
000400
000C00
001800
003000
00E000
038000
000000
000000
000000
ENDCHAR
STARTCHAR uni30F0
ENCODING 12528
SWIDTH 1080 0
DWIDTH 18 0
BBX 18 18 0 -3
BITMAP
000000
000000
002000
002000
002000
1FFE00
042000
042000
042000
042000
042000
3FFF00
002000
002000
002000
002000
000000
000000
ENDCHAR
STARTCHAR uni30F1
ENCODING 12529
SWIDTH 1080 0
DWIDTH 18 0
BBX 18 18 0 -3
BITMAP
000000
000000
000000
000000
1FFE00
000600
000C00
009800
008000
008000
008000
008000
008000
3FFF00
000000
000000
000000
000000
ENDCHAR
STARTCHAR uni30F2
ENCODING 12530
SWIDTH 1080 0
DWIDTH 18 0
BBX 18 18 0 -3
BITMAP
000000
000000
000000
0FFE00
000200
000200
000200
0FFE00
000400
000C00
001800
003000
006000
01C000
070000
000000
000000
000000
ENDCHAR
STARTCHAR uni30F3
ENCODING 12531
SWIDTH 1080 0
DWIDTH 18 0
BBX 18 18 0 -3
BITMAP
000000
000000
000000
180000
0E0000
030000
000100
000300
000600
000C00
001800
003000
00E000
038000
1E0000
000000
000000
000000
ENDCHAR
STARTCHAR uni30F4
ENCODING 12532
SWIDTH 1080 0
DWIDTH 18 0
BBX 18 18 0 -3
BITMAP
000000
008280
008280
008000
1FFE00
100200
100200
100200
100200
000600
000400
000C00
001800
003000
00E000
038000
000000
000000
ENDCHAR
STARTCHAR uni30F5
ENCODING 12533
SWIDTH 1080 0
DWIDTH 18 0
BBX 18 18 0 -3
BITMAP
000000
000000
000000
000000
000000
000000
008000
008000
008000
0FFC00
008400
008400
018400
010400
030C00
060800
0C3800
000000
ENDCHAR
STARTCHAR uni30F6
ENCODING 12534
SWIDTH 1080 0
DWIDTH 18 0
BBX 18 18 0 -3
BITMAP
000000
000000
000000
000000
000000
000000
020000
020000
020000
07FE00
041000
0C1000
183000
002000
006000
00C000
018000
000000
ENDCHAR
STARTCHAR uni30FB
ENCODING 12539
SWIDTH 1080 0
DWIDTH 18 0
BBX 18 18 0 -3
BITMAP
000000
000000
000000
000000
000000
000000
000000
000000
00C000
00C000
000000
000000
000000
000000
000000
000000
000000
000000
ENDCHAR
STARTCHAR uni30FC
ENCODING 12540
SWIDTH 1080 0
DWIDTH 18 0
BBX 18 18 0 -3
BITMAP
000000
000000
000000
000000
000000
000000
000000
200000
1FFF00
000000
000000
000000
000000
000000
000000
000000
000000
000000
ENDCHAR
STARTCHAR uni30FD
ENCODING 12541
SWIDTH 1080 0
DWIDTH 18 0
BBX 18 18 0 -3
BITMAP
000000
000000
000000
000000
000000
030000
018000
00C000
006000
003000
001000
001800
000800
000000
000000
000000
000000
000000
ENDCHAR
STARTCHAR uni30FE
ENCODING 12542
SWIDTH 1080 0
DWIDTH 18 0
BBX 18 18 0 -3
BITMAP
000000
000000
000000
000000
002800
062800
030000
018000
00C000
006000
002000
003000
001000
000000
000000
000000
000000
000000
ENDCHAR
STARTCHAR uni4E00
ENCODING 19968
SWIDTH 1080 0
DWIDTH 18 0
BBX 18 18 0 -3
BITMAP
000000
000000
000000
000000
000000
000000
000000
000000
3FFF00
000000
000000
000000
000000
000000
000000
000000
000000
000000
ENDCHAR
STARTCHAR uni4E01
ENCODING 19969
SWIDTH 1080 0
DWIDTH 18 0
BBX 18 18 0 -3
BITMAP
000000
000000
000000
7FFF80
008000
008000
008000
008000
008000
008000
008000
008000
008000
008000
008000
008000
038000
000000
ENDCHAR
STARTCHAR uni4E03
ENCODING 19971
SWIDTH 1080 0
DWIDTH 18 0
BBX 18 18 0 -3
BITMAP
000000
020000
020000
020000
020000
020380
023E00
03E000
7E0000
020000
020000
020100
020100
020300
030200
01FE00
000000
000000
ENDCHAR
STARTCHAR uni4E07
ENCODING 19975
SWIDTH 1080 0
DWIDTH 18 0
BBX 18 18 0 -3
BITMAP
000000
000000
7FFF80
020000
020000
020000
03FC00
020400
020400
060400
040400
040400
0C0400
080400
180C00
300800
603800
000000
ENDCHAR
STARTCHAR uni4E08
ENCODING 19976
SWIDTH 1080 0
DWIDTH 18 0
BBX 18 18 0 -3
BITMAP
000000
004000
004000
004000
7FFF80
004000
004000
044000
064000
034000
01C000
008000
01C000
036000
063800
1C0E00
700380
000000
ENDCHAR
STARTCHAR uni4E09
ENCODING 19977
SWIDTH 1080 0
DWIDTH 18 0
BBX 18 18 0 -3
BITMAP
000000
000000
1FFE00
000000
000000
000000
000000
000000
0FFC00
000000
000000
000000
000000
000000
000000
7FFF80
000000
000000
ENDCHAR
STARTCHAR uni4E0A
ENCODING 19978
SWIDTH 1080 0
DWIDTH 18 0
BBX 18 18 0 -3
BITMAP
000000
008000
008000
008000
008000
008000
008000
00FE00
008000
008000
008000
008000
008000
008000
008000
7FFF80
000000
000000
ENDCHAR
STARTCHAR uni4E0B
ENCODING 19979
SWIDTH 1080 0
DWIDTH 18 0
BBX 18 18 0 -3
BITMAP
000000
000000
7FFF80
008000
008000
008000
00E000
00B000
009800
008C00
008400
008000
008000
008000
008000
008000
008000
000000
ENDCHAR
STARTCHAR uni4E0D
ENCODING 19981
SWIDTH 1080 0
DWIDTH 18 0
BBX 18 18 0 -3
BITMAP
000000
000000
7FFF80
004000
00C000
008000
01A000
03B000
069800
0C8C00
188600
708380
008000
008000
008000
008000
008000
000000
ENDCHAR
STARTCHAR uni4E0E
ENCODING 19982
SWIDTH 1080 0
DWIDTH 18 0
BBX 18 18 0 -3
BITMAP
000000
040000
040000
07F800
040000
040000
07F000
001000
001000
7FFF80
001000
001000
001000
003000
002000
006000
03C000
000000
ENDCHAR
STARTCHAR uni4E10
ENCODING 19984
SWIDTH 1080 0
DWIDTH 18 0
BBX 18 18 0 -3
BITMAP
000000
000000
7FFF80
008000
108000
10FF00
108000
108000
1FFF00
000100
000100
000300
000200
000200
000600
000400
003C00
000000
ENDCHAR
STARTCHAR uni4E11
ENCODING 19985
SWIDTH 1080 0
DWIDTH 18 0
BBX 18 18 0 -3
BITMAP
000000
000000
3FF800
020800
020800
020800
020800
020800
7FFF80
040800
040800
040800
040800
040800
040800
7FFF80
000000
000000
ENDCHAR
STARTCHAR uni4E14
ENCODING 19988
SWIDTH 1080 0
DWIDTH 18 0
BBX 18 18 0 -3
BITMAP
000000
000000
0FFC00
080400
080400
080400
0FFC00
080400
080400
080400
0FFC00
080400
080400
080400
080400
7FFF80
000000
000000
ENDCHAR
STARTCHAR uni4E15
ENCODING 19989
SWIDTH 1080 0
DWIDTH 18 0
BBX 18 18 0 -3
BITMAP
000000
000000
3FFF00
004000
00C000
008000
01A000
03B000
069800
1C8E00
708380
008000
008000
008000
000000
7FFF80
000000
000000
ENDCHAR
STARTCHAR uni4E16
ENCODING 19990
SWIDTH 1080 0
DWIDTH 18 0
BBX 18 18 0 -3
BITMAP
000000
000000
088400
088400
088400
088400
7FFF80
088400
088400
088400
088400
08FC00
080000
080000
080000
0FFF00
000000
000000
ENDCHAR
STARTCHAR uni4E17
ENCODING 19991
SWIDTH 1080 0
DWIDTH 18 0
BBX 18 18 0 -3
BITMAP
000000
088400
088400
088400
088400
088400
088400
7FFF80
088400
088400
088400
088400
088400
088400
088400
0FFC00
000000
000000
ENDCHAR
STARTCHAR uni4E18
ENCODING 19992
SWIDTH 1080 0
DWIDTH 18 0
BBX 18 18 0 -3
BITMAP
000000
000C00
007800
0FC000
080000
080000
080000
0FFF00
080800
080800
080800
080800
080800
080800
080800
7FFF80
000000
000000
ENDCHAR
STARTCHAR uni4E19
ENCODING 19993
SWIDTH 1080 0
DWIDTH 18 0
BBX 18 18 0 -3
BITMAP
000000
000000
7FFF80
008000
008000
1FFE00
108200
11C200
116200
133200
161A00
100200
100200
100200
100200
100200
100E00
000000
ENDCHAR
STARTCHAR uni4E1E
ENCODING 19998
SWIDTH 1080 0
DWIDTH 18 0
BBX 18 18 0 -3
BITMAP
000000
000000
1FFC00
000800
003000
00E100
3EA300
02B600
069400
0C9800
188C00
308600
608380
038000
000000
3FFF00
000000
000000
ENDCHAR
STARTCHAR uni4E21
ENCODING 20001
SWIDTH 1080 0
DWIDTH 18 0
BBX 18 18 0 -3
BITMAP
000000
000000
7FFF80
008000
008000
3FFF00
208100
208100
248900
248900
248900
248900
27F900
200100
200100
200100
200700
000000
ENDCHAR
STARTCHAR uni4E25
ENCODING 20005
SWIDTH 1080 0
DWIDTH 18 0
BBX 18 18 0 -3
BITMAP
000000
7FFF80
021000
221100
121200
0A1400
021000
3FFF80
200000
200000
200000
200000
200000
200000
200000
400000
000000
000000
ENDCHAR
STARTCHAR uni4E26
ENCODING 20006
SWIDTH 1080 0
DWIDTH 18 0
BBX 18 18 0 -3
BITMAP
000000
080400
0C0C00
061800
021000
3FFF00
021000
021000
221100
221100
321300
121200
121200
021000
021000
7FFF80
000000
000000
ENDCHAR
STARTCHAR uni4E2A
ENCODING 20010
SWIDTH 1080 0
DWIDTH 18 0
BBX 18 18 0 -3
BITMAP
000000
008000
01C000
016000
033000
061800
0C0C00
188600
708380
008000
008000
008000
008000
008000
008000
008000
008000
000000
ENDCHAR
STARTCHAR uni4E2D
ENCODING 20013
SWIDTH 1080 0
DWIDTH 18 0
BBX 18 18 0 -3
BITMAP
000000
008000
008000
008000
008000
3FFF00
208100
208100
208100
208100
208100
3FFF00
008000
008000
008000
008000
008000
000000
ENDCHAR
STARTCHAR uni4E31
ENCODING 20017
SWIDTH 1080 0
DWIDTH 18 0
BBX 18 18 0 -3
BITMAP
000000
021000
021000
221100
221100
221100
221100
221100
221100
221100
221100
3E1F00
021000
061000
0C1000
181000
701000
000000
ENDCHAR
STARTCHAR uni4E32
ENCODING 20018
SWIDTH 1080 0
DWIDTH 18 0
BBX 18 18 0 -3
BITMAP
000000
008000
008000
1FFE00
108200
108200
108200
1FFE00
008000
3FFF00
208100
208100
208100
3FFF00
008000
008000
008000
000000
ENDCHAR
STARTCHAR uni4E36
ENCODING 20022
SWIDTH 1080 0
DWIDTH 18 0
BBX 18 18 0 -3
BITMAP
000000
000000
000000
000000
0C0000
070000
018000
00C000
006000
003000
003800
001C00
000C00
000C00
000000
000000
000000
000000
ENDCHAR
STARTCHAR uni4E38
ENCODING 20024
SWIDTH 1080 0
DWIDTH 18 0
BBX 18 18 0 -3
BITMAP
000000
010000
010000
010000
010000
3FF800
010800
010800
190800
0D0800
070800
020800
070800
058800
0C8880
180980
700700
000000
ENDCHAR
STARTCHAR uni4E39
ENCODING 20025
SWIDTH 1080 0
DWIDTH 18 0
BBX 18 18 0 -3
BITMAP
000000
000000
0FFC00
080400
080400
098400
08C400
084400
080400
7FFF80
080400
080400
080400
180400
100400
300400
601C00
000000
ENDCHAR
STARTCHAR uni4E3B
ENCODING 20027
SWIDTH 1080 0
DWIDTH 18 0
BBX 18 18 0 -3
BITMAP
000000
030000
018000
008000
3FFF00
008000
008000
008000
008000
1FFE00
008000
008000
008000
008000
008000
7FFF80
000000
000000
ENDCHAR
STARTCHAR uni4E3C
ENCODING 20028
SWIDTH 1080 0
DWIDTH 18 0
BBX 18 18 0 -3
BITMAP
000000
040800
040800
040800
7FFF80
040800
058800
04C800
044800
040800
040800
7FFF80
040800
040800
0C0800
180800
700800
000000
ENDCHAR
STARTCHAR uni4E3F
ENCODING 20031
SWIDTH 1080 0
DWIDTH 18 0
BBX 18 18 0 -3
BITMAP
000000
004000
004000
004000
004000
004000
004000
004000
004000
004000
004000
00C000
008000
018000
030000
0E0000
380000
000000
ENDCHAR
STARTCHAR uni4E42
ENCODING 20034
SWIDTH 1080 0
DWIDTH 18 0
BBX 18 18 0 -3
BITMAP
000000
080400
080400
0C0C00
040800
040800
061800
021000
033000
012000
01E000
00C000
01E000
033000
061800
1C0E00
700380
000000
ENDCHAR
STARTCHAR uni4E43
ENCODING 20035
SWIDTH 1080 0
DWIDTH 18 0
BBX 18 18 0 -3
BITMAP
000000
000000
3FF800
020800
020800
020800
020800
020F00
060100
040100
040100
0C0100
080100
180300
300200
601E00
000000
000000
ENDCHAR
STARTCHAR uni4E45
ENCODING 20037
SWIDTH 1080 0
DWIDTH 18 0
BBX 18 18 0 -3
BITMAP
000000
010000
010000
03F000
021000
061000
0C3000
182000
306000
004000
00E000
01A000
033000
061800
0C0C00
180600
700380
000000
ENDCHAR
STARTCHAR uni4E4B
ENCODING 20043
SWIDTH 1080 0
DWIDTH 18 0
BBX 18 18 0 -3
BITMAP
000000
008000
008000
008000
3FFF00
000300
000600
000C00
001800
003000
006000
00C000
018000
030000
1E0000
73C000
007F80
000000
ENDCHAR
STARTCHAR uni4E4D
ENCODING 20045
SWIDTH 1080 0
DWIDTH 18 0
BBX 18 18 0 -3
BITMAP
000000
080000
080000
080000
1FFF80
108000
308000
608000
00FE00
008000
008000
008000
00FF00
008000
008000
008000
008000
000000
ENDCHAR
STARTCHAR uni4E4E
ENCODING 20046
SWIDTH 1080 0
DWIDTH 18 0
BBX 18 18 0 -3
BITMAP
000000
000C00
00F800
3F8000
008200
108600
188C00
088800
008000
7FFF80
008000
008000
008000
008000
008000
008000
038000
000000
ENDCHAR
STARTCHAR uni4E4F
ENCODING 20047
SWIDTH 1080 0
DWIDTH 18 0
BBX 18 18 0 -3
BITMAP
000000
000300
001E00
1FF000
004000
004000
004000
3FFF00
000600
000C00
001800
003000
00E000
038000
1E0000
73C000
007F80
000000
ENDCHAR
STARTCHAR uni4E55
ENCODING 20053
SWIDTH 1080 0
DWIDTH 18 0
BBX 18 18 0 -3
BITMAP
000000
000700
003C00
1FE000
102000
1FFF80
102000
102000
1FFF80
102000
102000
17FF00
342100
242100
642100
042700
002000
000000
ENDCHAR
STARTCHAR uni4E56
ENCODING 20054
SWIDTH 1080 0
DWIDTH 18 0
BBX 18 18 0 -3
BITMAP
000000
000C00
00F800
1F8000
008000
008000
7FFF80
008000
049000
049300
7C9E00
049000
049080
1C9980
748F00
008000
008000
000000
ENDCHAR
STARTCHAR uni4E57
ENCODING 20055
SWIDTH 1080 0
DWIDTH 18 0
BBX 18 18 0 -3
BITMAP
000000
001C00
1FF000
008000
3FFF00
088400
088400
7FFF80
088400
088400
3FFF00
029000
069800
0C8C00
188600
708380
008000
000000
ENDCHAR
ENDFONT
